<?xml version="1.0" encoding="UTF-8" standalone="no"?>
<!-- Generator: Adobe Illustrator 16.0.0, SVG Export Plug-In . SVG Version: 6.00 Build 0)  -->

<svg
   xmlns:dc="http://purl.org/dc/elements/1.1/"
   xmlns:cc="http://creativecommons.org/ns#"
   xmlns:rdf="http://www.w3.org/1999/02/22-rdf-syntax-ns#"
   xmlns:svg="http://www.w3.org/2000/svg"
   xmlns="http://www.w3.org/2000/svg"
   xmlns:sodipodi="http://sodipodi.sourceforge.net/DTD/sodipodi-0.dtd"
   xmlns:inkscape="http://www.inkscape.org/namespaces/inkscape"
   version="1.1"
   id="Capa_1"
   x="0px"
   y="0px"
   width="52"
   height="32"
   viewBox="0 0 52 32"
   xml:space="preserve"
   sodipodi:docname="assistenza_icon_32.svg"
   inkscape:version="0.92.2 5c3e80d, 2017-08-06"><metadata
     id="metadata57"><rdf:RDF><cc:Work
         rdf:about=""><dc:format>image/svg+xml</dc:format><dc:type
           rdf:resource="http://purl.org/dc/dcmitype/StillImage" /><dc:title></dc:title></cc:Work></rdf:RDF></metadata><defs
     id="defs55" /><sodipodi:namedview
     pagecolor="#ffffff"
     bordercolor="#666666"
     borderopacity="1"
     objecttolerance="10"
     gridtolerance="10"
     guidetolerance="10"
     inkscape:pageopacity="0"
     inkscape:pageshadow="2"
     inkscape:window-width="1908"
     inkscape:window-height="1018"
     id="namedview53"
     showgrid="false"
     inkscape:showpageshadow="false"
     inkscape:zoom="6.5703125"
     inkscape:cx="40.231019"
     inkscape:cy="11.665102"
     inkscape:window-x="0"
     inkscape:window-y="0"
     inkscape:window-maximized="0"
     inkscape:current-layer="Capa_1" /><g
     id="g22"
     transform="translate(0,-457.76599)" /><g
     id="g24"
     transform="translate(0,-457.76599)" /><g
     id="g26"
     transform="translate(0,-457.76599)" /><g
     id="g28"
     transform="translate(0,-457.76599)" /><g
     id="g30"
     transform="translate(0,-457.76599)" /><g
     id="g32"
     transform="translate(0,-457.76599)" /><g
     id="g34"
     transform="translate(0,-457.76599)" /><g
     id="g36"
     transform="translate(0,-457.76599)" /><g
     id="g38"
     transform="translate(0,-457.76599)" /><g
     id="g40"
     transform="translate(0,-457.76599)" /><g
     id="g42"
     transform="translate(0,-457.76599)" /><g
     id="g44"
     transform="translate(0,-457.76599)" /><g
     id="g46"
     transform="translate(0,-457.76599)" /><g
     id="g48"
     transform="translate(0,-457.76599)" /><g
     id="g50"
     transform="translate(0,-457.76599)" /><g
     id="g1558"><g
       transform="matrix(0.04492242,0,0,0.04492242,3.9998456,4.4998261)"
       id="g2182"><path
         inkscape:connector-curvature="0"
         style="fill:#7f7369"
         d="m 331.028,246.986 h -45.136 c -6.833,0 -12.423,-5.59 -12.423,-12.423 l -6.211,-105.265 c 0,0 -10.051,-87.194 42.082,-98.652 0,0 21.197,-41.248 89.083,-28.033 0.928,0.181 1.82,0.514 2.721,0.793 15.639,4.851 30.178,13.434 42.266,25.46 36.97,36.788 29.536,80.252 30.463,85.658 0,30.197 0.477,-3.367 -6.211,120.04 0,6.833 -5.59,12.423 -12.423,12.423 H 407.22"
         id="path1955" /><path
         inkscape:connector-curvature="0"
         style="fill:#72655a"
         d="m 338.876,246.986 v -14.772 c -27.903,-12.33 -45.299,-38.716 -46.765,-67.642 -0.01,-0.192 -0.04,-0.801 -0.044,-0.915 -0.04,-1.023 -0.066,-2.048 -0.066,-3.081 0.014,-46.476 -0.028,-43.655 0.035,-44.419 -0.466,-24.805 3.372,-76.842 42.825,-85.513 0,0 12.99,-25.271 51.193,-29.914 -29.109,-3.199 -63.254,5.45 -76.715,29.914 -35.179,7.732 -43.642,50.567 -42.808,86.38 0.012,0.499 0.025,0.986 0.04,1.46 0.206,6.639 0.687,10.812 0.687,10.812 l 6.211,105.265 c 0,6.833 5.59,12.423 12.423,12.423 10.933,0.002 41.036,0.002 52.984,0.002 z"
         id="path1957" /><path
         inkscape:connector-curvature="0"
         style="fill:#dd9a5e"
         d="M 228.256,477.26 241.61,357.931 c 4.68,-36.032 2.761,-49.875 14.388,-63.983 -3.591,-4.366 -8.717,-8.438 -12.097,-10.502 l -0.372,-0.092 c -12.572,-7.531 -23.157,-7.846 -46.519,-14.274 v 0 l -23.89,-11.435 v 0 -28.537 c -20.015,8.85 -43.03,8.541 -62.297,0.163 v 0 l -0.103,28.492 v 0 0 0 l -23.788,11.318 v 0 c -23.212,6.387 -33.922,6.728 -46.519,14.274 l -0.372,0.092 c -1.06,0.647 -2.18,1.427 -3.284,2.301 -18.001,12.923 -18.286,29.711 -19.837,42.117 l -7.149,63.887 v 0 c -10.069,91.431 -9.764,84.076 -9.764,91.124 -0.158,11.604 6.961,29.123 28.588,29.123 v 0 c 2.006,0 225.695,0.011 227.403,-0.017 -19.374,-0.324 -29.439,-15.102 -27.742,-34.722 z"
         id="path1959" /><g
         id="g1965"><path
           inkscape:connector-curvature="0"
           style="fill:#d38d54"
           d="m 25.763,482.84 c -0.174,-10.081 1.934,-9.972 17.727,-173.575 1.651,-13.534 5.754,-24.591 17.56,-33.741 -1.788,0.567 -10.824,1.952 -20.637,7.831 l -0.372,0.092 c -1.132,0.691 -2.257,1.488 -3.284,2.301 -18.001,12.923 -18.286,29.711 -19.837,42.117 -0.129,1.131 -16.914,150.066 -16.914,155.011 -0.158,11.604 6.961,29.123 28.588,29.123 v 0 H 54.35 c -18.55,0 -28.913,-13.954 -28.587,-29.159 z"
           id="path1961" /><path
           inkscape:connector-curvature="0"
           style="fill:#d38d54"
           d="m 136.481,282.131 v -46.672 c -9.275,-0.623 -17.956,-2.84 -25.659,-6.188 l -0.103,28.492 v 0 z"
           id="path1963" /></g><path
         inkscape:connector-curvature="0"
         style="fill:#eab883"
         d="M 511.794,477.26 C 493.603,316.17 494.628,320.716 492.999,312.842 490.356,300.061 482.651,289.978 471.955,283.446 l -0.371,-0.092 c -4.552,-2.727 -9.627,-4.876 -15.076,-6.446 l -52.449,-13.057 c -1.705,-0.772 -2.885,-3.311 -2.885,-6.206 v -25.298 c -19.768,8.621 -42.807,8.484 -62.297,-0.132 v 25.431 c 0,2.895 -1.18,5.434 -2.885,6.206 -44.369,11.82 -54.237,11.544 -67.525,19.503 l -0.371,0.092 c -14.678,8.964 -20.351,21.113 -22.307,37.151 L 228.257,477.26 c -1.757,20.31 9.01,34.739 28.393,34.739 30.845,0 202.098,0 226.752,0 21.627,0 28.746,-17.519 28.588,-29.123 0,-0.012 0,-0.024 0,-0.036 0.035,-2.101 -0.061,-4.009 -0.196,-5.58 z"
         id="path1967" /><path
         inkscape:connector-curvature="0"
         style="fill:#d8a373"
         d="m 253.817,482.876 c 0,-0.012 0,-0.024 0,-0.036 -0.036,-2.101 0.059,-4.009 0.195,-5.58 l 17.532,-165.934 c 1.874,-15.368 7.109,-27.509 21.869,-36.875 -4.333,1.312 -14.211,2.473 -24.946,8.903 l -0.371,0.092 c -14.678,8.964 -20.352,21.114 -22.307,37.151 l -17.532,156.662 c -1.756,20.31 9.01,34.739 28.393,34.739 15.943,0 9.811,0 25.756,0 -21.629,0.001 -28.747,-17.518 -28.589,-29.122 z"
         id="path1969" /><path
         inkscape:connector-curvature="0"
         style="fill:#d83d3d"
         d="m 502.222,391.732 c -8.267,-73.386 -7.91,-72.535 -9.223,-78.891 -2.658,-12.853 -10.448,-22.927 -21.044,-29.396 -0.105,-0.026 -0.477,-0.118 -0.371,-0.092 -4.552,-2.727 -9.627,-4.876 -15.076,-6.446 L 404.059,263.85 c -1.705,-0.772 -2.885,-3.311 -2.885,-6.206 v -25.298 0 -0.132 c -19.928,8.804 -42.851,8.592 -62.297,0 v 0.132 0 25.298 c 0,2.895 -1.18,5.434 -2.885,6.206 -44.369,11.82 -54.237,11.543 -67.525,19.503 -0.105,0.026 -0.477,0.118 -0.371,0.092 -14.546,8.88 -20.354,21.138 -22.307,37.151 l -7.961,71.135 50.178,5.265 c 2.668,0.28 4.652,2.597 4.517,5.277 l -5.512,109.725 c 61.421,0 104.935,0 166.33,0 l -5.778,-109.3 c -0.154,-2.915 2.002,-5.441 4.906,-5.746 z"
         id="path1971" /><path
         inkscape:connector-curvature="0"
         style="fill:#a82626"
         d="m 237.827,391.732 24.945,2.617 8.772,-83.024 c 1.873,-15.365 7.107,-27.508 21.869,-36.875 -6.237,1.672 -15.315,3.134 -24.946,8.904 -0.105,0.026 -0.477,0.118 -0.371,0.092 -10.735,6.553 -18.411,16.662 -21.044,29.396 -1.617,7.808 -1.311,9.512 -9.225,78.89 z"
         id="path1973" /><path
         inkscape:connector-curvature="0"
         style="fill:#70bbef"
         d="m 243.714,283.446 c -0.105,-0.026 -0.477,-0.118 -0.372,-0.092 -12.6,-7.548 -23.354,-7.902 -46.356,-14.233 l 0.022,-0.041 -23.89,-11.435 -0.173,0.261 c -0.001,-0.032 -0.003,-0.063 -0.005,-0.094 l -31.157,29.335 -31.066,-29.384 -23.788,11.318 v 0 c -23.213,6.387 -33.922,6.728 -46.519,14.274 l -0.372,0.092 c -14.679,8.963 -20.351,21.117 -22.307,37.151 l -7.963,71.154 49.218,5.164 c 3.103,0.326 5.41,3.021 5.254,6.137 l -5.47,108.946 c 50.568,0 112.705,0 166.33,0 l -5.778,-109.287 c -0.155,-2.923 2.007,-5.455 4.919,-5.761 l 13.156,-1.38 c 9.646,-80.023 6.825,-87.206 18.511,-101.509 -2.563,-3.139 -9.398,-8.909 -12.194,-10.616 z"
         id="path1975" /><path
         inkscape:connector-curvature="0"
         style="fill:#4caee5"
         d="m 43.49,309.265 c 1.651,-13.534 5.754,-24.591 17.56,-33.741 -2.339,0.664 -11.132,2.137 -20.637,7.831 l -0.372,0.092 c -3.483,2.127 -8.669,6.299 -12.193,10.614 -12.47,15.266 -9.079,27.305 -18.077,97.692 l 25.457,2.671 c -0.076,0.81 1.021,-10.153 8.262,-85.159 z"
         id="path1977" /><path
         inkscape:connector-curvature="0"
         style="fill:#eab883"
         d="m 425.063,269.08 -21.005,-5.229 c -1.705,-0.772 -2.885,-3.311 -2.885,-6.206 v -28.389 0 -0.132 c -20.094,8.878 -43.045,8.506 -62.297,0 v 0.132 0 28.389 c 0,2.895 -1.18,5.434 -2.885,6.206 l -21.321,5.308 c 25.625,43.098 84.788,43.115 110.393,-0.079 z"
         id="path1979" /><path
         inkscape:connector-curvature="0"
         id="SVGCleanerId_0"
         style="fill:#4c4846"
         d="M 44.139,124.499 V 97.645 c 0,-79.044 89.36,-124.776 153.471,-80.114 50.288,35.111 40.71,86.743 41.816,106.968" /><g
         id="g1983"><path
           inkscape:connector-curvature="0"
           id="SVGCleanerId_0_1_"
           style="fill:#4c4846"
           d="M 44.139,124.499 V 97.645 c 0,-79.044 89.36,-124.776 153.471,-80.114 50.288,35.111 40.71,86.743 41.816,106.968" /></g><path
         inkscape:connector-curvature="0"
         style="fill:#3f3b39"
         d="M 151.518,0.488 C 94.732,-5.15 44.139,39.248 44.139,97.645 v 26.854 H 63.61 V 97.645 c 0,-50.2 38.117,-92.21 87.908,-97.157 z"
         id="path1985" /><g
         id="g1991"><path
           inkscape:connector-curvature="0"
           style="fill:#dd9a5e"
           d="m 244.286,133.231 c 0,11.253 -10.893,20.374 -24.33,20.374 v -40.747 c 13.437,0 24.33,9.121 24.33,20.373 z"
           id="path1987" /><path
           inkscape:connector-curvature="0"
           style="fill:#dd9a5e"
           d="m 39.279,133.231 c 0,11.253 10.893,20.374 24.331,20.374 v -40.747 c -13.438,0 -24.331,9.121 -24.331,20.373 z"
           id="path1989" /></g><g
         id="g1997"><path
           inkscape:connector-curvature="0"
           style="fill:#d38d54"
           d="m 219.956,135.292 v 18.313 c 13.437,0 24.33,-9.121 24.33,-20.374 0,-3.294 -0.939,-6.403 -2.597,-9.156 -4.005,6.652 -12.23,11.217 -21.733,11.217 z"
           id="path1993" /><path
           inkscape:connector-curvature="0"
           style="fill:#d38d54"
           d="m 41.876,124.075 c -8.073,13.408 3.509,29.53 21.734,29.53 v -18.313 c -9.504,0 -17.729,-4.565 -21.734,-11.217 z"
           id="path1995" /></g><path
         inkscape:connector-curvature="0"
         style="fill:#edae6b"
         d="m 201.945,84.55 c -0.284,-7.808 -6.714,-12.086 -12.917,-11.12 -1.45,0.225 -3.051,0.46 -4.077,0.605 -30.82,4.375 -60.119,4.099 -90.41,-0.605 -6.156,-0.959 -12.637,3.25 -12.917,11.121 -0.423,11.6 -5.245,20.225 -12.592,25.597 -3.061,2.24 -5.319,3.006 -5.422,3.063 0,50.602 -0.604,53.984 2.107,65.447 2.596,10.944 7.396,20.727 13.675,29.027 36.373,48.103 112.526,38.712 135.106,-18.347 7.474,-18.881 5.46,-33.215 5.46,-76.127 -0.292,-0.218 -17.205,-6.216 -18.013,-28.661 z"
         id="path1999" /><path
         inkscape:connector-curvature="0"
         style="fill:#dd9a5e"
         d="m 92.275,191.573 c -5.52,-19.676 -2.457,-31.695 -3.32,-68.989 0,-3.84 1.928,-7.103 4.281,-8.771 9.281,-6.602 13.494,-17.397 13.757,-28.92 0.091,-3.877 1.907,-7.205 4.587,-9.292 -3.72,-0.372 -7.331,-0.801 -10.668,-1.249 -1.942,-0.26 -4.159,-0.578 -6.371,-0.922 -6.139,-0.956 -12.635,3.238 -12.917,11.121 -0.424,11.58 -5.237,20.219 -12.592,25.597 -3.062,2.241 -5.319,3.006 -5.422,3.063 0,50.911 -0.03,48.281 0.073,50.787 1.579,35.717 27.067,64.764 58.879,72.353 -1.48,-1.105 -24.083,-22.638 -30.287,-44.778 z"
         id="path2001" /><path
         inkscape:connector-curvature="0"
         style="fill:#4caee5"
         d="m 149.511,343.295 v -63.423 l -7.727,7.275 -7.727,-7.309 v 63.457 c 0,4.268 3.459,7.727 7.727,7.727 4.268,0 7.727,-3.459 7.727,-7.727 z"
         id="path2003" /><path
         inkscape:connector-curvature="0"
         style="fill:#dadada"
         d="m 173.119,257.645 -31.335,29.502 16.915,17.046 c 3.23,3.255 8.583,2.938 11.407,-0.676 l 26.903,-34.437 z"
         id="path2005" /><g
         id="g2011"><polygon
           style="fill:#ceccca"
           points="173.119,257.645 141.784,287.147 152.978,298.427 185.149,263.403 "
           id="polygon2007" /><path
           inkscape:connector-curvature="0"
           style="fill:#ceccca"
           d="m 161,305.775 c 1.415,0.632 2.974,0.812 4.467,0.542 z"
           id="path2009" /></g><path
         inkscape:connector-curvature="0"
         style="fill:#dadada"
         d="m 110.719,257.763 31.066,29.384 -16.915,17.046 c -3.23,3.255 -8.583,2.938 -11.407,-0.676 L 86.56,269.08 Z"
         id="path2013" /><polygon
         style="fill:#ceccca"
         points="130.591,298.427 141.784,287.147 110.719,257.763 97.983,263.729 119.884,287.033 "
         id="polygon2015" /><path
         inkscape:connector-curvature="0"
         style="fill:#d8a373"
         d="m 364.762,273.386 v -37.935 c -9.241,-0.633 -18.005,-2.846 -25.886,-6.328 -0.783,22.526 2.041,32.496 -2.885,34.728 l -21.321,5.308 c 5.308,8.927 12.484,16.474 20.944,22.027 l 22.135,-8.139 c 0.002,-0.001 7.013,-3.481 7.013,-9.661 z"
         id="path2017" /><path
         inkscape:connector-curvature="0"
         style="fill:#f7cf9c"
         d="m 440.485,135.004 c 4.399,0.206 7.865,3.827 7.865,8.231 v 5.911 0 0 c -0.021,10.497 0.71,20.69 -3.32,34.044 -4.059,13.461 -11.707,25.828 -23.201,36.053 -48.494,43.186 -126.417,10.585 -129.718,-54.671 -0.015,-0.295 -0.004,0.084 -0.044,-0.915 -0.04,-1.023 -0.066,-2.048 -0.066,-3.081 0,-9.31 0,-30.558 0,-39.654 v 0 -3.96 c 0,-4.6 3.241,-8.533 7.741,-9.485 7.984,-1.688 20.885,-6.275 32.588,-18.731 2.941,-3.13 7.958,-2.967 10.692,0.345 11.356,13.76 42.021,43.322 97.463,45.913 z"
         id="path2019" /><path
         inkscape:connector-curvature="0"
         style="fill:#eab883"
         d="m 325.843,195.243 c -10.323,-20.86 -7.926,-35.647 -8.086,-64.641 0,-10.062 0,-20.097 0,-30.177 -6.878,4.035 -13.304,6.057 -18.015,7.053 -4.501,0.952 -7.741,4.885 -7.741,9.485 0,10.082 0,32.473 0,43.613 0,1.292 0.068,3.304 0.073,3.423 0.004,0.104 0.11,1.906 0.182,2.813 3.607,45.888 45.916,78.297 90.797,70.86 -24.673,-4.089 -46,-19.849 -57.21,-42.429 z"
         id="path2021" /><g
         id="g2027"><path
           inkscape:connector-curvature="0"
           style="fill:#b72c2c"
           d="m 440.133,272.832 -15.07,-3.751 c -11.54,19.468 -31.95,32.416 -55.22,32.416 0,-0.001 70.602,70.609 70.29,-28.665 z"
           id="path2023" /><path
           inkscape:connector-curvature="0"
           style="fill:#b72c2c"
           d="m 299.885,272.832 15.07,-3.751 c 11.54,19.468 31.95,32.416 55.22,32.416 0,-0.001 -70.602,70.609 -70.29,-28.665 z"
           id="path2025" /></g><g
         id="g2033"><path
           inkscape:connector-curvature="0"
           style="fill:#a82626"
           d="m 336.591,291.609 c -12.457,6.632 -26.812,9.797 -36.006,-2.503 7.315,74.669 69.59,12.39 69.59,12.39 -12.287,0 -23.776,-3.613 -33.584,-9.887 z"
           id="path2029" /><path
           inkscape:connector-curvature="0"
           style="fill:#a82626"
           d="m 403.427,291.609 c 12.457,6.632 26.812,9.797 36.006,-2.503 -7.315,74.669 -69.59,12.39 -69.59,12.39 12.288,0 23.776,-3.613 33.584,-9.887 z"
           id="path2031" /></g><path
         inkscape:connector-curvature="0"
         style="fill:#996123"
         d="m 309.413,277.28 c -29.615,-37.334 -86.807,-33.283 -111.406,6.512 -14.395,23.256 -8.964,44.445 -10.157,50.928 h 136.295 c -0.432,-13.314 3.239,-34.805 -14.732,-57.44 z"
         id="path2035" /><path
         inkscape:connector-curvature="0"
         style="fill:#8e551c"
         d="m 206.339,303.841 c 0.305,-1.291 1.025,-3.843 1.057,-3.95 7.596,-25.193 29.568,-44.574 56.927,-47.909 -27.085,-3.301 -52.642,9.674 -66.317,31.81 -14.395,23.256 -8.963,44.441 -10.157,50.928 h 16.652 c 0.019,-14.217 -0.528,-20.849 1.838,-30.879 z"
         id="path2037" /><path
         inkscape:connector-curvature="0"
         style="fill:#996123"
         d="m 344.433,391.76 c -5.987,-18.575 -13.75,-30.17 -19.668,-36.216 -3.416,3.366 -8.153,5.759 -13.543,6.618 9.886,14.255 7.72,28.482 7.227,36.947 -0.225,3.862 3.251,6.894 7.038,6.108 l 12.618,-2.617 c 4.909,-1.018 7.866,-6.07 6.328,-10.84 z"
         id="path2039" /><path
         inkscape:connector-curvature="0"
         style="fill:#efd0a3"
         d="m 331.406,343.792 c 0,10.911 -10.561,19.753 -23.589,19.753 v -39.504 c 13.028,0 23.589,8.842 23.589,19.751 z"
         id="path2041" /><path
         inkscape:connector-curvature="0"
         style="fill:#8e551c"
         d="m 167.561,391.76 c 5.987,-18.575 13.75,-30.17 19.668,-36.216 3.416,3.366 8.153,5.759 13.543,6.618 -9.886,14.255 -7.72,28.482 -7.227,36.947 0.225,3.862 -3.251,6.894 -7.039,6.108 L 173.888,402.6 c -4.907,-1.018 -7.864,-6.07 -6.327,-10.84 z"
         id="path2043" /><path
         inkscape:connector-curvature="0"
         style="fill:#efd0a3"
         d="m 180.589,343.792 c 0,10.911 10.561,19.753 23.589,19.753 v -39.504 c -13.028,0 -23.589,8.842 -23.589,19.751 z"
         id="path2045" /><g
         id="g2051"><path
           inkscape:connector-curvature="0"
           style="fill:#e2bf91"
           d="m 307.816,346.626 v 16.92 c 17.481,0 28.659,-15.268 21.319,-28.213 -3.784,6.676 -11.906,11.293 -21.319,11.293 z"
           id="path2047" /><path
           inkscape:connector-curvature="0"
           style="fill:#e2bf91"
           d="m 182.859,335.333 c -7.353,12.968 3.887,28.213 21.319,28.213 v -16.92 c -9.412,0 -17.534,-4.617 -21.319,-11.293 z"
           id="path2049" /></g><path
         inkscape:connector-curvature="0"
         style="fill:#efd0a3"
         d="m 343.624,511.999 -5.374,-48.025 c -1.226,-10.057 -4.763,-18.504 -14.787,-24.626 l -0.246,-0.061 c -8.772,-5.255 -15.137,-5.036 -44.76,-12.928 -3.275,-1.483 -1.374,-7.837 -1.912,-23.974 -13.235,5.792 -28.555,5.551 -41.294,-0.088 -0.524,15.762 1.376,22.572 -1.912,24.062 -29.566,7.877 -35.977,7.667 -44.759,12.928 l -0.246,0.061 c -7.066,4.316 -12.192,10.985 -13.949,19.485 -1.048,5.068 -0.774,5.479 -6.212,53.166 z"
         id="path2053" /><path
         inkscape:connector-curvature="0"
         style="fill:#f9b938"
         d="m 168.171,511.999 c 42.548,0 132.877,0 175.452,0 l -5.374,-48.025 c -1.224,-10.045 -4.776,-18.514 -14.787,-24.626 l -0.246,-0.061 c -8.697,-5.21 -15.708,-5.223 -39.192,-11.542 0,0.221 0,6.32 0,6.214 0,4.452 -1.046,8.692 -2.899,12.429 -0.306,0.619 -0.803,1.534 -1.278,2.3 -0.022,0.035 -0.329,0.519 -0.352,0.554 -0.491,0.753 -1.016,1.477 -1.53,2.124 -0.243,0.306 -0.572,0.702 -0.831,0.994 -0.042,0.047 -0.083,0.094 -0.125,0.141 -0.165,0.189 -0.332,0.375 -0.503,0.559 -0.018,0.019 -0.037,0.039 -0.055,0.059 -0.004,0.004 -0.007,0.007 -0.01,0.011 -0.026,0.028 -0.052,0.055 -0.078,0.083 -0.198,0.209 -0.4,0.413 -0.604,0.615 -0.067,0.067 -0.133,0.136 -0.2,0.202 -0.264,0.257 -0.533,0.509 -0.806,0.756 -0.078,0.07 -0.159,0.137 -0.237,0.207 -0.171,0.153 -0.349,0.298 -0.522,0.449 -0.027,0.024 -0.054,0.047 -0.081,0.07 -0.105,0.087 -0.212,0.172 -0.319,0.258 -0.183,0.147 -0.366,0.294 -0.552,0.436 -0.117,0.09 -0.236,0.178 -0.355,0.267 -0.182,0.135 -0.365,0.268 -0.55,0.399 -0.091,0.064 -0.183,0.128 -0.275,0.191 -0.031,0.021 -0.061,0.043 -0.092,0.064 -0.191,0.13 -0.385,0.258 -0.58,0.384 -0.03,0.019 -0.059,0.038 -0.089,0.057 -0.089,0.058 -0.178,0.116 -0.268,0.172 -0.165,0.103 -0.332,0.202 -0.5,0.301 -0.056,0.033 -0.111,0.068 -0.167,0.1 -0.024,0.014 -0.049,0.029 -0.073,0.043 -0.073,0.044 -0.145,0.088 -0.219,0.13 -0.322,0.184 -0.648,0.362 -0.978,0.533 -0.045,0.023 -0.09,0.045 -0.136,0.067 -0.015,0.007 -0.03,0.015 -0.045,0.023 -0.055,0.028 -0.11,0.054 -0.165,0.081 -0.219,0.11 -0.438,0.22 -0.66,0.325 -0.12,0.056 -0.241,0.109 -0.361,0.163 -0.222,0.1 -0.445,0.199 -0.67,0.294 -0.136,0.057 -0.273,0.112 -0.41,0.167 -0.215,0.087 -0.431,0.171 -0.648,0.252 -0.141,0.053 -0.283,0.105 -0.425,0.155 -0.221,0.079 -0.444,0.154 -0.668,0.227 -0.111,0.036 -0.222,0.072 -0.333,0.108 -0.028,0.009 -0.055,0.018 -0.083,0.027 -0.062,0.019 -0.126,0.036 -0.188,0.055 -0.183,0.055 -0.366,0.109 -0.55,0.16 -0.09,0.025 -0.179,0.051 -0.27,0.076 -0.03,0.008 -0.06,0.017 -0.09,0.025 -0.368,0.098 -0.739,0.189 -1.113,0.272 -0.055,0.012 -0.111,0.023 -0.166,0.035 -0.166,0.036 -0.331,0.071 -0.498,0.104 -0.444,0.087 -0.892,0.163 -1.344,0.229 -0.903,0.132 -1.82,0.22 -2.749,0.263 -0.111,0.006 -0.221,0.008 -0.331,0.011 -0.059,0.002 -0.119,0.004 -0.179,0.006 -0.162,0.005 -0.323,0.008 -0.484,0.01 -0.045,0 -0.09,0 -0.134,10e-4 -0.011,0 -0.022,0 -0.033,0 -0.056,0 -0.112,10e-4 -0.168,10e-4 -0.056,0 -0.112,-10e-4 -0.168,-10e-4 -0.011,0 -0.022,0 -0.034,0 -0.045,0 -0.089,0 -0.134,-10e-4 -0.161,-0.002 -0.322,-0.005 -0.484,-0.01 -0.06,-0.002 -0.119,-0.004 -0.179,-0.006 -0.11,-0.004 -0.221,-0.006 -0.331,-0.011 -0.929,-0.043 -1.846,-0.132 -2.749,-0.263 -0.452,-0.066 -0.9,-0.142 -1.344,-0.229 -0.167,-0.033 -0.332,-0.068 -0.498,-0.104 -0.055,-0.012 -0.111,-0.022 -0.166,-0.035 -0.374,-0.083 -0.745,-0.175 -1.113,-0.272 -0.03,-0.008 -0.06,-0.017 -0.09,-0.025 -0.09,-0.025 -0.18,-0.051 -0.27,-0.076 -0.182,-0.051 -0.363,-0.104 -0.544,-0.158 -0.064,-0.02 -0.13,-0.037 -0.194,-0.057 -0.028,-0.009 -0.055,-0.018 -0.083,-0.027 -0.111,-0.035 -0.222,-0.071 -0.333,-0.108 -0.224,-0.073 -0.446,-0.148 -0.668,-0.227 -0.142,-0.05 -0.284,-0.102 -0.425,-0.155 -0.217,-0.081 -0.434,-0.165 -0.648,-0.252 -0.137,-0.055 -0.274,-0.11 -0.41,-0.167 -0.225,-0.095 -0.448,-0.194 -0.67,-0.294 -0.12,-0.054 -0.242,-0.107 -0.361,-0.163 -0.222,-0.104 -0.441,-0.214 -0.66,-0.325 -0.055,-0.027 -0.11,-0.053 -0.165,-0.081 -0.015,-0.008 -0.03,-0.015 -0.045,-0.023 -0.045,-0.022 -0.091,-0.044 -0.136,-0.067 -0.33,-0.171 -0.656,-0.349 -0.978,-0.533 -0.073,-0.042 -0.146,-0.086 -0.219,-0.13 -0.024,-0.014 -0.049,-0.029 -0.073,-0.043 -0.056,-0.033 -0.111,-0.067 -0.166,-0.1 -0.168,-0.099 -0.335,-0.198 -0.5,-0.301 -0.09,-0.056 -0.179,-0.114 -0.268,-0.172 -0.03,-0.019 -0.06,-0.038 -0.089,-0.057 -5.601,-3.621 -9.732,-9.101 -11.644,-15.443 -1.71,-5.669 -1.04,-9.707 -1.19,-14.371 l -5.95,1.481 c -18.664,5.094 -25.11,5.119 -33.442,10.11 l -0.246,0.061 c -6.976,4.261 -12.182,10.943 -13.949,19.485 -1.046,5.055 -0.838,6.043 -6.208,53.165 z"
         id="path2055" /><g
         id="g2063"><path
           inkscape:connector-curvature="0"
           style="fill:#eaa224"
           d="m 187.435,481.72 c 2.148,-19.372 0.639,-35.626 16.937,-46.089 l 0.246,-0.064 c 1.807,-1.138 3.752,-2.114 5.787,-2.963 0.373,-0.294 0.735,-0.563 1.083,-0.806 -8.245,2.355 -15.09,2.804 -22.909,7.488 l -0.246,0.061 c -7.12,4.348 -12.241,11.055 -13.988,19.696 -1.032,5.081 -0.797,5.785 -6.173,52.955 h 16.04 z"
           id="path2057" /><path
           inkscape:connector-curvature="0"
           style="fill:#eaa224"
           d="m 213.239,511.999 0.718,-22.36 c 0.137,-4.266 -3.209,-7.834 -7.475,-7.971 -4.266,-0.167 -7.834,3.208 -7.971,7.474 l -0.734,22.857 z"
           id="path2059" /><path
           inkscape:connector-curvature="0"
           style="fill:#eaa224"
           d="m 314.217,511.999 -0.734,-22.857 c -0.137,-4.264 -3.672,-7.628 -7.971,-7.474 -4.265,0.137 -7.612,3.705 -7.475,7.971 l 0.718,22.36 z"
           id="path2061" /></g><path
         inkscape:connector-curvature="0"
         style="fill:#e2bf91"
         d="m 249.593,442.624 c 0.129,-0.191 6.042,-1.941 6.316,-9.43 v -26.568 c -7.533,-0.039 -14.509,-1.606 -20.658,-4.328 -0.524,15.767 1.376,22.572 -1.912,24.062 l -5.368,1.336 c 0.15,4.656 -0.52,8.691 1.19,14.371 0.729,2.416 1.879,4.873 3.014,6.663 z"
         id="path2065" /><path
         inkscape:connector-curvature="0"
         style="fill:#fce3bb"
         d="m 252.427,306.842 c -11.629,19.344 -36.315,16.368 -45.08,14.597 -1.64,-0.331 -3.168,0.929 -3.168,2.602 v 0 c 0,31.476 -0.961,38.397 2.201,48.852 6.415,21.272 26.054,36.566 48.998,36.821 28.597,0.357 52.439,-22.665 52.439,-51.81 0,-13.176 0,-22.454 0,-33.862 v 0 c 0,-1.673 -1.529,-2.933 -3.168,-2.602 -8.765,1.771 -33.451,4.746 -45.08,-14.597 -1.622,-2.697 -5.521,-2.697 -7.142,-0.001 z"
         id="path2067" /><path
         inkscape:connector-curvature="0"
         style="fill:#efd0a3"
         d="m 230.699,366.819 c -1.352,-7.8 -0.484,-10.812 -0.764,-44.969 -9.119,1.756 -18.018,0.512 -22.588,-0.411 -1.64,-0.331 -3.168,0.929 -3.168,2.602 0,31.954 -0.942,38.458 2.201,48.852 7.803,25.876 34.938,42.295 62.496,35.206 -19.575,-5.032 -34.669,-21.098 -38.177,-41.28 z"
         id="path2069" /><g
         id="g2071" /><g
         id="g2073" /><g
         id="g2075" /><g
         id="g2077" /><g
         id="g2079" /><g
         id="g2081" /><g
         id="g2083" /><g
         id="g2085" /><g
         id="g2087" /><g
         id="g2089" /><g
         id="g2091" /><g
         id="g2093" /><g
         id="g2095" /><g
         id="g2097" /><g
         id="g2099" /></g><rect
       ry="1.2039653"
       rx="1.2149757"
       y="0.3737509"
       x="0.4689894"
       height="31.252499"
       width="51.062019"
       id="rect1118"
       style="opacity:1;fill:none;fill-opacity:1;stroke:#cccccc;stroke-width:0.74750185;stroke-linecap:square;stroke-linejoin:miter;stroke-miterlimit:4;stroke-dasharray:none;stroke-dashoffset:0;stroke-opacity:1" /></g></svg>