<?xml version="1.0" encoding="UTF-8" standalone="no"?>
<!-- Generator: Adobe Illustrator 16.0.0, SVG Export Plug-In . SVG Version: 6.00 Build 0)  -->

<svg
   xmlns:dc="http://purl.org/dc/elements/1.1/"
   xmlns:cc="http://creativecommons.org/ns#"
   xmlns:rdf="http://www.w3.org/1999/02/22-rdf-syntax-ns#"
   xmlns:svg="http://www.w3.org/2000/svg"
   xmlns="http://www.w3.org/2000/svg"
   xmlns:sodipodi="http://sodipodi.sourceforge.net/DTD/sodipodi-0.dtd"
   xmlns:inkscape="http://www.inkscape.org/namespaces/inkscape"
   version="1.1"
   id="Capa_1"
   x="0px"
   y="0px"
   width="22"
   height="22"
   viewBox="0 0 22 22"
   xml:space="preserve"
   sodipodi:docname="immigrazione_icon_22.svg"
   inkscape:version="0.92.2 5c3e80d, 2017-08-06"><metadata
     id="metadata57"><rdf:RDF><cc:Work
         rdf:about=""><dc:format>image/svg+xml</dc:format><dc:type
           rdf:resource="http://purl.org/dc/dcmitype/StillImage" /><dc:title></dc:title></cc:Work></rdf:RDF></metadata><defs
     id="defs55" /><sodipodi:namedview
     pagecolor="#ffffff"
     bordercolor="#666666"
     borderopacity="1"
     objecttolerance="10"
     gridtolerance="10"
     guidetolerance="10"
     inkscape:pageopacity="0"
     inkscape:pageshadow="2"
     inkscape:window-width="1908"
     inkscape:window-height="1018"
     id="namedview53"
     showgrid="false"
     inkscape:showpageshadow="false"
     inkscape:zoom="27.030764"
     inkscape:cx="9.7593294"
     inkscape:cy="13.779319"
     inkscape:window-x="0"
     inkscape:window-y="0"
     inkscape:window-maximized="0"
     inkscape:current-layer="Capa_1" /><g
     id="g22"
     transform="translate(0,-467.76599)" /><g
     id="g24"
     transform="translate(0,-467.76599)" /><g
     id="g26"
     transform="translate(0,-467.76599)" /><g
     id="g28"
     transform="translate(0,-467.76599)" /><g
     id="g30"
     transform="translate(0,-467.76599)" /><g
     id="g32"
     transform="translate(0,-467.76599)" /><g
     id="g34"
     transform="translate(0,-467.76599)" /><g
     id="g36"
     transform="translate(0,-467.76599)" /><g
     id="g38"
     transform="translate(0,-467.76599)" /><g
     id="g40"
     transform="translate(0,-467.76599)" /><g
     id="g42"
     transform="translate(0,-467.76599)" /><g
     id="g44"
     transform="translate(0,-467.76599)" /><g
     id="g46"
     transform="translate(0,-467.76599)" /><g
     id="g48"
     transform="translate(0,-467.76599)" /><g
     id="g50"
     transform="translate(0,-467.76599)" /><g
     id="g2661"
     transform="matrix(0.04101563,0,0,0.04101562,0.49999872,0.50000128)"><path
       id="path2531"
       d="m 288.411,374.129 49.481,-46.475 -19.645,-3.649 C 308.765,322.099 301.944,311.1 301.944,301.429 V 258.33 H 256 v 0 h -45.943 v 43.099 c 0,9.672 -6.822,20.671 -16.303,22.576 l -19.645,3.649 49.481,46.475 c 18.218,17.113 46.602,17.113 64.821,0 z"
       style="fill:#ffe7cf"
       inkscape:connector-curvature="0" /><path
       id="path2533"
       d="m 259.778,258.33 v 61.221 c 0,9.671 6.822,20.671 16.303,22.576 l 38.75,7.187 23.061,-21.66 -19.645,-3.649 C 308.765,322.099 301.944,311.1 301.944,301.429 V 258.33 Z"
       style="fill:#f4d3a6"
       inkscape:connector-curvature="0" /><path
       id="path2535"
       d="M 249.789,473.08 Z"
       style="fill:#ededed"
       inkscape:connector-curvature="0" /><path
       id="path2537"
       d="m 392.114,331.708 -69.846,-12.974 c -2.563,-0.476 -5.209,0.141 -7.297,1.702 L 256,364.512 197.029,320.435 c -2.088,-1.561 -4.734,-2.178 -7.297,-1.702 l -69.846,12.974 c -35.135,10.345 -59.259,42.596 -59.259,79.222 v 83.719 c 0,9.583 7.768,17.351 17.351,17.351 h 356.043 c 9.583,0 17.351,-7.768 17.351,-17.351 V 410.93 c 10e-4,-36.626 -24.123,-68.877 -59.258,-79.222 z"
       style="fill:#2d5872"
       inkscape:connector-curvature="0" /><g
       id="g2545"><path
         id="path2539"
         d="m 392.114,331.708 -69.846,-12.974 c -2.563,-0.476 -5.209,0.141 -7.297,1.702 l -30.969,23.148 66.469,12.347 c 35.135,10.345 59.258,20.049 59.258,56.676 V 512 h 24.293 c 9.583,0 17.351,-7.768 17.351,-17.351 V 410.93 c 0,-36.626 -24.124,-68.877 -59.259,-79.222 z"
         style="fill:#1d4559"
         inkscape:connector-curvature="0" /><path
         id="path2541"
         d="m 169.691,322.456 38.226,53.49 c 2.88,4.03 8.172,5.519 12.731,3.583 L 256,364.512 197.029,320.435 c -2.088,-1.561 -4.734,-2.178 -7.297,-1.702 z"
         style="fill:#1d4559"
         inkscape:connector-curvature="0" /><path
         id="path2543"
         d="m 342.309,322.456 -38.226,53.49 c -2.88,4.03 -8.172,5.519 -12.731,3.583 L 256,364.512 314.971,320.435 c 2.088,-1.561 4.734,-2.178 7.297,-1.702 z"
         style="fill:#1d4559"
         inkscape:connector-curvature="0" /></g><path
       id="path2547"
       d="m 256,0 c -74.11,0 -134.188,51.27 -134.188,80.241 0,28.971 60.078,49.674 134.188,49.674 74.11,0 134.188,-20.703 134.188,-49.674 C 390.188,51.27 330.11,0 256,0 Z"
       style="fill:#2d5872"
       inkscape:connector-curvature="0" /><path
       id="path2549"
       d="m 256,0 c -7.201,0 -14.268,0.49 -21.162,1.39 64.054,8.368 113.026,52.695 113.026,78.851 0,26.156 -48.972,45.57 -113.026,49.096 6.894,0.379 13.961,0.577 21.162,0.577 74.11,0 134.188,-20.703 134.188,-49.674 C 390.188,51.269 330.11,0 256,0 Z"
       style="fill:#1d4559"
       inkscape:connector-curvature="0" /><path
       id="path2551"
       d="m 351.949,161.121 h -6.124 v -7.192 -17.19 c 0,-24.272 -9.965,-47.792 -28.358,-63.629 -14.42,-12.417 -108.514,-12.417 -122.935,0 -18.393,15.837 -28.358,39.357 -28.358,63.629 v 17.19 7.192 h -6.124 c -8.979,0 -16.257,7.279 -16.257,16.257 v 18.016 c 0,8.979 7.279,16.257 16.257,16.257 h 6.149 c 0.507,23.594 10.421,46.304 28.333,61.727 14.421,12.417 34.691,23.255 61.467,23.553 26.777,-0.299 47.047,-11.137 61.467,-23.553 17.912,-15.423 27.827,-38.133 28.333,-61.727 h 6.149 c 8.979,0 16.257,-7.279 16.257,-16.257 v -18.016 c 0.002,-8.978 -7.277,-16.257 -16.256,-16.257 z"
       style="fill:#ffe7cf"
       inkscape:connector-curvature="0" /><path
       id="path2553"
       d="m 351.949,161.121 h -6.124 v -7.192 -17.191 c 0,-24.272 -9.965,-47.792 -28.358,-63.629 -9.078,-7.817 -49.732,-10.711 -82.207,-8.685 19.108,1.192 35.386,4.086 40.728,8.685 18.393,15.837 28.358,39.357 28.358,63.629 v 17.191 l -0.024,57.721 c -0.507,23.594 -10.421,46.304 -28.333,61.727 -10.431,8.982 -23.926,17.135 -40.728,21.073 6.425,1.506 13.332,2.398 20.739,2.481 26.777,-0.299 47.047,-11.137 61.467,-23.554 17.912,-15.423 27.827,-38.133 28.333,-61.727 h 6.149 c 8.979,0 16.257,-7.279 16.257,-16.257 v -18.016 c 10e-4,-8.977 -7.278,-16.256 -16.257,-16.256 z"
       style="fill:#f4d3a6"
       inkscape:connector-curvature="0" /><path
       id="path2555"
       d="m 152.554,106.979 v 55.973 c 0,0 13.74,-0.311 22.569,8.427 1.839,1.82 4.964,0.49 4.964,-2.097 v -41.451 h 151.826 v 41.451 c 0,2.587 3.125,3.917 4.964,2.097 8.829,-8.738 22.569,-8.427 22.569,-8.427 v -55.973 c 0,-34.668 -206.892,-34.668 -206.892,0 z"
       style="fill:#ff6d3a"
       inkscape:connector-curvature="0" /><path
       id="path2557"
       d="m 256,152.579 c -57.132,0 -103.446,-17.733 -103.446,-39.608 h 206.892 c 0,21.875 -46.314,39.608 -103.446,39.608 z"
       style="fill:#2d5872"
       inkscape:connector-curvature="0" /><path
       id="path2559"
       d="m 152.554,85.475 v 27.497 H 359.446 V 85.763 c 0,-7.38 -5,-13.815 -12.151,-15.642 -19.144,-4.892 -58.078,-13.453 -96.137,-13.469 -35.075,-0.014 -69.409,8.386 -86.825,13.28 -6.968,1.959 -11.779,8.306 -11.779,15.543 z"
       style="fill:#1d4559"
       inkscape:connector-curvature="0" /><g
       id="g2565"><polygon
         id="polygon2561"
         points="244.452,395.214 267.548,395.214 283.801,376.321 256,364.512 228.199,376.321 "
         style="fill:#282c3a" /><polygon
         id="polygon2563"
         points="244.452,395.214 228.199,512 283.801,512 267.548,395.214 256,395.214 "
         style="fill:#282c3a" /></g><g
       id="g2571"><path
         id="path2567"
         d="m 361.499,473.08 h -40.702 c -2.704,0 -4.897,-2.192 -4.897,-4.897 v -21.684 c 0,-2.704 2.192,-4.897 4.897,-4.897 h 40.702 c 2.704,0 4.897,2.192 4.897,4.897 v 21.684 c 0,2.704 -2.192,4.897 -4.897,4.897 z"
         style="fill:#1d4559"
         inkscape:connector-curvature="0" /><path
         id="path2569"
         d="m 191.203,473.08 h -40.702 c -2.704,0 -4.897,-2.192 -4.897,-4.897 v -21.684 c 0,-2.704 2.192,-4.897 4.897,-4.897 h 40.702 c 2.704,0 4.897,2.192 4.897,4.897 v 21.684 c 0,2.704 -2.193,4.897 -4.897,4.897 z"
         style="fill:#1d4559"
         inkscape:connector-curvature="0" /></g><path
       id="path2573"
       d="m 76.334,382.883 c 7.632,6.154 18.808,4.955 24.962,-2.677 l 8.411,-10.432 c 6.154,-7.633 4.955,-18.808 -2.677,-24.962 L 101,339.95 c -14.435,8.583 -25.82,21.339 -32.772,36.397 z"
       style="fill:#ffbf14"
       inkscape:connector-curvature="0" /><path
       id="path2575"
       d="M 443.772,376.347 C 436.821,361.289 425.436,348.533 411,339.95 l -6.031,4.862 c -7.632,6.154 -8.831,17.33 -2.677,24.962 l 8.411,10.432 c 6.154,7.632 17.33,8.831 24.962,2.677 z"
       style="fill:#eaa200"
       inkscape:connector-curvature="0" /><g
       id="g2581"><path
         id="path2577"
         d="m 395.379,433.872 c -4.269,0 -7.729,3.46 -7.729,7.729 V 512 h 15.458 v -70.399 c -10e-4,-4.269 -3.461,-7.729 -7.729,-7.729 z"
         style="fill:#183d4c"
         inkscape:connector-curvature="0" /><path
         id="path2579"
         d="m 116.621,433.872 c -4.269,0 -7.729,3.46 -7.729,7.729 V 512 h 15.458 v -70.399 c 0,-4.269 -3.46,-7.729 -7.729,-7.729 z"
         style="fill:#183d4c"
         inkscape:connector-curvature="0" /></g><g
       id="g2583" /><g
       id="g2585" /><g
       id="g2587" /><g
       id="g2589" /><g
       id="g2591" /><g
       id="g2593" /><g
       id="g2595" /><g
       id="g2597" /><g
       id="g2599" /><g
       id="g2601" /><g
       id="g2603" /><g
       id="g2605" /><g
       id="g2607" /><g
       id="g2609" /><g
       id="g2611" /></g><g
     id="g2779"
     transform="matrix(1.0677902,0,0,1.0677902,23.493262,16.550933)"><path
       id="rect2762"
       d="m -10.520435,-2.2686446 h 7.3157671 c 0.4432,0 0.8,0.3568 0.8,0.8 v 5.133069 c 0,0.4432 -0.3568,0.8 -0.8,0.8 h -7.3157671 c -0.4432,0 -0.8,-0.3568 -0.8,-0.8 v -5.133069 c 0,-0.4432 0.3568,-0.8 0.8,-0.8 z"
       style="opacity:1;fill:#f9f9f9;fill-opacity:1;stroke:none;stroke-width:0.40000001;stroke-linecap:square;stroke-linejoin:miter;stroke-miterlimit:4;stroke-dasharray:none;stroke-dashoffset:0;stroke-opacity:1"
       inkscape:connector-curvature="0" /><path
       inkscape:connector-curvature="0"
       id="rect2663"
       d="m -10.48253,-2.5423566 c -0.55054,0 -1,0.4494594 -1,1 v 5.2441408 c 0,0.55054 0.44946,1 1,1 h 7.2773441 c 0.5505406,0 1,-0.44946 1,-1 v -5.2441408 c 0,-0.5505406 -0.4494594,-1 -1,-1 z m 0,0.4003907 h 7.2773441 c 0.3358595,0 0.5996094,0.2637498 0.5996094,0.5996093 v 5.2441408 c 0,0.335859 -0.2637499,0.599609 -0.5996094,0.599609 H -10.48253 c -0.335859,0 -0.601562,-0.26375 -0.601562,-0.599609 v -5.2441408 c 0,-0.3358595 0.265703,-0.5996093 0.601562,-0.5996093 z"
       style="color:#000000;font-style:normal;font-variant:normal;font-weight:normal;font-stretch:normal;font-size:medium;line-height:normal;font-family:sans-serif;font-variant-ligatures:normal;font-variant-position:normal;font-variant-caps:normal;font-variant-numeric:normal;font-variant-alternates:normal;font-feature-settings:normal;text-indent:0;text-align:start;text-decoration:none;text-decoration-line:none;text-decoration-style:solid;text-decoration-color:#000000;letter-spacing:normal;word-spacing:normal;text-transform:none;writing-mode:lr-tb;direction:ltr;text-orientation:mixed;dominant-baseline:auto;baseline-shift:baseline;text-anchor:start;white-space:normal;shape-padding:0;clip-rule:nonzero;display:inline;overflow:visible;visibility:visible;opacity:1;isolation:auto;mix-blend-mode:normal;color-interpolation:sRGB;color-interpolation-filters:linearRGB;solid-color:#000000;solid-opacity:1;vector-effect:none;fill:#999999;fill-opacity:1;fill-rule:nonzero;stroke:none;stroke-width:0.40000001;stroke-linecap:square;stroke-linejoin:miter;stroke-miterlimit:4;stroke-dasharray:none;stroke-dashoffset:0;stroke-opacity:1;color-rendering:auto;image-rendering:auto;shape-rendering:auto;text-rendering:auto;enable-background:accumulate" /><path
       id="rect2665"
       d="m -10.172732,-1.6071859 h 3.0776759 c 0.1873978,0 0.3382631,0.1508654 0.3382631,0.3382632 v 2.2173376 c 0,0.1873978 -0.1508653,0.3382631 -0.3382631,0.3382631 h -3.0776759 c -0.187397,0 -0.338263,-0.1508653 -0.338263,-0.3382631 v -2.2173376 c 0,-0.1873978 0.150866,-0.3382632 0.338263,-0.3382632 z"
       style="opacity:1;fill:#999999;fill-opacity:1;stroke:none;stroke-width:0.16913156;stroke-linecap:square;stroke-linejoin:miter;stroke-miterlimit:4;stroke-dasharray:none;stroke-dashoffset:0;stroke-opacity:1"
       inkscape:connector-curvature="0" /><g
       transform="translate(0.66590793,-7.1400128)"
       id="text2677"
       style="font-style:normal;font-variant:normal;font-weight:normal;font-stretch:normal;font-size:1.79809737px;line-height:1.25;font-family:'DIN Condensed';-inkscape-font-specification:'DIN Condensed, ';letter-spacing:0px;word-spacing:0px;fill:#999999;fill-opacity:1;stroke:none;stroke-width:0.22476217"
       aria-label="PASSAPORTO"><path
         id="path2682"
         style="fill:#999999;fill-opacity:1;stroke-width:0.22476217"
         d="M -11.007877,10.48101 V 9.2007651 h 0.275109 q 0.07552,0 0.133059,0.019779 0.05754,0.019779 0.10429,0.070126 0.04675,0.050347 0.06473,0.1186744 0.01798,0.06653 0.01798,0.1816078 0,0.086309 -0.01079,0.1456459 -0.009,0.059337 -0.04136,0.1114821 -0.03776,0.062933 -0.100693,0.098895 -0.06293,0.034164 -0.165425,0.034164 h -0.0935 V 10.48101 Z m 0.183406,-1.1076275 V 9.808522 h 0.08811 q 0.05574,0 0.08631,-0.016183 0.03057,-0.016183 0.04495,-0.044952 0.01438,-0.026972 0.01618,-0.06653 0.0036,-0.039558 0.0036,-0.088107 0,-0.044952 -0.0018,-0.084511 -0.0018,-0.041356 -0.01618,-0.071924 -0.01438,-0.030568 -0.04315,-0.046751 -0.02877,-0.016183 -0.08271,-0.016183 z"
         inkscape:connector-curvature="0" /><path
         id="path2684"
         style="fill:#999999;fill-opacity:1;stroke-width:0.22476217"
         d="m -9.9737183,10.033284 -0.089905,-0.4639089 h -0.0036 l -0.0899,0.4639089 z m -0.4531207,0.447726 0.285898,-1.2802449 h 0.1528379 l 0.2858975,1.2802449 h -0.183406 l -0.053943,-0.275108 H -10.18949 l -0.05394,0.275108 z"
         inkscape:connector-curvature="0" /><path
         id="path2686"
         style="fill:#999999;fill-opacity:1;stroke-width:0.22476217"
         d="m -9.0202773,9.5693751 h -0.1834059 v -0.041356 q 0,-0.062933 -0.030568,-0.1078858 -0.02877,-0.04675 -0.098895,-0.04675 -0.03776,0 -0.061135,0.014385 -0.023375,0.014385 -0.03776,0.035962 -0.014385,0.023375 -0.019779,0.053943 -0.00539,0.02877 -0.00539,0.061135 0,0.03776 0.0018,0.062933 0.0036,0.025173 0.014385,0.044953 0.010789,0.019779 0.030568,0.034164 0.021577,0.014385 0.057539,0.02877 l 0.1402516,0.055741 q 0.061135,0.023375 0.098895,0.055741 0.03776,0.030568 0.059337,0.071924 0.019779,0.043154 0.026971,0.098895 0.00719,0.053943 0.00719,0.1240687 0,0.08091 -0.016183,0.15104 -0.016183,0.06833 -0.052145,0.116876 -0.03776,0.05035 -0.098895,0.07912 -0.061135,0.02877 -0.1492421,0.02877 -0.06653,0 -0.1240687,-0.02337 -0.057539,-0.02338 -0.098895,-0.06473 -0.041356,-0.04136 -0.06653,-0.0953 -0.023375,-0.05574 -0.023375,-0.120472 v -0.06833 h 0.183406 v 0.05754 q 0,0.05035 0.028769,0.0917 0.030568,0.03956 0.1006935,0.03956 0.04675,0 0.071924,-0.01259 0.026971,-0.01438 0.041356,-0.03956 0.014385,-0.02517 0.016183,-0.05934 0.0036,-0.03596 0.0036,-0.07912 0,-0.05035 -0.0036,-0.08271 -0.0036,-0.03236 -0.014385,-0.052144 -0.012587,-0.019779 -0.034164,-0.032366 -0.019779,-0.012587 -0.053943,-0.026971 L -9.441029,9.8696583 q -0.1186744,-0.048549 -0.1600306,-0.1276649 -0.039558,-0.080914 -0.039558,-0.2013869 0,-0.071924 0.019779,-0.1366554 0.019779,-0.064731 0.059337,-0.111482 0.03776,-0.046751 0.095299,-0.073722 0.059337,-0.02877 0.1402516,-0.02877 0.068328,0 0.1240687,0.025173 0.057539,0.025173 0.098895,0.06653 0.082712,0.086309 0.082712,0.1977907 z"
         inkscape:connector-curvature="0" /><path
         id="path2688"
         style="fill:#999999;fill-opacity:1;stroke-width:0.22476217"
         d="m -8.2898002,9.5693751 h -0.1834059 v -0.041356 q 0,-0.062933 -0.030568,-0.1078858 -0.02877,-0.04675 -0.098895,-0.04675 -0.03776,0 -0.061135,0.014385 -0.023375,0.014385 -0.03776,0.035962 -0.014385,0.023375 -0.019779,0.053943 -0.00539,0.02877 -0.00539,0.061135 0,0.03776 0.0018,0.062933 0.0036,0.025173 0.014385,0.044953 0.010789,0.019779 0.030568,0.034164 0.021577,0.014385 0.057539,0.02877 l 0.1402516,0.055741 q 0.061135,0.023375 0.098895,0.055741 0.03776,0.030568 0.059337,0.071924 0.019779,0.043154 0.026971,0.098895 0.00719,0.053943 0.00719,0.1240687 0,0.08091 -0.016183,0.15104 -0.016183,0.06833 -0.052145,0.116876 -0.03776,0.05035 -0.098895,0.07912 -0.061135,0.02877 -0.1492421,0.02877 -0.06653,0 -0.1240687,-0.02337 -0.057539,-0.02338 -0.098895,-0.06473 -0.041356,-0.04136 -0.06653,-0.0953 -0.023375,-0.05574 -0.023375,-0.120472 v -0.06833 h 0.183406 v 0.05754 q 0,0.05035 0.028769,0.0917 0.030568,0.03956 0.1006935,0.03956 0.04675,0 0.071924,-0.01259 0.026971,-0.01438 0.041356,-0.03956 0.014385,-0.02517 0.016183,-0.05934 0.0036,-0.03596 0.0036,-0.07912 0,-0.05035 -0.0036,-0.08271 -0.0036,-0.03236 -0.014385,-0.052144 -0.012587,-0.019779 -0.034164,-0.032366 -0.019779,-0.012587 -0.053943,-0.026971 L -8.710555,9.8696573 q -0.1186744,-0.048549 -0.1600306,-0.1276649 -0.039558,-0.080914 -0.039558,-0.2013869 0,-0.071924 0.019779,-0.1366554 0.019779,-0.064731 0.059337,-0.111482 0.03776,-0.046751 0.095299,-0.073722 0.059337,-0.02877 0.1402516,-0.02877 0.068328,0 0.1240687,0.025173 0.057539,0.025173 0.098895,0.06653 0.082712,0.086309 0.082712,0.1977907 z"
         inkscape:connector-curvature="0" /><path
         id="path2690"
         style="fill:#999999;fill-opacity:1;stroke-width:0.22476217"
         d="M -7.7822872,10.033284 -7.872192,9.5693751 h -0.0036 l -0.089905,0.4639089 z m -0.4531205,0.447726 0.2858975,-1.2802449 h 0.1528383 l 0.2858974,1.2802449 h -0.1834059 l -0.053943,-0.275108 h -0.2499355 l -0.053943,0.275108 z"
         inkscape:connector-curvature="0" /><path
         id="path2692"
         style="fill:#999999;fill-opacity:1;stroke-width:0.22476217"
         d="M -7.4222181,10.48101 V 9.2007651 h 0.2751089 q 0.07552,0 0.1330592,0.019779 0.057539,0.019779 0.1042896,0.070126 0.046751,0.050347 0.064731,0.1186744 0.017981,0.06653 0.017981,0.1816078 0,0.086309 -0.010789,0.1456459 -0.00899,0.059337 -0.041356,0.1114821 -0.03776,0.062933 -0.1006935,0.098895 -0.062933,0.034164 -0.1654249,0.034164 h -0.093501 V 10.48101 Z M -7.2388122,9.3733825 V 9.808522 h 0.088107 q 0.055741,0 0.086309,-0.016183 0.030568,-0.016183 0.044952,-0.044952 0.014385,-0.026972 0.016183,-0.06653 0.0036,-0.039558 0.0036,-0.088107 0,-0.044952 -0.0018,-0.084511 -0.0018,-0.041356 -0.016183,-0.071924 -0.014385,-0.030568 -0.043154,-0.046751 -0.02877,-0.016183 -0.082712,-0.016183 z"
         inkscape:connector-curvature="0" /><path
         id="path2694"
         style="fill:#999999;fill-opacity:1;stroke-width:0.22476217"
         d="m -6.7025299,9.5028455 q 0,-0.077318 0.026972,-0.1366554 0.026972,-0.059337 0.071924,-0.098895 0.043154,-0.03776 0.097097,-0.057539 0.055741,-0.019779 0.111482,-0.019779 0.055741,0 0.1096839,0.019779 0.055741,0.019779 0.1006935,0.057539 0.043154,0.039558 0.070126,0.098895 0.026971,0.059337 0.026971,0.1366554 V 10.17893 q 0,0.08091 -0.026971,0.138454 -0.026972,0.05754 -0.070126,0.0953 -0.044952,0.03956 -0.1006935,0.05934 -0.053943,0.01978 -0.1096839,0.01978 -0.055741,0 -0.111482,-0.01978 -0.053943,-0.01978 -0.097097,-0.05934 -0.044952,-0.03776 -0.071924,-0.0953 -0.026972,-0.05754 -0.026972,-0.138454 z m 0.183406,0.6760845 q 0,0.06653 0.035962,0.0989 0.03776,0.03057 0.088107,0.03057 0.050347,0 0.086309,-0.03057 0.03776,-0.03237 0.03776,-0.0989 V 9.5028455 q 0,-0.06653 -0.03776,-0.097097 -0.035962,-0.032366 -0.086309,-0.032366 -0.050347,0 -0.088107,0.032366 -0.035962,0.030568 -0.035962,0.097097 z"
         inkscape:connector-curvature="0" /><path
         id="path2696"
         style="fill:#999999;fill-opacity:1;stroke-width:0.22476217"
         d="m -5.742739,9.3733825 v 0.3991776 h 0.1042897 q 0.048549,0 0.077318,-0.012587 0.02877,-0.014385 0.044952,-0.039558 0.014385,-0.025173 0.019779,-0.061135 0.00539,-0.03776 0.00539,-0.086309 0,-0.048549 -0.00539,-0.084511 -0.00539,-0.03776 -0.021577,-0.064731 -0.034164,-0.050347 -0.129463,-0.050347 z M -5.9261449,10.48101 V 9.2007651 h 0.294888 q 0.3236575,0 0.3236575,0.3758024 0,0.1132801 -0.035962,0.1923964 -0.034164,0.079116 -0.1222707,0.1276649 L -5.2680412,10.48101 H -5.4622358 L -5.633055,9.9343888 H -5.742739 V 10.48101 Z"
         inkscape:connector-curvature="0" /><path
         id="path2698"
         style="fill:#999999;fill-opacity:1;stroke-width:0.22476217"
         d="M -5.0716836,10.48101 V 9.3733825 H -5.2838591 V 9.2007651 h 0.6077569 V 9.3733825 H -4.8882777 V 10.48101 Z"
         inkscape:connector-curvature="0" /><path
         id="path2700"
         style="fill:#999999;fill-opacity:1;stroke-width:0.22476217"
         d="m -4.6269917,9.5028455 q 0,-0.077318 0.026971,-0.1366554 0.026971,-0.059337 0.071924,-0.098895 0.043154,-0.03776 0.097097,-0.057539 0.055741,-0.019779 0.1114821,-0.019779 0.055741,0 0.1096839,0.019779 0.055741,0.019779 0.1006934,0.057539 0.043154,0.039558 0.070126,0.098895 0.026971,0.059337 0.026971,0.1366554 V 10.17893 q 0,0.08091 -0.026971,0.138454 -0.026971,0.05754 -0.070126,0.0953 -0.044952,0.03956 -0.1006934,0.05934 -0.053943,0.01978 -0.1096839,0.01978 -0.055741,0 -0.1114821,-0.01978 -0.053943,-0.01978 -0.097097,-0.05934 -0.044952,-0.03776 -0.071924,-0.0953 -0.026971,-0.05754 -0.026971,-0.138454 z m 0.1834059,0.6760845 q 0,0.06653 0.035962,0.0989 0.03776,0.03057 0.088107,0.03057 0.050347,0 0.086309,-0.03057 0.03776,-0.03237 0.03776,-0.0989 V 9.5028455 q 0,-0.06653 -0.03776,-0.097097 -0.035962,-0.032366 -0.086309,-0.032366 -0.050347,0 -0.088107,0.032366 -0.035962,0.030568 -0.035962,0.097097 z"
         inkscape:connector-curvature="0" /></g></g></svg>