<?xml version="1.0" encoding="UTF-8" standalone="no"?>
<!-- Created with Inkscape (http://www.inkscape.org/) -->

<svg
   xmlns:dc="http://purl.org/dc/elements/1.1/"
   xmlns:cc="http://creativecommons.org/ns#"
   xmlns:rdf="http://www.w3.org/1999/02/22-rdf-syntax-ns#"
   xmlns:svg="http://www.w3.org/2000/svg"
   xmlns="http://www.w3.org/2000/svg"
   xmlns:sodipodi="http://sodipodi.sourceforge.net/DTD/sodipodi-0.dtd"
   xmlns:inkscape="http://www.inkscape.org/namespaces/inkscape"
   width="122"
   height="26"
   viewBox="0 0 32.279166 6.8791663"
   version="1.1"
   id="svg8"
   inkscape:version="0.92.2 5c3e80d, 2017-08-06"
   sodipodi:docname="inca_icon_64.svg">
  <defs
     id="defs2" />
  <sodipodi:namedview
     id="base"
     pagecolor="#ffffff"
     bordercolor="#666666"
     borderopacity="1.0"
     inkscape:pageopacity="0.0"
     inkscape:pageshadow="2"
     inkscape:zoom="1.6757813"
     inkscape:cx="-13.685697"
     inkscape:cy="50.982939"
     inkscape:document-units="px"
     inkscape:current-layer="g1041"
     showgrid="false"
     inkscape:showpageshadow="false"
     units="px"
     inkscape:window-width="1920"
     inkscape:window-height="1035"
     inkscape:window-x="0"
     inkscape:window-y="1"
     inkscape:window-maximized="1" />
  <metadata
     id="metadata5">
    <rdf:RDF>
      <cc:Work
         rdf:about="">
        <dc:format>image/svg+xml</dc:format>
        <dc:type
           rdf:resource="http://purl.org/dc/dcmitype/StillImage" />
        <dc:title></dc:title>
      </cc:Work>
    </rdf:RDF>
  </metadata>
  <g
     inkscape:label="Livello 1"
     inkscape:groupmode="layer"
     id="layer1"
     transform="translate(0,-290.12084)">
    <g
       id="g1041"
       transform="matrix(0.42012089,0,0,0.42012089,0.17329086,167.76101)">
      <g
         id="g1081"
         transform="translate(-0.68231651,5.668016)">
        <g
           id="g929"
           transform="matrix(1.7776757,0,0,1.7776757,-6.9089847,-218.36873)">
          <path
             id="rect884"
             d="m -69.419312,277.28027 h 6.486456 v 6.48646 h -6.486456 z"
             style="opacity:1;fill:#e3010f;fill-opacity:1;stroke:none;stroke-width:0.08684706;stroke-linecap:square;stroke-linejoin:miter;stroke-miterlimit:4;stroke-dasharray:none;stroke-dashoffset:0;stroke-opacity:1"
             transform="rotate(-15)"
             inkscape:connector-curvature="0" />
          <path
             sodipodi:nodetypes="cccc"
             inkscape:connector-curvature="0"
             id="rect890"
             d="m 4.201603,283.6669 v 1.31911 l 7.043498,-1.31911 z"
             style="opacity:1;fill:#00b4e2;fill-opacity:1;stroke:none;stroke-width:0.0884933;stroke-linecap:square;stroke-linejoin:miter;stroke-miterlimit:4;stroke-dasharray:none;stroke-dashoffset:0;stroke-opacity:1" />
          <path
             style="opacity:1;fill:#8a77b6;fill-opacity:1;stroke:none;stroke-width:0.09091675;stroke-linecap:square;stroke-linejoin:miter;stroke-miterlimit:4;stroke-dasharray:none;stroke-dashoffset:0;stroke-opacity:1"
             d="M 4.1667979,292.55867 H 5.5591463 L 4.1667979,285.51518 Z"
             id="path897"
             inkscape:connector-curvature="0"
             sodipodi:nodetypes="cccc" />
          <path
             sodipodi:nodetypes="cccc"
             inkscape:connector-curvature="0"
             id="path899"
             d="m 13.131803,292.55686 v -1.35573 l -7.04349,1.35573 z"
             style="opacity:1;fill:#80ba25;fill-opacity:1;stroke:none;stroke-width:0.08971321;stroke-linecap:square;stroke-linejoin:miter;stroke-miterlimit:4;stroke-dasharray:none;stroke-dashoffset:0;stroke-opacity:1" />
          <path
             sodipodi:nodetypes="cccc"
             inkscape:connector-curvature="0"
             id="path901"
             d="M 13.111679,283.62847 H 11.77426 l 1.337419,7.04349 z"
             style="opacity:1;fill:#fbb80f;fill-opacity:1;stroke:none;stroke-width:0.08910534;stroke-linecap:square;stroke-linejoin:miter;stroke-miterlimit:4;stroke-dasharray:none;stroke-dashoffset:0;stroke-opacity:1" />
          <g
             id="text907"
             style="font-style:normal;font-variant:normal;font-weight:normal;font-stretch:normal;font-size:1.40905976px;line-height:1.25;font-family:'DIN Condensed';-inkscape-font-specification:'DIN Condensed, ';letter-spacing:0px;word-spacing:0px;fill:#ffffff;fill-opacity:1;stroke:#ffffff;stroke-width:0.17613247"
             aria-label="inca">
            <path
               sodipodi:nodetypes="scscscscsccscsccccscsccc"
               inkscape:connector-curvature="0"
               id="path909"
               style="font-style:normal;font-variant:normal;font-weight:normal;font-stretch:normal;font-size:4.22717953px;font-family:'.Savoye LET CC.';-inkscape-font-specification:'.Savoye LET CC., Normal';font-variant-ligatures:normal;font-variant-caps:normal;font-variant-numeric:normal;font-feature-settings:normal;text-align:start;writing-mode:lr-tb;text-anchor:start;fill:#ffffff;stroke:#ffffff;stroke-width:0.17613247"
               d="m 6.2056749,285.96899 c 0.056363,0 0.1018861,0.0173 0.1365704,0.052 0.034685,0.0347 0.052027,0.0802 0.052027,0.13657 0,0.0542 -0.018426,0.0997 -0.055279,0.13657 -0.036853,0.0369 -0.081292,0.0553 -0.1333187,0.0553 -0.049859,0 -0.094299,-0.0195 -0.1333187,-0.0585 -0.03902,-0.039 -0.05853,-0.0834 -0.05853,-0.13332 0,-0.052 0.018426,-0.0964 0.055279,-0.13332 0.036853,-0.0369 0.082376,-0.0553 0.13657,-0.0553 z m -0.094299,1.27465 -0.2861476,1.0698 c -0.047691,0.17559 -0.071537,0.3165 -0.071537,0.42272 0,0.0694 0.011923,0.12574 0.035768,0.16909 0.023845,0.0433 0.055278,0.065 0.094299,0.065 0.067201,0 0.5744116,-0.51087 0.721821,-0.67129 l 0.052027,0.0455 -0.032517,0.0358 c -0.1235638,0.14524 -0.6145157,0.67454 -0.6730459,0.72657 -0.05853,0.0499 -0.1127246,0.0748 -0.1625838,0.0748 -0.067201,0 -0.1246476,-0.0336 -0.1723389,-0.1008 -0.045523,-0.0694 -0.068285,-0.15499 -0.068285,-0.25688 0,-0.0651 0.013007,-0.16804 0.03902,-0.30891 l 0.2048557,-1.13809 z" />
            <path
               sodipodi:nodetypes="cccccscsccccscsccccscsccscsccccc"
               inkscape:connector-curvature="0"
               id="path911"
               style="font-style:normal;font-variant:normal;font-weight:normal;font-stretch:normal;font-size:4.22717953px;font-family:'.Savoye LET CC.';-inkscape-font-specification:'.Savoye LET CC., Normal';font-variant-ligatures:normal;font-variant-caps:normal;font-variant-numeric:normal;font-feature-settings:normal;text-align:start;writing-mode:lr-tb;text-anchor:start;fill:#ffffff;stroke:#ffffff;stroke-width:0.17613247"
               d="m 6.4512781,289.17839 0.3446777,-1.80143 0.3089093,-0.13332 -0.2796442,1.19337 c 0.1799261,-0.37936 0.3587683,-0.66768 0.5365266,-0.86495 0.1777583,-0.19727 0.3479294,-0.2959 0.5105132,-0.2959 0.080208,0 0.1452416,0.0271 0.1951006,0.0813 0.049859,0.052 0.074789,0.12245 0.074789,0.21136 0,0.0499 -0.011923,0.12032 -0.035768,0.21136 l -0.032517,0.13657 -0.09755,0.3967 -0.032517,0.12682 c -0.032517,0.13007 -0.048775,0.22978 -0.048775,0.29915 0,0.0694 0.011923,0.12574 0.035768,0.16909 0.023845,0.0412 0.055278,0.0618 0.094299,0.0618 0.067201,0 0.420602,-0.39552 0.5680114,-0.55593 l 0.052027,0.0455 -0.032517,0.0358 c -0.1235638,0.14524 -0.4607061,0.55918 -0.5192363,0.61121 -0.05853,0.0499 -0.1127246,0.0748 -0.1625838,0.0748 -0.067201,0 -0.1246476,-0.0336 -0.1723389,-0.1008 -0.045523,-0.0694 -0.068285,-0.15499 -0.068285,-0.25688 0,-0.0694 0.013007,-0.17234 0.03902,-0.30891 l 0.1268153,-0.68936 c 0.017342,-0.10839 0.026013,-0.18426 0.026013,-0.22761 0,-0.0455 -0.011923,-0.0802 -0.035768,-0.10406 -0.023845,-0.0239 -0.056362,-0.0358 -0.09755,-0.0358 -0.1495771,0 -0.3338388,0.16042 -0.552785,0.48125 -0.1062215,0.15391 -0.1940167,0.30674 -0.2633858,0.45849 -0.069369,0.14957 -0.1474094,0.35768 -0.2341207,0.62432 l -0.029265,0.0878 z" />
            <path
               sodipodi:nodetypes="ccscsccscscscscscccscsscc"
               inkscape:connector-curvature="0"
               id="path913"
               style="font-style:normal;font-variant:normal;font-weight:normal;font-stretch:normal;font-size:4.22717953px;font-family:'.Savoye LET CC.';-inkscape-font-specification:'.Savoye LET CC., Normal';font-variant-ligatures:normal;font-variant-caps:normal;font-variant-numeric:normal;font-feature-settings:normal;text-align:start;writing-mode:lr-tb;text-anchor:start;fill:#ffffff;stroke:#ffffff;stroke-width:0.17613247"
               d="m 10.255212,288.40433 c -0.132235,0.18644 -0.5688377,0.57679 -0.6945692,0.6635 -0.1235637,0.0845 -0.261218,0.12682 -0.4129629,0.12682 -0.1669194,0 -0.3034898,-0.0585 -0.4097112,-0.17559 -0.1040537,-0.11706 -0.1560805,-0.26881 -0.1560805,-0.45524 0,-0.1951 0.050943,-0.39345 0.1528288,-0.59505 0.1018859,-0.20161 0.2319529,-0.36853 0.3902012,-0.50076 0.160416,-0.13223 0.3143287,-0.19835 0.461738,-0.19835 0.099718,0 0.1799262,0.0282 0.2406241,0.0845 0.060698,0.0542 0.091047,0.1279 0.091047,0.22111 0,0.0846 -0.032517,0.16584 -0.09755,0.24388 -0.062866,0.0759 -0.1311512,0.11381 -0.2048557,0.11381 -0.032517,0 -0.061782,-0.013 -0.087795,-0.039 0.1409059,-0.0629 0.2113589,-0.17993 0.2113589,-0.35118 0,-0.0607 -0.016258,-0.10727 -0.048775,-0.13982 -0.030349,-0.0347 -0.071537,-0.052 -0.1235637,-0.052 -0.080208,0 -0.1614999,0.0325 -0.2438758,0.0976 -0.080208,0.065 -0.1560804,0.15605 -0.2276173,0.27314 -0.071537,0.11489 -0.1278993,0.23846 -0.1690872,0.37069 -0.03902,0.13007 -0.05853,0.2623 -0.05853,0.39671 0,0.16041 0.037936,0.29048 0.1138087,0.3902 0.075872,0.0997 0.1755905,0.14957 0.2991542,0.14957 0.1062215,0 0.2091912,-0.0336 0.3089093,-0.1008 0.099718,-0.0672 0.5113913,-0.42396 0.6197803,-0.5627 z" />
            <path
               id="path915"
               style="font-style:normal;font-variant:normal;font-weight:normal;font-stretch:normal;font-size:4.22717953px;font-family:'.Savoye LET CC.';-inkscape-font-specification:'.Savoye LET CC., Normal';font-variant-ligatures:normal;font-variant-caps:normal;font-variant-numeric:normal;font-feature-settings:normal;text-align:start;writing-mode:lr-tb;text-anchor:start;fill:#ffffff;stroke:#ffffff;stroke-width:0.17613247"
               d="m 12.009282,287.22413 -0.305657,1.19012 q -0.04878,0.1951 -0.04878,0.30565 0,0.0976 0.04227,0.16909 0.04227,0.0715 0.104054,0.0715 0.0943,0 0.312161,-0.23087 l 0.04552,0.0455 -0.03577,0.0423 q -0.172339,0.19836 -0.266637,0.27965 -0.09105,0.078 -0.159333,0.078 -0.104053,0 -0.182093,-0.10731 -0.07479,-0.11055 -0.07479,-0.25363 0,-0.10405 0.07804,-0.47149 l 0.02601,-0.12356 q -0.120312,0.27964 -0.321916,0.53652 -0.338175,0.42922 -0.647084,0.42922 -0.185346,0 -0.292651,-0.13331 -0.107305,-0.13332 -0.107305,-0.35769 0,-0.30566 0.172339,-0.64058 0.17559,-0.33492 0.432473,-0.54953 0.260134,-0.21786 0.50401,-0.21786 0.256882,0 0.383697,0.18859 l 0.03577,-0.12356 z m -0.373942,0.41622 q -0.03902,-0.12357 -0.133319,-0.19185 -0.09105,-0.0715 -0.211359,-0.0715 -0.143074,0 -0.302406,0.13332 -0.159332,0.13007 -0.292651,0.36419 -0.104054,0.18534 -0.17559,0.40971 -0.06829,0.22437 -0.06829,0.37069 0,0.16584 0.06178,0.26013 0.06503,0.0943 0.182094,0.0943 0.149577,0 0.312161,-0.13982 0.162584,-0.13982 0.321916,-0.39995 0.09755,-0.14958 0.152829,-0.29916 0.05528,-0.14958 0.123564,-0.41621 z"
               inkscape:connector-curvature="0" />
          </g>
        </g>
        <g
           transform="translate(-0.53052929,10.868468)"
           aria-label="Patronato"
           style="font-style:normal;font-variant:normal;font-weight:normal;font-stretch:normal;font-size:6.94220924px;line-height:1.25;font-family:'DIN Condensed';-inkscape-font-specification:'DIN Condensed, ';letter-spacing:0px;word-spacing:0px;fill:#777777;fill-opacity:1;stroke:none;stroke-width:0.86777616"
           id="text981">
          <path
             inkscape:connector-curvature="0"
             d="m 22.752462,280.54286 q 0.819181,0 1.214887,0.33322 0.402648,0.32629 0.402648,0.9372 v 0.16661 q 0,0.65257 -0.388764,1.00662 -0.388764,0.35406 -1.173233,0.35406 -0.3124,0 -0.666452,-0.0555 v 1.88828 H 21.55146 v -4.59574 q 0.590088,-0.0347 1.201002,-0.0347 z m -0.01388,0.49983 q -0.305458,0 -0.59703,0.0139 v 1.72167 q 0.416532,0.0555 0.638683,0.0555 0.999678,0 0.999678,-0.88166 v -0.11801 q 0,-0.39571 -0.24992,-0.59009 -0.249919,-0.20133 -0.791411,-0.20133 z"
             style="font-style:normal;font-variant:normal;font-weight:normal;font-stretch:normal;font-family:'Ropa Sans';-inkscape-font-specification:'Ropa Sans';fill:#777777;fill-opacity:1;stroke-width:0.86777616"
             id="path987" />
          <path
             inkscape:connector-curvature="0"
             d="m 26.06292,281.7022 q 0.59703,0 0.867776,0.27075 0.277688,0.2638 0.277688,0.84695 v 2.35341 h -0.562319 v -0.54149 q -0.402648,0.6248 -0.909429,0.6248 -0.402648,0 -0.645626,-0.27769 -0.236035,-0.27769 -0.236035,-0.7567 v -0.19439 q 0,-0.41653 0.284631,-0.68727 0.28463,-0.27769 0.763643,-0.27769 0.263804,0 0.715047,0.0902 v -0.38183 q 0,-0.29851 -0.138844,-0.43041 -0.131902,-0.1319 -0.416532,-0.1319 -0.333226,0 -0.937199,0.10413 v -0.50678 q 0.652568,-0.10414 0.937199,-0.10414 z m -0.01388,1.81886 q -0.291573,0 -0.444301,0.15273 -0.152729,0.15273 -0.152729,0.43042 v 0.0764 q 0,0.25687 0.118018,0.40265 0.118017,0.14579 0.298515,0.14579 0.187439,0 0.381821,-0.15967 0.201324,-0.16662 0.367937,-0.46513 v -0.53455 q -0.263804,-0.0486 -0.569261,-0.0486 z"
             style="font-style:normal;font-variant:normal;font-weight:normal;font-stretch:normal;font-family:'Ropa Sans';-inkscape-font-specification:'Ropa Sans';fill:#777777;fill-opacity:1;stroke-width:0.86777616"
             id="path989" />
          <path
             inkscape:connector-curvature="0"
             d="m 28.841322,281.78551 h 0.902487 v 0.48596 h -0.902487 v 1.98547 q 0,0.2638 0.104133,0.38182 0.111075,0.11107 0.340168,0.11107 0.291573,0 0.569261,-0.0694 l 0.01389,0.4929 q -0.305458,0.0833 -0.555377,0.0833 -0.555377,0 -0.812239,-0.24298 -0.249919,-0.24992 -0.249919,-0.8053 v -1.93687 h -0.485955 v -0.48596 h 0.485955 l 0.111075,-0.90249 h 0.479013 z"
             style="font-style:normal;font-variant:normal;font-weight:normal;font-stretch:normal;font-family:'Ropa Sans';-inkscape-font-specification:'Ropa Sans';fill:#777777;fill-opacity:1;stroke-width:0.86777616"
             id="path991" />
          <path
             inkscape:connector-curvature="0"
             d="m 31.971499,281.7022 q 0.09719,0 0.152729,0.0139 v 0.66645 q -0.104133,-0.0208 -0.270746,-0.0208 -0.485955,0 -0.770586,0.48596 v 2.32564 h -0.590087 v -3.3878 h 0.555376 v 0.50678 q 0.18744,-0.28463 0.416533,-0.43736 0.236035,-0.15273 0.506781,-0.15273 z"
             style="font-style:normal;font-variant:normal;font-weight:normal;font-stretch:normal;font-family:'Ropa Sans';-inkscape-font-specification:'Ropa Sans';fill:#777777;fill-opacity:1;stroke-width:0.86777616"
             id="path993" />
          <path
             inkscape:connector-curvature="0"
             d="m 33.841773,281.7022 q 0.617857,0 0.916372,0.33323 0.305457,0.32628 0.305457,0.93026 v 1.02744 q 0,0.60398 -0.305457,0.9372 -0.298515,0.32629 -0.916372,0.32629 -0.617856,0 -0.923313,-0.32629 -0.298515,-0.33322 -0.298515,-0.9372 v -1.02744 q 0,-0.60398 0.298515,-0.93026 0.305457,-0.33323 0.923313,-0.33323 z m 0,0.4929 q -0.298515,0 -0.465128,0.18744 -0.166613,0.18744 -0.166613,0.53455 v 1.12464 q 0,0.34711 0.166613,0.53455 0.166613,0.18744 0.465128,0.18744 0.298515,0 0.465128,-0.18744 0.166613,-0.18744 0.166613,-0.53455 v -1.13158 q 0,-0.34711 -0.166613,-0.52761 -0.166613,-0.18744 -0.465128,-0.18744 z"
             style="font-style:normal;font-variant:normal;font-weight:normal;font-stretch:normal;font-family:'Ropa Sans';-inkscape-font-specification:'Ropa Sans';fill:#777777;fill-opacity:1;stroke-width:0.86777616"
             id="path995" />
          <path
             inkscape:connector-curvature="0"
             d="m 37.449336,281.7022 q 0.444301,0 0.680336,0.30546 0.242978,0.29852 0.242978,0.85389 v 2.31176 h -0.590088 v -2.22845 q 0,-0.69422 -0.451244,-0.69422 -0.201324,0 -0.40959,0.15273 -0.208266,0.15273 -0.360995,0.41653 v 2.35341 h -0.590088 v -3.3878 h 0.555377 v 0.50678 q 0.18744,-0.28463 0.416533,-0.43736 0.236035,-0.15273 0.506781,-0.15273 z"
             style="font-style:normal;font-variant:normal;font-weight:normal;font-stretch:normal;font-family:'Ropa Sans';-inkscape-font-specification:'Ropa Sans';fill:#777777;fill-opacity:1;stroke-width:0.86777616"
             id="path997" />
          <path
             inkscape:connector-curvature="0"
             d="m 40.381226,281.7022 q 0.59703,0 0.867776,0.27075 0.277688,0.2638 0.277688,0.84695 v 2.35341 h -0.562319 v -0.54149 q -0.402648,0.6248 -0.909429,0.6248 -0.402648,0 -0.645626,-0.27769 -0.236035,-0.27769 -0.236035,-0.7567 v -0.19439 q 0,-0.41653 0.284631,-0.68727 0.28463,-0.27769 0.763643,-0.27769 0.263804,0 0.715047,0.0902 v -0.38183 q 0,-0.29851 -0.138844,-0.43041 -0.131902,-0.1319 -0.416532,-0.1319 -0.333226,0 -0.937199,0.10413 v -0.50678 q 0.652568,-0.10414 0.937199,-0.10414 z m -0.01388,1.81886 q -0.291573,0 -0.444301,0.15273 -0.152729,0.15273 -0.152729,0.43042 v 0.0764 q 0,0.25687 0.118018,0.40265 0.118017,0.14579 0.298515,0.14579 0.187439,0 0.381821,-0.15967 0.201324,-0.16662 0.367937,-0.46513 v -0.53455 q -0.263804,-0.0486 -0.569261,-0.0486 z"
             style="font-style:normal;font-variant:normal;font-weight:normal;font-stretch:normal;font-family:'Ropa Sans';-inkscape-font-specification:'Ropa Sans';fill:#777777;fill-opacity:1;stroke-width:0.86777616"
             id="path999" />
          <path
             inkscape:connector-curvature="0"
             d="m 43.159628,281.78551 h 0.902487 v 0.48596 h -0.902487 v 1.98547 q 0,0.2638 0.104133,0.38182 0.111075,0.11107 0.340168,0.11107 0.291573,0 0.569261,-0.0694 l 0.01389,0.4929 q -0.305458,0.0833 -0.555377,0.0833 -0.555377,0 -0.812239,-0.24298 -0.249919,-0.24992 -0.249919,-0.8053 v -1.93687 H 42.08359 v -0.48596 h 0.485955 l 0.111075,-0.90249 h 0.479013 z"
             style="font-style:normal;font-variant:normal;font-weight:normal;font-stretch:normal;font-family:'Ropa Sans';-inkscape-font-specification:'Ropa Sans';fill:#777777;fill-opacity:1;stroke-width:0.86777616"
             id="path1001" />
          <path
             inkscape:connector-curvature="0"
             d="m 45.963522,281.7022 q 0.617857,0 0.916372,0.33323 0.305457,0.32628 0.305457,0.93026 v 1.02744 q 0,0.60398 -0.305457,0.9372 -0.298515,0.32629 -0.916372,0.32629 -0.617856,0 -0.923313,-0.32629 -0.298515,-0.33322 -0.298515,-0.9372 v -1.02744 q 0,-0.60398 0.298515,-0.93026 0.305457,-0.33323 0.923313,-0.33323 z m 0,0.4929 q -0.298515,0 -0.465128,0.18744 -0.166613,0.18744 -0.166613,0.53455 v 1.12464 q 0,0.34711 0.166613,0.53455 0.166613,0.18744 0.465128,0.18744 0.298515,0 0.465128,-0.18744 0.166613,-0.18744 0.166613,-0.53455 v -1.13158 q 0,-0.34711 -0.166613,-0.52761 -0.166613,-0.18744 -0.465128,-0.18744 z"
             style="font-style:normal;font-variant:normal;font-weight:normal;font-stretch:normal;font-family:'Ropa Sans';-inkscape-font-specification:'Ropa Sans';fill:#777777;fill-opacity:1;stroke-width:0.86777616"
             id="path1003" />
        </g>
        <g
           transform="translate(29.689161,2.569598)"
           aria-label="INCA"
           style="font-style:normal;font-variant:normal;font-weight:normal;font-stretch:normal;font-size:14.74122334px;line-height:1.25;font-family:'DIN Condensed';-inkscape-font-specification:'DIN Condensed, ';letter-spacing:0px;word-spacing:0px;fill:#777777;fill-opacity:1;stroke:none;stroke-width:1.84265292"
           id="text985">
          <path
             inkscape:connector-curvature="0"
             d="m 22.804492,286.37087 v 9.6555 h -1.253004 v -9.6555 z"
             style="font-style:normal;font-variant:normal;font-weight:normal;font-stretch:normal;font-family:'Ropa Sans';-inkscape-font-specification:'Ropa Sans';fill:#777777;fill-opacity:1;stroke-width:1.84265292"
             id="path1006" />
          <path
             inkscape:connector-curvature="0"
             d="m 29.428829,296.02637 -3.184104,-8.1519 v 8.1519 h -1.238263 v -9.6555 h 2.004806 l 3.12514,8.15189 v -8.15189 h 1.238263 v 9.6555 z"
             style="font-style:normal;font-variant:normal;font-weight:normal;font-stretch:normal;font-family:'Ropa Sans';-inkscape-font-specification:'Ropa Sans';fill:#777777;fill-opacity:1;stroke-width:1.84265292"
             id="path1008" />
          <path
             inkscape:connector-curvature="0"
             d="m 36.65249,286.19397 q 0.574907,0 1.238262,0.11793 0.678097,0.10319 0.796026,0.11793 l -0.02948,1.10559 q -1.297228,-0.23586 -2.004806,-0.23586 -1.002404,0 -1.44464,0.41276 -0.442237,0.41275 -0.442237,1.37093 v 4.21599 q 0,0.95818 0.427495,1.37093 0.442237,0.39802 1.459382,0.39802 0.707578,0 2.004806,-0.23586 l 0.02948,1.13507 q -0.117929,0.0147 -0.796026,0.11793 -0.663355,0.11793 -1.238262,0.11793 -1.695241,0 -2.417561,-0.72232 -0.72232,-0.72232 -0.72232,-2.25541 v -4.05383 q 0,-1.53309 0.72232,-2.25541 0.72232,-0.72232 2.417561,-0.72232 z"
             style="font-style:normal;font-variant:normal;font-weight:normal;font-stretch:normal;font-family:'Ropa Sans';-inkscape-font-specification:'Ropa Sans';fill:#777777;fill-opacity:1;stroke-width:1.84265292"
             id="path1010" />
          <path
             inkscape:connector-curvature="0"
             d="m 44.222339,286.37087 2.962986,9.6555 H 45.829132 L 45.19526,293.7857 h -3.552635 l -0.633873,2.24067 h -1.282486 l 2.948244,-9.6555 z m -0.796026,1.14981 -1.474123,5.14469 h 2.933504 z"
             style="font-style:normal;font-variant:normal;font-weight:normal;font-stretch:normal;font-family:'Ropa Sans';-inkscape-font-specification:'Ropa Sans';fill:#777777;fill-opacity:1;stroke-width:1.84265292"
             id="path1012" />
        </g>
      </g>
    </g>
  </g>
</svg>
