<?xml version="1.0" encoding="UTF-8" standalone="no"?>
<!-- Created with Inkscape (http://www.inkscape.org/) -->

<svg
   xmlns:dc="http://purl.org/dc/elements/1.1/"
   xmlns:cc="http://creativecommons.org/ns#"
   xmlns:rdf="http://www.w3.org/1999/02/22-rdf-syntax-ns#"
   xmlns:svg="http://www.w3.org/2000/svg"
   xmlns="http://www.w3.org/2000/svg"
   xmlns:sodipodi="http://sodipodi.sourceforge.net/DTD/sodipodi-0.dtd"
   xmlns:inkscape="http://www.inkscape.org/namespaces/inkscape"
   width="128mm"
   height="128mm"
   viewBox="0 0 128 128"
   version="1.1"
   id="svg8"
   inkscape:version="0.92.2 5c3e80d, 2017-08-06"
   sodipodi:docname="main_logo.svg">
  <defs
     id="defs2" />
  <sodipodi:namedview
     id="base"
     pagecolor="#ffffff"
     bordercolor="#666666"
     borderopacity="1.0"
     inkscape:pageopacity="0.0"
     inkscape:pageshadow="2"
     inkscape:zoom="0.88676758"
     inkscape:cx="122.76916"
     inkscape:cy="61.386594"
     inkscape:document-units="mm"
     inkscape:current-layer="layer1"
     showgrid="false"
     inkscape:showpageshadow="false"
     inkscape:window-width="1920"
     inkscape:window-height="1035"
     inkscape:window-x="0"
     inkscape:window-y="1"
     inkscape:window-maximized="1" />
  <metadata
     id="metadata5">
    <rdf:RDF>
      <cc:Work
         rdf:about="">
        <dc:format>image/svg+xml</dc:format>
        <dc:type
           rdf:resource="http://purl.org/dc/dcmitype/StillImage" />
        <dc:title></dc:title>
      </cc:Work>
    </rdf:RDF>
  </metadata>
  <g
     inkscape:label="Livello 1"
     inkscape:groupmode="layer"
     id="layer1"
     transform="translate(0,-169)">
    <path
       inkscape:connector-curvature="0"
       style="opacity:1;fill:#4180d1;fill-opacity:1;stroke:none;stroke-width:0.20483868;stroke-linecap:square;stroke-linejoin:miter;stroke-miterlimit:4;stroke-dasharray:none;stroke-dashoffset:0;stroke-opacity:1"
       d="m 66.544318,175.63037 a 36.285712,36.285712 0 0 0 -36.28564,36.28564 36.285712,36.285712 0 0 0 36.28564,36.28615 36.285712,36.285712 0 0 0 36.285642,-36.28615 36.285712,36.285712 0 0 0 -36.285642,-36.28564 z m 0,54.50778 a 8.3810223,8.3810223 0 0 1 8.380884,8.38088 8.3810223,8.3810223 0 0 1 -8.380884,8.38089 8.3810223,8.3810223 0 0 1 -8.381399,-8.38089 8.3810223,8.3810223 0 0 1 8.381399,-8.38088 z"
       id="path815" />
    <g
       aria-label="SCRIPTA"
       style="font-style:normal;font-variant:normal;font-weight:normal;font-stretch:normal;font-size:36.58059311px;line-height:1.25;font-family:'DIN Condensed';-inkscape-font-specification:'DIN Condensed, ';letter-spacing:0px;word-spacing:0px;fill:#4d4d4d;fill-opacity:1;stroke:none;stroke-width:2.28628707"
       id="text819"
       transform="matrix(1.1349301,0,0,1.1349301,-8.6624367,-93.560419)">
      <path
         inkscape:connector-curvature="0"
         d="m 31.064601,309.23846 h -3.73122 v -0.84135 q 0,-1.28032 -0.621871,-2.19484 -0.585289,-0.95109 -2.011932,-0.95109 -0.768193,0 -1.24374,0.29264 -0.475548,0.29264 -0.768193,0.73161 -0.292645,0.47555 -0.402386,1.09742 -0.109742,0.58529 -0.109742,1.24374 0,0.76819 0.03658,1.28032 0.07316,0.51213 0.292644,0.91452 0.219484,0.40238 0.62187,0.69503 0.438967,0.29264 1.170579,0.58529 l 2.853287,1.13399 q 1.24374,0.47555 2.011932,1.134 0.768193,0.62187 1.20716,1.46323 0.402386,0.87793 0.548709,2.01193 0.146322,1.09742 0.146322,2.52406 0,1.64613 -0.329225,3.07277 -0.329226,1.39006 -1.060838,2.37774 -0.768192,1.02426 -2.011932,1.60954 -1.24374,0.58529 -3.036189,0.58529 -1.353482,0 -2.524061,-0.47554 -1.170579,-0.47555 -2.011933,-1.3169 -0.841354,-0.84136 -1.353482,-1.93878 -0.475548,-1.13399 -0.475548,-2.4509 v -1.39006 h 3.731221 v 1.17058 q 0,1.02426 0.585289,1.86561 0.621871,0.80477 2.048514,0.80477 0.951095,0 1.463223,-0.25606 0.548709,-0.29265 0.841354,-0.80477 0.292645,-0.51213 0.329225,-1.20716 0.07316,-0.73162 0.07316,-1.60955 0,-1.02426 -0.07316,-1.68271 -0.07316,-0.65845 -0.292644,-1.06083 -0.256065,-0.40239 -0.695032,-0.65845 -0.402386,-0.25607 -1.097417,-0.54871 l -2.670384,-1.09742 q -2.414319,-0.98768 -3.255673,-2.59722 -0.804773,-1.64613 -0.804773,-4.09703 0,-1.46322 0.402387,-2.78012 0.402386,-1.31691 1.20716,-2.268 0.768192,-0.9511 1.938771,-1.49981 1.20716,-0.58529 2.853286,-0.58529 1.390063,0 2.524061,0.51213 1.170579,0.51213 2.011933,1.35348 1.682707,1.75587 1.682707,4.02387 z"
         style="fill:#4d4d4d;stroke-width:2.28628707"
         id="path821" />
      <path
         inkscape:connector-curvature="0"
         d="m 45.705983,320.35896 v 1.60955 q 0,1.20716 -0.475548,2.30457 -0.438967,1.06084 -1.24374,1.90219 -0.804773,0.84136 -1.902191,1.35349 -1.060837,0.47554 -2.304577,0.47554 -1.060837,0 -2.158255,-0.29264 -1.097418,-0.29265 -1.975352,-1.02426 -0.877934,-0.73161 -1.463224,-1.86561 -0.548709,-1.17058 -0.548709,-2.96303 v -14.33959 q 0,-1.28032 0.438967,-2.37774 0.438968,-1.09741 1.243741,-1.90219 0.804773,-0.80477 1.90219,-1.24374 1.133999,-0.47555 2.487481,-0.47555 2.633803,0 4.279929,1.71929 0.804773,0.84136 1.24374,2.01194 0.475548,1.13399 0.475548,2.48748 v 1.46322 h -3.73122 v -1.24374 q 0,-1.09742 -0.621871,-1.90219 -0.62187,-0.80477 -1.682707,-0.80477 -1.390062,0 -1.86561,0.87793 -0.438967,0.84135 -0.438967,2.15825 v 13.31534 q 0,1.134 0.475548,1.90219 0.512128,0.76819 1.792449,0.76819 0.365806,0 0.768192,-0.10974 0.438967,-0.14632 0.804773,-0.43897 0.329225,-0.29264 0.548709,-0.80477 0.219484,-0.51213 0.219484,-1.28032 v -1.28032 z"
         style="fill:#4d4d4d;stroke-width:2.28628707"
         id="path823" />
      <path
         d="m 52.445957,305.25118 v 8.12089 h 2.121674 c 0.658451,0 1.182773,-0.0854 1.572966,-0.25607 0.390193,-0.19509 0.695031,-0.46335 0.914515,-0.80477 0.195096,-0.34142 0.329225,-0.756 0.402386,-1.24374 0.07316,-0.51213 0.109742,-1.09742 0.109742,-1.75587 0,-0.65845 -0.03658,-1.23154 -0.109742,-1.71929 -0.07316,-0.51213 -0.219484,-0.95109 -0.438967,-1.3169 -0.463354,-0.68283 -1.341288,-1.02425 -2.633803,-1.02425 z m -3.731221,22.53364 v -26.04538 h 5.999218 c 4.389671,0 6.584507,2.54845 6.584507,7.64534 0,1.53639 -0.243871,2.8411 -0.731612,3.91413 -0.463355,1.07303 -1.292515,1.93877 -2.487481,2.59722 l 10.04897,22.38907 h -3.735493 l -9.715472,-21.62088 h -2.231416 v 11.1205 z"
         style="fill:#4d4d4d;stroke-width:2.28628707"
         id="path825"
         inkscape:connector-curvature="0"
         sodipodi:nodetypes="ccscccsccscccsscccccccc" />
      <path
         d="m 64.399809,338.27973 v -36.54029 h 3.731221 v 36.54029 z"
         style="fill:#4d4d4d;stroke-width:2.28628707"
         id="path827"
         inkscape:connector-curvature="0"
         sodipodi:nodetypes="ccccc" />
      <path
         inkscape:connector-curvature="0"
         d="m 71.720499,327.78482 v -26.04538 h 5.59683 q 1.536385,0 2.706964,0.40238 1.170579,0.40239 2.121675,1.42665 0.951095,1.02425 1.316901,2.41432 0.365806,1.35348 0.365806,3.69464 0,1.75587 -0.219484,2.96303 -0.182903,1.20715 -0.841353,2.26799 -0.768193,1.28032 -2.048513,2.01193 -1.280321,0.69504 -3.365415,0.69504 h -1.902191 v 10.1694 z m 3.73122,-22.53364 v 8.8525 h 1.792449 q 1.133999,0 1.755869,-0.32923 0.62187,-0.32922 0.914514,-0.91451 0.292645,-0.54871 0.329226,-1.35348 0.07316,-0.80478 0.07316,-1.79245 0,-0.91452 -0.03658,-1.71929 -0.03658,-0.84135 -0.329225,-1.46322 -0.292645,-0.62187 -0.877934,-0.9511 -0.58529,-0.32922 -1.682707,-0.32922 z"
         style="fill:#4d4d4d;stroke-width:2.28628707"
         id="path829" />
      <path
         inkscape:connector-curvature="0"
         d="m 89.032269,327.78482 v -22.53364 h -4.31651 v -3.51174 h 12.36424 v 3.51174 h -4.31651 v 22.53364 z"
         style="fill:#4d4d4d;stroke-width:2.28628707"
         id="path831" />
      <path
         inkscape:connector-curvature="0"
         d="m 104.26236,318.67625 -1.82903,-9.43779 h -0.0732 l -1.82903,9.43779 z m -9.218305,9.10857 5.816315,-26.04538 h 3.10935 l 5.81631,26.04538 h -3.73122 l -1.09741,-5.59683 h -5.084707 l -1.097417,5.59683 z"
         style="fill:#4d4d4d;stroke-width:2.28628707"
         id="path833" />
    </g>
  </g>
</svg>
