<?xml version="1.0" encoding="UTF-8" standalone="no"?>
<!-- Created with Inkscape (http://www.inkscape.org/) -->

<svg
   xmlns:dc="http://purl.org/dc/elements/1.1/"
   xmlns:cc="http://creativecommons.org/ns#"
   xmlns:rdf="http://www.w3.org/1999/02/22-rdf-syntax-ns#"
   xmlns:svg="http://www.w3.org/2000/svg"
   xmlns="http://www.w3.org/2000/svg"
   xmlns:sodipodi="http://sodipodi.sourceforge.net/DTD/sodipodi-0.dtd"
   xmlns:inkscape="http://www.inkscape.org/namespaces/inkscape"
   width="128mm"
   height="128mm"
   viewBox="0 0 128 128"
   version="1.1"
   id="svg8"
   inkscape:version="0.92.4 5da689c313, 2019-01-14"
   sodipodi:docname="main_logo.svg">
  <defs
     id="defs2" />
  <sodipodi:namedview
     id="base"
     pagecolor="#ffffff"
     bordercolor="#666666"
     borderopacity="1.0"
     inkscape:pageopacity="0.0"
     inkscape:pageshadow="2"
     inkscape:zoom="0.87643229"
     inkscape:cx="25.92835"
     inkscape:cy="342.41797"
     inkscape:document-units="mm"
     inkscape:current-layer="g1309"
     showgrid="false"
     inkscape:showpageshadow="false"
     inkscape:window-width="1920"
     inkscape:window-height="1031"
     inkscape:window-x="0"
     inkscape:window-y="24"
     inkscape:window-maximized="1"
     showguides="false" />
  <metadata
     id="metadata5">
    <rdf:RDF>
      <cc:Work
         rdf:about="">
        <dc:format>image/svg+xml</dc:format>
        <dc:type
           rdf:resource="http://purl.org/dc/dcmitype/StillImage" />
        <dc:title />
      </cc:Work>
    </rdf:RDF>
  </metadata>
  <g
     inkscape:label="Livello 1"
     inkscape:groupmode="layer"
     id="layer1"
     transform="translate(0,-169)">
    <path
       sodipodi:nodetypes="ccccc"
       inkscape:connector-curvature="0"
       id="path827"
       style="font-style:normal;font-variant:normal;font-weight:normal;font-stretch:normal;font-size:36.58059311px;line-height:1.25;font-family:'DIN Condensed';-inkscape-font-specification:'DIN Condensed, ';letter-spacing:0px;word-spacing:0px;fill:#4d4d4d;fill-opacity:1;stroke:none;stroke-width:2.20555449"
       d="M 64.426845,275.43973 V 245.4773 h 4.234675 v 29.96243 z" />
    <path
       id="path821"
       style="font-style:normal;font-variant:normal;font-weight:normal;font-stretch:normal;font-size:36.58059311px;line-height:1.25;font-family:'DIN Condensed';-inkscape-font-specification:'DIN Condensed, ';letter-spacing:0px;word-spacing:0px;fill:#4d4d4d;fill-opacity:1;stroke:none;stroke-width:2.4549005"
       d="M 26.593714,256.48464 H 22.35904 v -0.85471 q 0,-1.30063 -0.70578,-2.22967 -0.664262,-0.96618 -2.283402,-0.96618 -0.871846,0 -1.411558,0.29729 -0.539714,0.29729 -0.871845,0.74322 -0.332132,0.48309 -0.45668,1.11483 -0.12455,0.59457 -0.12455,1.26348 0,0.78037 0.04152,1.30063 0.08303,0.52025 0.33213,0.92903 0.249099,0.40877 0.705779,0.70606 0.498197,0.29728 1.328526,0.59458 l 3.238281,1.15198 q 1.411558,0.4831 2.283402,1.15199 0.871845,0.63174 1.370042,1.48646 0.45668,0.89186 0.622747,2.04385 0.166065,1.11483 0.166065,2.56411 0,1.67225 -0.373647,3.12153 -0.373649,1.41212 -1.203977,2.41547 -0.871845,1.04051 -2.283403,1.63508 -1.411558,0.59457 -3.445862,0.59457 -1.536107,0 -2.864633,-0.48308 -1.328525,-0.4831 -2.283403,-1.3378 -0.954878,-0.8547 -1.536108,-1.96954 -0.539713,-1.15199 -0.539713,-2.48979 v -1.41212 h 4.234675 v 1.18916 q 0,1.04051 0.664262,1.89521 0.70578,0.81754 2.32492,0.81754 1.079426,0 1.660656,-0.26012 0.622746,-0.2973 0.954878,-0.81755 0.332131,-0.52025 0.373647,-1.22631 0.08303,-0.74323 0.08303,-1.63509 0,-1.04051 -0.08303,-1.70941 -0.08303,-0.6689 -0.33213,-1.07766 -0.290616,-0.40878 -0.788813,-0.6689 -0.45668,-0.26014 -1.245492,-0.55742 l -3.030699,-1.11483 q -2.740083,-1.00336 -3.694961,-2.63843 -0.913361,-1.67226 -0.913361,-4.16205 0,-1.48643 0.456681,-2.82423 0.45668,-1.33781 1.370042,-2.30399 0.871844,-0.96619 2.20037,-1.52361 1.370042,-0.59457 3.23828,-0.59457 1.577624,0 2.864633,0.52025 1.328525,0.52026 2.283403,1.37496 1.909755,1.78373 1.909755,4.08772 z"
       inkscape:connector-curvature="0" />
    <path
       id="path823"
       style="font-style:normal;font-variant:normal;font-weight:normal;font-stretch:normal;font-size:36.58059311px;line-height:1.25;font-family:'DIN Condensed';-inkscape-font-specification:'DIN Condensed, ';letter-spacing:0px;word-spacing:0px;fill:#4d4d4d;fill-opacity:1;stroke:none;stroke-width:2.4549005"
       d="m 43.210659,267.78159 v 1.63509 q 0,1.22632 -0.539714,2.34114 -0.498196,1.07767 -1.411558,1.93237 -0.913361,0.85471 -2.158853,1.37497 -1.203976,0.48308 -2.615534,0.48308 -1.203976,0 -2.449469,-0.29728 -1.245492,-0.29729 -2.241886,-1.04052 -0.996394,-0.74321 -1.660657,-1.8952 -0.622746,-1.18916 -0.622746,-3.01005 v -14.56713 q 0,-1.30063 0.498196,-2.41547 0.498198,-1.11482 1.411559,-1.93237 0.913362,-0.81754 2.158853,-1.26348 1.28701,-0.48309 2.823117,-0.48309 2.989183,0 4.85742,1.74657 0.913362,0.85471 1.411558,2.04386 0.539714,1.15199 0.539714,2.52696 v 1.48643 h -4.234674 v -1.26348 q 0,-1.11482 -0.70578,-1.93237 -0.705779,-0.81754 -1.909755,-0.81754 -1.577623,0 -2.117337,0.89186 -0.498196,0.85471 -0.498196,2.19251 v 13.52662 q 0,1.15199 0.539713,1.93237 0.58123,0.78038 2.034305,0.78038 0.415164,0 0.871844,-0.11149 0.498197,-0.14863 0.913361,-0.44593 0.373647,-0.29728 0.622746,-0.81754 0.249099,-0.52026 0.249099,-1.30064 v -1.30063 z"
       inkscape:connector-curvature="0" />
    <path
       sodipodi:nodetypes="ccscccsccscccsscccccccc"
       inkscape:connector-curvature="0"
       id="path825"
       style="font-style:normal;font-variant:normal;font-weight:normal;font-stretch:normal;font-size:36.58059311px;line-height:1.25;font-family:'DIN Condensed';-inkscape-font-specification:'DIN Condensed, ';letter-spacing:0px;word-spacing:0px;fill:#4d4d4d;fill-opacity:1;stroke:none;stroke-width:2.4549005"
       d="m 50.860059,252.43408 v 8.24976 h 2.407951 c 0.747296,0 1.342365,-0.0867 1.785207,-0.26014 0.442841,-0.19819 0.788811,-0.47071 1.03791,-0.81754 0.221421,-0.34684 0.373648,-0.76799 0.45668,-1.26347 0.08303,-0.52026 0.12455,-1.11484 0.12455,-1.78373 0,-0.66891 -0.04152,-1.25108 -0.12455,-1.74658 -0.08303,-0.52026 -0.249099,-0.96618 -0.498197,-1.33779 -0.525874,-0.69367 -1.522268,-1.04051 -2.989182,-1.04051 z m -4.234676,22.8912 v -26.45866 h 6.808694 c 4.981969,0 7.472955,2.58889 7.472955,7.76665 0,1.56078 -0.276777,2.88619 -0.830329,3.97624 -0.525875,1.09006 -1.466914,1.96953 -2.823117,2.63844 L 68.66152,275.43973 H 64.421996 L 53.39256,264.02833 h -2.532501 v 11.29695 z" />
    <path
       id="path829"
       style="font-style:normal;font-variant:normal;font-weight:normal;font-stretch:normal;font-size:36.58059311px;line-height:1.25;font-family:'DIN Condensed';-inkscape-font-specification:'DIN Condensed, ';letter-spacing:0px;word-spacing:0px;fill:#4d4d4d;fill-opacity:1;stroke:none;stroke-width:2.4549005"
       d="m 72.735316,275.32528 v -26.45866 h 6.352011 q 1.74369,0 3.072215,0.40877 1.328525,0.40877 2.407953,1.44929 1.079426,1.0405 1.494591,2.45262 0.415164,1.37496 0.415164,3.75327 0,1.78373 -0.249099,3.01005 -0.207582,1.2263 -0.954877,2.30397 -0.871845,1.30064 -2.324919,2.04386 -1.453075,0.70607 -3.819511,0.70607 H 76.96999 v 10.33076 z m 4.234674,-22.8912 v 8.99297 h 2.034305 q 1.287009,0 1.992788,-0.33445 0.705779,-0.33444 1.03791,-0.92903 0.332131,-0.55741 0.373648,-1.37495 0.08303,-0.81755 0.08303,-1.82089 0,-0.92903 -0.04152,-1.74657 -0.04152,-0.8547 -0.373647,-1.48644 -0.332132,-0.63174 -0.996394,-0.9662 -0.664263,-0.33444 -1.909755,-0.33444 z"
       inkscape:connector-curvature="0" />
    <path
       id="path831"
       style="font-style:normal;font-variant:normal;font-weight:normal;font-stretch:normal;font-size:36.58059311px;line-height:1.25;font-family:'DIN Condensed';-inkscape-font-specification:'DIN Condensed, ';letter-spacing:0px;word-spacing:0px;fill:#4d4d4d;fill-opacity:1;stroke:none;stroke-width:2.4549005"
       d="m 92.382965,275.32528 v -22.8912 h -4.898937 v -3.56746 h 14.032552 v 3.56746 h -4.898941 v 22.8912 z"
       inkscape:connector-curvature="0" />
    <path
       id="path833"
       style="font-style:normal;font-variant:normal;font-weight:normal;font-stretch:normal;font-size:36.58059311px;line-height:1.25;font-family:'DIN Condensed';-inkscape-font-specification:'DIN Condensed, ';letter-spacing:0px;word-spacing:0px;fill:#4d4d4d;fill-opacity:1;stroke:none;stroke-width:2.4549005"
       d="m 109.66805,266.07218 -2.07582,-9.58754 h -0.0831 l -2.07583,9.58754 z m -10.462128,9.2531 6.601108,-26.45866 h 3.5289 l 6.6011,26.45866 h -4.23467 l -1.24548,-5.68564 h -5.77079 l -1.24549,5.68564 z"
       inkscape:connector-curvature="0" />
    <path
       inkscape:connector-curvature="0"
       style="opacity:1;fill:#4180d1;fill-opacity:1;stroke:none;stroke-width:0.13838981;stroke-linecap:square;stroke-linejoin:miter;stroke-miterlimit:4;stroke-dasharray:none;stroke-dashoffset:0;stroke-opacity:1"
       d="m 66.54418,197.95041 c -13.539088,2e-5 -24.514688,10.97562 -24.514718,24.51471 -1.63e-4,13.53923 10.975487,24.51504 24.514718,24.51506 13.539231,-2e-5 24.514883,-10.97583 24.514723,-24.51506 -2.7e-5,-13.5391 -10.975625,-24.51469 -24.514723,-24.51471 z"
       id="path815"
       sodipodi:nodetypes="ccccc" />
    <circle
       id="circle4526"
       cx="66.544182"
       cy="236.08612"
       r="8.9655809"
       style="font-style:normal;font-variant:normal;font-weight:normal;font-stretch:normal;font-size:36.58059311px;line-height:1.25;font-family:'DIN Condensed';-inkscape-font-specification:'DIN Condensed, ';letter-spacing:0px;word-spacing:0px;fill:#4d4d4d;fill-opacity:1;stroke:none;stroke-width:0.60491347" />
    <g
       id="g1309"
       transform="matrix(3.3237851,-1.8314277,1.8314277,3.3237851,-85.380022,294.85552)">
      <polygon
         id="polygon20"
         points="34.205,56.511 38.852,51.865 36.201,49.214 36.194,49.222 "
         style="fill:#eddcc7"
         transform="matrix(0.46732654,-0.01373401,0.01351106,0.4597403,26.001869,-20.142374)" />
      <path
         inkscape:connector-curvature="0"
         id="path22"
         d="M 52.392074,-4.6907372 51.79247,-5.246907 c -0.37265,-0.3456549 -0.960079,-0.3283912 -1.311786,0.038551 l -1.625581,1.6955252 1.274701,1.1823627 z"
         style="fill:#5599ff;stroke-width:0.46371803" />
      <rect
         id="rect24"
         height="7.6165419"
         width="1.7385787"
         style="fill:#c8beb7;stroke-width:0.46374464"
         transform="matrix(0.73316271,0.68005326,-0.69196042,0.72193543,0,0)"
         y="-35.804115"
         x="32.843765" />
      <polygon
         id="polygon26"
         points="41.858,54.871 38.852,51.865 34.205,56.511 34.072,57 41.85,54.879 "
         style="fill:#d6c4b1"
         transform="matrix(0.46732654,-0.01373401,0.01351106,0.4597403,26.001869,-20.142374)" />
      <path
         inkscape:connector-curvature="0"
         id="path28"
         d="m 51.575202,-0.98977283 1.625567,-1.69598497 c 0.351707,-0.3669426 0.334723,-0.9448362 -0.03793,-1.290491 l -0.770302,-0.7145021 -2.26227,2.3602694 z"
         style="fill:#0044aa;stroke-width:0.46371803" />
      <rect
         id="rect30"
         height="7.6165419"
         width="1.9713784"
         style="fill:#917c6f;stroke-width:0.46374464"
         transform="matrix(-0.73316271,-0.68005326,0.69196042,-0.72193543,0,0)"
         y="28.187006"
         x="-36.554073" />
      <path
         inkscape:connector-curvature="0"
         id="path32"
         d="M 42.387413,6.3893645 C 42.267777,6.3928805 42.146818,6.3513418 42.053054,6.2643706 41.865047,6.0899821 41.856508,5.7994263 42.03395,5.6142978 L 43.03552,4.56934 c 0.177442,-0.1851285 0.472793,-0.1938084 0.6608,-0.01942 0.188008,0.1743885 0.196547,0.4649443 0.01911,0.6500728 l -1.001571,1.0449578 c -0.08849,0.092327 -0.206806,0.1408979 -0.326441,0.1444138 z"
         style="fill:#ff6600;fill-opacity:1;stroke-width:0.46371803" />
      <g
         transform="translate(0,-36.707001)"
         id="g38" />
      <g
         transform="translate(0,-36.707001)"
         id="g40" />
      <g
         transform="translate(0,-36.707001)"
         id="g42" />
      <g
         transform="translate(0,-36.707001)"
         id="g44" />
      <g
         transform="translate(0,-36.707001)"
         id="g46" />
      <g
         transform="translate(0,-36.707001)"
         id="g48" />
      <g
         transform="translate(0,-36.707001)"
         id="g50" />
      <g
         transform="translate(0,-36.707001)"
         id="g52" />
      <g
         transform="translate(0,-36.707001)"
         id="g54" />
      <g
         transform="translate(0,-36.707001)"
         id="g56" />
      <g
         transform="translate(0,-36.707001)"
         id="g58" />
      <g
         transform="translate(0,-36.707001)"
         id="g60" />
      <g
         transform="translate(0,-36.707001)"
         id="g62" />
      <g
         transform="translate(0,-36.707001)"
         id="g64" />
      <g
         transform="translate(0,-36.707001)"
         id="g66" />
    </g>
  </g>
</svg>
