<?xml version="1.0" encoding="UTF-8" standalone="no"?>
<!-- Generator: Adobe Illustrator 18.0.0, SVG Export Plug-In . SVG Version: 6.00 Build 0)  -->

<svg
   xmlns:dc="http://purl.org/dc/elements/1.1/"
   xmlns:cc="http://creativecommons.org/ns#"
   xmlns:rdf="http://www.w3.org/1999/02/22-rdf-syntax-ns#"
   xmlns:svg="http://www.w3.org/2000/svg"
   xmlns="http://www.w3.org/2000/svg"
   xmlns:sodipodi="http://sodipodi.sourceforge.net/DTD/sodipodi-0.dtd"
   xmlns:inkscape="http://www.inkscape.org/namespaces/inkscape"
   version="1.1"
   id="Capa_1"
   x="0px"
   y="0px"
   viewBox="0 0 22 22"
   xml:space="preserve"
   sodipodi:docname="new_icon_22.svg"
   width="22"
   height="22"
   inkscape:version="0.92.2 5c3e80d, 2017-08-06"><metadata
     id="metadata73"><rdf:RDF><cc:Work
         rdf:about=""><dc:format>image/svg+xml</dc:format><dc:type
           rdf:resource="http://purl.org/dc/dcmitype/StillImage" /><dc:title></dc:title></cc:Work></rdf:RDF></metadata><defs
     id="defs71" /><sodipodi:namedview
     pagecolor="#ffffff"
     bordercolor="#666666"
     borderopacity="1"
     objecttolerance="10"
     gridtolerance="10"
     guidetolerance="10"
     inkscape:pageopacity="0"
     inkscape:pageshadow="2"
     inkscape:window-width="1912"
     inkscape:window-height="1024"
     id="namedview69"
     showgrid="false"
     inkscape:zoom="22.400718"
     inkscape:cx="18.03499"
     inkscape:cy="11.194131"
     inkscape:window-x="0"
     inkscape:window-y="0"
     inkscape:window-maximized="0"
     inkscape:current-layer="g14"
     inkscape:showpageshadow="false" /><g
     id="g18"
     transform="matrix(0.37474236,0,0,0.36865907,-4.6707055e-5,0.35713155)"><polygon
       id="polygon2"
       points="46.072,14 32.072,0 1.072,0 1.072,58 46.072,58 "
       style="fill:#d5f6ff" /><polygon
       id="polygon16"
       points="32.072,14 46.072,14 32.072,0 "
       style="fill:#87cdde" /><g
       id="g14"
       style="fill:#006680"><path
         inkscape:connector-curvature="0"
         id="path4"
         d="m 11.072,23 h 25 c 0.552,0 1,-0.447 1,-1 0,-0.553 -0.448,-1 -1,-1 h -25 c -0.552,0 -1,0.447 -1,1 0,0.553 0.448,1 1,1 z"
         style="fill:#006680" /><path
         inkscape:connector-curvature="0"
         id="path8"
         d="m 36.072,29 h -25 c -0.552,0 -1,0.447 -1,1 0,0.553 0.448,1 1,1 h 25 c 0.552,0 1,-0.447 1,-1 0,-0.553 -0.448,-1 -1,-1 z"
         style="fill:#006680" /><path
         inkscape:connector-curvature="0"
         id="path10"
         d="m 36.072,37 h -25 c -0.552,0 -1,0.447 -1,1 0,0.553 0.448,1 1,1 h 25 c 0.552,0 1,-0.447 1,-1 0,-0.553 -0.448,-1 -1,-1 z"
         style="fill:#006680" /><path
         inkscape:connector-curvature="0"
         id="path12"
         d="m 36.072,45 h -25 c -0.552,0 -1,0.447 -1,1 0,0.553 0.448,1 1,1 h 25 c 0.552,0 1,-0.447 1,-1 0,-0.553 -0.448,-1 -1,-1 z"
         style="fill:#006680" /><rect
         style="opacity:1;fill:#006680;fill-opacity:1;stroke:none;stroke-width:1.07617068;stroke-linecap:square;stroke-linejoin:miter;stroke-miterlimit:4;stroke-dasharray:none;stroke-dashoffset:0;stroke-opacity:1"
         id="rect996"
         width="17.987974"
         height="8.9607601"
         x="10.072"
         y="7.6064487"
         rx="0.53369999"
         ry="0.54250664" /></g></g><g
     id="g34"
     transform="matrix(0.35896794,-0.10758185,0.10583545,0.35314072,-3.5413082,3.5115091)"><polygon
       id="polygon20"
       points="38.852,51.865 36.201,49.214 36.194,49.222 34.205,56.511 "
       style="fill:#eddcc7" /><path
       inkscape:connector-curvature="0"
       id="path22"
       d="m 55.451,35.266 -1.247,-1.247 c -0.775,-0.775 -2.032,-0.775 -2.807,0 l -3.582,3.581 2.651,2.651 z"
       style="fill:#5599ff" /><rect
       id="rect24"
       height="16.424"
       width="3.7490001"
       style="fill:#c8beb7"
       transform="matrix(0.7071,0.7071,-0.7071,0.7071,44.3228,-17.5395)"
       y="36.521"
       x="41.459" /><polygon
       id="polygon26"
       points="41.85,54.879 41.858,54.871 38.852,51.865 34.205,56.511 34.072,57 "
       style="fill:#d6c4b1" /><path
       inkscape:connector-curvature="0"
       id="path28"
       d="m 53.472,43.257 3.582,-3.582 c 0.775,-0.775 0.775,-2.032 0,-2.807 l -1.602,-1.602 -4.985,4.985 z"
       style="fill:#0044aa" /><rect
       id="rect30"
       height="16.424"
       width="4.2509999"
       style="fill:#917c6f"
       transform="matrix(-0.7071,-0.7071,0.7071,-0.7071,45.1717,113.8333)"
       y="39.348999"
       x="44.035999" /><path
       inkscape:connector-curvature="0"
       id="path32"
       d="m 33.365,58.707 c -0.256,0 -0.512,-0.098 -0.707,-0.293 -0.391,-0.391 -0.391,-1.023 0,-1.414 l 2.207,-2.207 c 0.391,-0.391 1.023,-0.391 1.414,0 0.391,0.391 0.391,1.023 0,1.414 l -2.207,2.207 c -0.195,0.195 -0.451,0.293 -0.707,0.293 z"
       style="fill:#006680" /></g><g
     id="g38"
     transform="translate(0,-36.707001)" /><g
     id="g40"
     transform="translate(0,-36.707001)" /><g
     id="g42"
     transform="translate(0,-36.707001)" /><g
     id="g44"
     transform="translate(0,-36.707001)" /><g
     id="g46"
     transform="translate(0,-36.707001)" /><g
     id="g48"
     transform="translate(0,-36.707001)" /><g
     id="g50"
     transform="translate(0,-36.707001)" /><g
     id="g52"
     transform="translate(0,-36.707001)" /><g
     id="g54"
     transform="translate(0,-36.707001)" /><g
     id="g56"
     transform="translate(0,-36.707001)" /><g
     id="g58"
     transform="translate(0,-36.707001)" /><g
     id="g60"
     transform="translate(0,-36.707001)" /><g
     id="g62"
     transform="translate(0,-36.707001)" /><g
     id="g64"
     transform="translate(0,-36.707001)" /><g
     id="g66"
     transform="translate(0,-36.707001)" /></svg>