<?xml version="1.0" encoding="UTF-8" standalone="no"?>
<!-- Created with Inkscape (http://www.inkscape.org/) -->

<svg
   xmlns:dc="http://purl.org/dc/elements/1.1/"
   xmlns:cc="http://creativecommons.org/ns#"
   xmlns:rdf="http://www.w3.org/1999/02/22-rdf-syntax-ns#"
   xmlns:svg="http://www.w3.org/2000/svg"
   xmlns="http://www.w3.org/2000/svg"
   xmlns:sodipodi="http://sodipodi.sourceforge.net/DTD/sodipodi-0.dtd"
   xmlns:inkscape="http://www.inkscape.org/namespaces/inkscape"
   width="200"
   height="36"
   viewBox="0 0 52.916665 9.5250005"
   version="1.1"
   id="svg8"
   inkscape:version="0.92.4 5da689c313, 2019-01-14"
   sodipodi:docname="pdf_header_icon_22.svg">
  <defs
     id="defs2" />
  <sodipodi:namedview
     id="base"
     pagecolor="#ffffff"
     bordercolor="#666666"
     borderopacity="1.0"
     inkscape:pageopacity="0.0"
     inkscape:pageshadow="2"
     inkscape:zoom="2.734959"
     inkscape:cx="153.43827"
     inkscape:cy="39.181936"
     inkscape:document-units="px"
     inkscape:current-layer="layer1"
     showgrid="false"
     units="px"
     inkscape:showpageshadow="false"
     inkscape:window-width="1920"
     inkscape:window-height="1031"
     inkscape:window-x="0"
     inkscape:window-y="24"
     inkscape:window-maximized="1" />
  <metadata
     id="metadata5">
    <rdf:RDF>
      <cc:Work
         rdf:about="">
        <dc:format>image/svg+xml</dc:format>
        <dc:type
           rdf:resource="http://purl.org/dc/dcmitype/StillImage" />
        <dc:title></dc:title>
      </cc:Work>
    </rdf:RDF>
  </metadata>
  <g
     inkscape:label="Livello 1"
     inkscape:groupmode="layer"
     id="layer1"
     transform="translate(0,-287.47498)">
    <path
       sodipodi:nodetypes="ccccc"
       inkscape:connector-curvature="0"
       id="path827"
       style="font-style:normal;font-variant:normal;font-weight:normal;font-stretch:normal;font-size:36.58059311px;line-height:1.25;font-family:'DIN Condensed';-inkscape-font-specification:'DIN Condensed, ';letter-spacing:0px;word-spacing:0px;fill:#4d4d4d;fill-opacity:1;stroke:none;stroke-width:0.22566791"
       d="m 5.4743699,296.98887 v -3.0657 h 0.4332834 v 3.0657 z" />
    <path
       id="path821"
       style="font-style:normal;font-variant:normal;font-weight:normal;font-stretch:normal;font-size:36.58059311px;line-height:1.25;font-family:'DIN Condensed';-inkscape-font-specification:'DIN Condensed, ';letter-spacing:0px;word-spacing:0px;fill:#4d4d4d;fill-opacity:1;stroke:none;stroke-width:0.2511805"
       d="M 1.60336,295.04942 H 1.1700766 v -0.0874 q 0,-0.13308 -0.072214,-0.22813 -0.067966,-0.0989 -0.23363306,-0.0989 -0.0892055,0 -0.14442778,0.0304 -0.0552224,0.0304 -0.0892054,0.076 -0.0339831,0.0494 -0.0467266,0.11407 -0.0127437,0.0608 -0.0127437,0.12927 0,0.0799 0.004248,0.13308 0.008495,0.0532 0.0339829,0.0951 0.0254873,0.0418 0.0722139,0.0722 0.0509745,0.0304 0.13593211,0.0608 l 0.33133443,0.11787 q 0.1444277,0.0494 0.2336331,0.11787 0.089205,0.0646 0.1401799,0.15209 0.046727,0.0913 0.063718,0.20912 0.016992,0.11407 0.016992,0.26235 0,0.17111 -0.038231,0.31939 -0.038231,0.14449 -0.1231885,0.24715 -0.089205,0.10646 -0.2336333,0.1673 -0.1444277,0.0608 -0.35257362,0.0608 -0.15717138,0 -0.29310349,-0.0494 -0.135932,-0.0494 -0.2336332,-0.13688 -0.0977012,-0.0875 -0.15717148,-0.20152 -0.0552224,-0.11787 -0.0552224,-0.25475 v -0.14448 h 0.43328343 v 0.12167 q 0,0.10646 0.0679659,0.19391 0.072214,0.0837 0.23788114,0.0837 0.1104447,0 0.16991502,-0.0266 0.063718,-0.0304 0.097701,-0.0836 0.033983,-0.0532 0.038231,-0.12547 0.0085,-0.0761 0.0085,-0.1673 0,-0.10647 -0.0085,-0.17491 -0.0085,-0.0684 -0.033983,-0.11026 -0.029735,-0.0418 -0.08071,-0.0684 -0.046727,-0.0266 -0.1274362,-0.057 L 0.60935716,295.6844 q -0.28035978,-0.10266 -0.37806098,-0.26996 -0.0934533,-0.1711 -0.0934533,-0.42585 0,-0.15209 0.0467267,-0.28897 0.0467266,-0.13689 0.14017994,-0.23574 0.0892053,-0.0989 0.22513744,-0.1559 0.14017994,-0.0608 0.3313343,-0.0608 0.16141934,0 0.29310354,0.0532 0.135932,0.0532 0.2336332,0.14068 0.1954023,0.18251 0.1954023,0.41825 z"
       inkscape:connector-curvature="0" />
    <path
       id="path823"
       style="font-style:normal;font-variant:normal;font-weight:normal;font-stretch:normal;font-size:36.58059311px;line-height:1.25;font-family:'DIN Condensed';-inkscape-font-specification:'DIN Condensed, ';letter-spacing:0px;word-spacing:0px;fill:#4d4d4d;fill-opacity:1;stroke:none;stroke-width:0.2511805"
       d="m 3.3035724,296.2053 v 0.1673 q 0,0.12548 -0.055223,0.23954 -0.050974,0.11027 -0.1444278,0.19772 -0.093453,0.0874 -0.2208895,0.14068 -0.1231884,0.0494 -0.2676161,0.0494 -0.1231884,0 -0.2506248,-0.0304 -0.1274362,-0.0304 -0.2293852,-0.10646 -0.1019491,-0.076 -0.1699151,-0.19391 -0.063718,-0.12167 -0.063718,-0.30798 v -1.49048 q 0,-0.13308 0.050974,-0.24715 0.050975,-0.11407 0.1444278,-0.19772 0.093453,-0.0837 0.2208895,-0.12927 0.1316843,-0.0494 0.2888557,-0.0494 0.3058472,0 0.4970014,0.1787 0.093453,0.0875 0.1444278,0.20913 0.055223,0.11787 0.055223,0.25855 v 0.15209 H 2.870289 v -0.12928 q 0,-0.11406 -0.072214,-0.19771 -0.072214,-0.0837 -0.1954023,-0.0837 -0.1614193,0 -0.2166417,0.0913 -0.050974,0.0874 -0.050974,0.22433 v 1.38402 q 0,0.11787 0.055222,0.19772 0.05947,0.0798 0.208146,0.0798 0.042479,0 0.089205,-0.0114 0.050974,-0.0152 0.093453,-0.0456 0.038231,-0.0304 0.063718,-0.0837 0.025487,-0.0532 0.025487,-0.13308 v -0.13308 z"
       inkscape:connector-curvature="0" />
    <path
       sodipodi:nodetypes="ccscccsccscccsscccccccc"
       inkscape:connector-curvature="0"
       id="path825"
       style="font-style:normal;font-variant:normal;font-weight:normal;font-stretch:normal;font-size:36.58059311px;line-height:1.25;font-family:'DIN Condensed';-inkscape-font-specification:'DIN Condensed, ';letter-spacing:0px;word-spacing:0px;fill:#4d4d4d;fill-opacity:1;stroke:none;stroke-width:0.2511805"
       d="m 4.0862436,294.63498 v 0.8441 h 0.2463767 c 0.076462,0 0.1373481,-0.009 0.1826588,-0.0266 0.045311,-0.0203 0.08071,-0.0482 0.1061969,-0.0836 0.022655,-0.0355 0.038231,-0.0786 0.046727,-0.12928 0.0085,-0.0532 0.012744,-0.11406 0.012744,-0.1825 0,-0.0684 -0.00425,-0.12801 -0.012744,-0.17871 -0.0085,-0.0532 -0.025487,-0.0989 -0.050975,-0.13688 -0.053806,-0.071 -0.1557554,-0.10646 -0.3058471,-0.10646 z m -0.4332835,2.34218 v -2.7072 H 4.349612 c 0.509745,0 0.7646177,0.26489 0.7646177,0.79467 0,0.1597 -0.028319,0.29531 -0.084958,0.40684 -0.053807,0.11153 -0.1500917,0.20152 -0.2888557,0.26996 l 1.1672369,1.24744 H 5.4738737 L 4.345364,295.82128 H 4.0862436 v 1.15588 z" />
    <path
       id="path829"
       style="font-style:normal;font-variant:normal;font-weight:normal;font-stretch:normal;font-size:36.58059311px;line-height:1.25;font-family:'DIN Condensed';-inkscape-font-specification:'DIN Condensed, ';letter-spacing:0px;word-spacing:0px;fill:#4d4d4d;fill-opacity:1;stroke:none;stroke-width:0.2511805"
       d="m 6.3244759,296.97716 v -2.7072 h 0.649925 q 0.1784109,0 0.3143429,0.0418 0.135932,0.0418 0.2463769,0.14829 0.1104447,0.10646 0.1529236,0.25094 0.042479,0.14069 0.042479,0.38403 0,0.18251 -0.025487,0.30798 -0.021239,0.12547 -0.097701,0.23574 -0.089205,0.13308 -0.237881,0.20912 -0.1486758,0.0722 -0.3908047,0.0722 H 6.7577593 v 1.05702 z m 0.4332834,-2.34218 v 0.92014 h 0.208146 q 0.1316841,0 0.203898,-0.0342 0.072214,-0.0342 0.1061969,-0.0951 0.033983,-0.057 0.038231,-0.14068 0.0085,-0.0837 0.0085,-0.18631 0,-0.0951 -0.00425,-0.1787 -0.00425,-0.0875 -0.038231,-0.15209 -0.033983,-0.0646 -0.101949,-0.0989 -0.067966,-0.0342 -0.1954023,-0.0342 z"
       inkscape:connector-curvature="0" />
    <path
       id="path831"
       style="font-style:normal;font-variant:normal;font-weight:normal;font-stretch:normal;font-size:36.58059311px;line-height:1.25;font-family:'DIN Condensed';-inkscape-font-specification:'DIN Condensed, ';letter-spacing:0px;word-spacing:0px;fill:#4d4d4d;fill-opacity:1;stroke:none;stroke-width:0.2511805"
       d="m 8.3347839,296.97716 v -2.34218 H 7.8335345 v -0.36502 H 9.269317 v 0.36502 H 8.7680672 v 2.34218 z"
       inkscape:connector-curvature="0" />
    <path
       id="path833"
       style="font-style:normal;font-variant:normal;font-weight:normal;font-stretch:normal;font-size:36.58059311px;line-height:1.25;font-family:'DIN Condensed';-inkscape-font-specification:'DIN Condensed, ';letter-spacing:0px;word-spacing:0px;fill:#4d4d4d;fill-opacity:1;stroke:none;stroke-width:0.2511805"
       d="m 10.103359,296.0304 -0.2123937,-0.98098 h -0.0085 l -0.2123948,0.98098 z m -1.0704639,0.94676 0.6754121,-2.7072 h 0.3610698 l 0.675411,2.7072 h -0.433282 l -0.127435,-0.58174 H 9.5936149 l -0.127436,0.58174 z"
       inkscape:connector-curvature="0" />
    <path
       inkscape:connector-curvature="0"
       style="opacity:1;fill:#4180d1;fill-opacity:1;stroke:none;stroke-width:0.01415977;stroke-linecap:square;stroke-linejoin:miter;stroke-miterlimit:4;stroke-dasharray:none;stroke-dashoffset:0;stroke-opacity:1"
       d="m 5.6910113,289.06032 c -1.3852922,0 -2.5082936,1.123 -2.5082966,2.50829 -1.67e-5,1.38531 1.1229897,2.50833 2.5082966,2.50834 1.3853069,-1e-5 2.5083136,-1.12303 2.5082972,-2.50834 -2.7e-6,-1.38529 -1.1230039,-2.50829 -2.5082972,-2.50829 z"
       id="path815"
       sodipodi:nodetypes="ccccc" />
    <circle
       id="circle4526"
       cx="5.6910114"
       cy="292.96228"
       r="0.91734022"
       style="font-style:normal;font-variant:normal;font-weight:normal;font-stretch:normal;font-size:36.58059311px;line-height:1.25;font-family:'DIN Condensed';-inkscape-font-specification:'DIN Condensed, ';letter-spacing:0px;word-spacing:0px;fill:#4d4d4d;fill-opacity:1;stroke:none;stroke-width:0.06189353" />
    <g
       id="g1309"
       transform="matrix(0.34008301,-0.187388,0.187388,0.34008301,-9.8535676,298.97545)">
      <polygon
         id="polygon20"
         points="36.201,49.214 36.194,49.222 34.205,56.511 38.852,51.865 "
         style="fill:#eddcc7"
         transform="matrix(0.46732654,-0.01373401,0.01351106,0.4597403,26.001869,-20.142374)" />
      <path
         inkscape:connector-curvature="0"
         id="path22"
         d="M 52.392074,-4.6907372 51.79247,-5.246907 c -0.37265,-0.3456549 -0.960079,-0.3283912 -1.311786,0.038551 l -1.625581,1.6955252 1.274701,1.1823627 z"
         style="fill:#5599ff;stroke-width:0.46371803" />
      <rect
         id="rect24"
         height="7.6165419"
         width="1.7385787"
         style="fill:#c8beb7;stroke-width:0.46374464"
         transform="matrix(0.73316271,0.68005326,-0.69196042,0.72193543,0,0)"
         y="-35.804115"
         x="32.843765" />
      <polygon
         id="polygon26"
         points="34.205,56.511 34.072,57 41.85,54.879 41.858,54.871 38.852,51.865 "
         style="fill:#d6c4b1"
         transform="matrix(0.46732654,-0.01373401,0.01351106,0.4597403,26.001869,-20.142374)" />
      <path
         inkscape:connector-curvature="0"
         id="path28"
         d="m 51.575202,-0.98977283 1.625567,-1.69598497 c 0.351707,-0.3669426 0.334723,-0.9448362 -0.03793,-1.290491 l -0.770302,-0.7145021 -2.26227,2.3602694 z"
         style="fill:#0044aa;stroke-width:0.46371803" />
      <rect
         id="rect30"
         height="7.6165419"
         width="1.9713784"
         style="fill:#917c6f;stroke-width:0.46374464"
         transform="matrix(-0.73316271,-0.68005326,0.69196042,-0.72193543,0,0)"
         y="28.187006"
         x="-36.554073" />
      <path
         inkscape:connector-curvature="0"
         id="path32"
         d="M 42.387413,6.3893645 C 42.267777,6.3928805 42.146818,6.3513418 42.053054,6.2643706 41.865047,6.0899821 41.856508,5.7994263 42.03395,5.6142978 L 43.03552,4.56934 c 0.177442,-0.1851285 0.472793,-0.1938084 0.6608,-0.01942 0.188008,0.1743885 0.196547,0.4649443 0.01911,0.6500728 l -1.001571,1.0449578 c -0.08849,0.092327 -0.206806,0.1408979 -0.326441,0.1444138 z"
         style="fill:#ff6600;fill-opacity:1;stroke-width:0.46371803" />
      <g
         transform="translate(0,-36.707001)"
         id="g38" />
      <g
         transform="translate(0,-36.707001)"
         id="g40" />
      <g
         transform="translate(0,-36.707001)"
         id="g42" />
      <g
         transform="translate(0,-36.707001)"
         id="g44" />
      <g
         transform="translate(0,-36.707001)"
         id="g46" />
      <g
         transform="translate(0,-36.707001)"
         id="g48" />
      <g
         transform="translate(0,-36.707001)"
         id="g50" />
      <g
         transform="translate(0,-36.707001)"
         id="g52" />
      <g
         transform="translate(0,-36.707001)"
         id="g54" />
      <g
         transform="translate(0,-36.707001)"
         id="g56" />
      <g
         transform="translate(0,-36.707001)"
         id="g58" />
      <g
         transform="translate(0,-36.707001)"
         id="g60" />
      <g
         transform="translate(0,-36.707001)"
         id="g62" />
      <g
         transform="translate(0,-36.707001)"
         id="g64" />
      <g
         transform="translate(0,-36.707001)"
         id="g66" />
    </g>
    <rect
       style="fill:#e50000;fill-opacity:1;stroke-width:0.13403207"
       id="rect1266"
       width="7.0570045"
       height="7.0570045"
       x="45.743034"
       y="289.94296" />
    <path
       inkscape:connector-curvature="0"
       id="path858"
       style="font-style:normal;font-variant:normal;font-weight:normal;font-stretch:normal;font-size:5.78240013px;line-height:1.25;font-family:'Futura XBlk BT';-inkscape-font-specification:'Futura XBlk BT';letter-spacing:0px;word-spacing:0px;fill:#4d4d4d;fill-opacity:1;stroke:none;stroke-width:0.0732309"
       d="m 47.356376,288.35617 q -0.102981,-0.0987 -0.210254,-0.14732 -0.107272,-0.0487 -0.225985,-0.0487 -0.184507,0 -0.297501,0.11442 -0.111563,0.11299 -0.111563,0.30179 0,0.18451 0.107272,0.29464 0.107272,0.11013 0.287489,0.11013 0.108702,0 0.220264,-0.0458 0.112994,-0.0472 0.24601,-0.14875 l -0.02432,0.78809 q -0.123005,0.05 -0.24601,0.0744 -0.123005,0.0257 -0.246011,0.0257 -0.15304,0 -0.294639,-0.0344 -0.141599,-0.0343 -0.256022,-0.0973 -0.277477,-0.16019 -0.420506,-0.40477 -0.141599,-0.24458 -0.141599,-0.5621 0,-0.23458 0.0801,-0.43482 0.08153,-0.20024 0.235998,-0.35328 0.155901,-0.15447 0.360433,-0.23313 0.205962,-0.0801 0.44482,-0.0801 0.127296,0 0.250301,0.0272 0.124436,0.0257 0.24172,0.0787 z" />
    <path
       inkscape:connector-curvature="0"
       id="path860"
       style="font-style:normal;font-variant:normal;font-weight:normal;font-stretch:normal;font-size:5.78240013px;line-height:1.25;font-family:'Futura XBlk BT';-inkscape-font-specification:'Futura XBlk BT';letter-spacing:0px;word-spacing:0px;fill:#4d4d4d;fill-opacity:1;stroke:none;stroke-width:0.0732309"
       d="m 49.019804,288.86965 h -0.327537 v -0.49202 h 1.157105 q 0.0028,0.0644 0.0043,0.0958 0.0014,0.0315 0.0014,0.0558 0,0.18022 -0.03433,0.32897 -0.03433,0.14874 -0.10012,0.26317 -0.160193,0.26889 -0.413355,0.41192 -0.253161,0.1416 -0.574976,0.1416 -0.237429,0 -0.441961,-0.0787 -0.203101,-0.0801 -0.360433,-0.23456 -0.155902,-0.15448 -0.235998,-0.35328 -0.0801,-0.19881 -0.0801,-0.43195 0,-0.23458 0.0801,-0.43338 0.08153,-0.20024 0.235998,-0.35185 0.155902,-0.15305 0.360433,-0.23314 0.204532,-0.0801 0.441961,-0.0801 0.321815,0 0.572116,0.14159 0.250301,0.14017 0.409063,0.41193 l -0.670807,0.24887 q -0.05292,-0.0872 -0.127295,-0.13016 -0.07437,-0.0429 -0.170206,-0.0429 -0.167343,0 -0.267463,0.12729 -0.09869,0.1273 -0.09869,0.34184 0,0.2217 0.100121,0.3447 0.10012,0.12158 0.283198,0.12158 0.108701,0 0.175926,-0.0458 0.06865,-0.0458 0.08153,-0.1273 z" />
    <path
       inkscape:connector-curvature="0"
       id="path862"
       style="font-style:normal;font-variant:normal;font-weight:normal;font-stretch:normal;font-size:5.78240013px;line-height:1.25;font-family:'Futura XBlk BT';-inkscape-font-specification:'Futura XBlk BT';letter-spacing:0px;word-spacing:0px;fill:#4d4d4d;fill-opacity:1;stroke:none;stroke-width:0.0732309"
       d="m 50.144012,289.61912 v -2.09395 h 0.765206 v 2.09395 z" />
    <path
       inkscape:connector-curvature="0"
       id="path864"
       style="font-style:normal;font-variant:normal;font-weight:normal;font-stretch:normal;font-size:5.78240013px;line-height:1.25;font-family:'Futura XBlk BT';-inkscape-font-specification:'Futura XBlk BT';letter-spacing:0px;word-spacing:0px;fill:#4d4d4d;fill-opacity:1;stroke:none;stroke-width:0.0732309"
       d="m 51.313991,289.61912 v -2.09395 h 0.753763 v 1.41457 h 0.732309 v 0.67938 z" />
    <path
       inkscape:connector-curvature="0"
       id="path895"
       style="font-style:normal;font-variant:normal;font-weight:normal;font-stretch:normal;font-size:4.45062494px;line-height:1.25;font-family:'Futura XBlk BT';-inkscape-font-specification:'Futura XBlk BT';letter-spacing:0px;word-spacing:0px;fill:#4d4d4d;fill-opacity:1;stroke:none;stroke-width:0.06460529"
       d="m 16.559976,290.50604 q -0.09085,-0.0871 -0.185488,-0.12996 -0.09464,-0.0429 -0.199368,-0.0429 -0.162775,0 -0.262459,0.10094 -0.09842,0.0997 -0.09842,0.26625 0,0.16278 0.09464,0.25994 0.09464,0.0971 0.253626,0.0971 0.0959,0 0.194321,-0.0403 0.09968,-0.0416 0.217033,-0.13123 l -0.02145,0.69526 q -0.108517,0.0442 -0.217033,0.0656 -0.108517,0.0227 -0.217033,0.0227 -0.135016,0 -0.259936,-0.0303 -0.12492,-0.0303 -0.225866,-0.0858 -0.244794,-0.14133 -0.370975,-0.3571 -0.124921,-0.21577 -0.124921,-0.49589 0,-0.20694 0.07066,-0.3836 0.07192,-0.17665 0.208201,-0.31167 0.137538,-0.13627 0.317979,-0.20568 0.181702,-0.0707 0.392427,-0.0707 0.112302,0 0.220818,0.024 0.109779,0.0227 0.213248,0.0694 z" />
    <path
       inkscape:connector-curvature="0"
       id="path897"
       style="font-style:normal;font-variant:normal;font-weight:normal;font-stretch:normal;font-size:4.45062494px;line-height:1.25;font-family:'Futura XBlk BT';-inkscape-font-specification:'Futura XBlk BT';letter-spacing:0px;word-spacing:0px;fill:#4d4d4d;fill-opacity:1;stroke:none;stroke-width:0.06460529"
       d="m 18.027475,290.95904 h -0.288957 v -0.43407 h 1.020814 q 0.0025,0.0568 0.0038,0.0845 0.0013,0.0278 0.0013,0.0492 0,0.15899 -0.03029,0.29022 -0.03029,0.13123 -0.08833,0.23218 -0.141325,0.23722 -0.364667,0.3634 -0.223342,0.12492 -0.507252,0.12492 -0.209463,0 -0.389904,-0.0694 -0.179178,-0.0707 -0.317978,-0.20694 -0.137539,-0.13627 -0.208201,-0.31167 -0.07066,-0.17539 -0.07066,-0.38106 0,-0.20694 0.07066,-0.38234 0.07192,-0.17665 0.208201,-0.3104 0.137538,-0.13502 0.317978,-0.20568 0.180441,-0.0707 0.389904,-0.0707 0.28391,0 0.504728,0.12493 0.220819,0.12366 0.360881,0.3634 l -0.591794,0.21956 q -0.04669,-0.077 -0.112302,-0.11483 -0.06562,-0.0378 -0.150157,-0.0378 -0.147633,0 -0.235961,0.1123 -0.08706,0.1123 -0.08706,0.30158 0,0.19558 0.08833,0.30409 0.08833,0.10726 0.249841,0.10726 0.0959,0 0.155204,-0.0403 0.06057,-0.0404 0.07192,-0.11231 z" />
    <path
       inkscape:connector-curvature="0"
       id="path899"
       style="font-style:normal;font-variant:normal;font-weight:normal;font-stretch:normal;font-size:4.45062494px;line-height:1.25;font-family:'Futura XBlk BT';-inkscape-font-specification:'Futura XBlk BT';letter-spacing:0px;word-spacing:0px;fill:#4d4d4d;fill-opacity:1;stroke:none;stroke-width:0.06460529"
       d="m 19.019267,291.62023 v -1.8473 h 0.675075 v 1.8473 z" />
    <path
       inkscape:connector-curvature="0"
       id="path901"
       style="font-style:normal;font-variant:normal;font-weight:normal;font-stretch:normal;font-size:4.45062494px;line-height:1.25;font-family:'Futura XBlk BT';-inkscape-font-specification:'Futura XBlk BT';letter-spacing:0px;word-spacing:0px;fill:#4d4d4d;fill-opacity:1;stroke:none;stroke-width:0.06460529"
       d="m 20.051438,291.62023 v -1.8473 h 0.66498 v 1.24794 h 0.646053 v 0.59936 z" />
    <path
       inkscape:connector-curvature="0"
       id="path903"
       style="font-style:normal;font-variant:normal;font-weight:normal;font-stretch:normal;font-size:4.45062494px;line-height:1.25;font-family:'Futura BdCn BT';-inkscape-font-specification:'Futura BdCn BT';letter-spacing:0px;word-spacing:0px;fill:#4d4d4d;fill-opacity:1;stroke:none;stroke-width:0.06460529"
       d="m 22.108208,291.62023 v -1.84226 h 0.794948 v 0.34069 h -0.439115 v 0.38234 h 0.40126 v 0.33943 h -0.40126 v 0.7798 z" />
    <path
       inkscape:connector-curvature="0"
       id="path905"
       style="font-style:normal;font-variant:normal;font-weight:normal;font-stretch:normal;font-size:4.45062494px;line-height:1.25;font-family:'Futura BdCn BT';-inkscape-font-specification:'Futura BdCn BT';letter-spacing:0px;word-spacing:0px;fill:#4d4d4d;fill-opacity:1;stroke:none;stroke-width:0.06460529"
       d="m 23.028707,291.62023 v -1.23785 h 0.317979 v 0.21956 q 0.04164,-0.12113 0.11104,-0.18044 0.0694,-0.0606 0.167823,-0.0618 v 0.32554 h -0.02271 q -0.135015,0 -0.184226,0.0644 -0.04795,0.0631 -0.04795,0.28895 v 0.5817 z" />
    <path
       inkscape:connector-curvature="0"
       id="path907"
       style="font-style:normal;font-variant:normal;font-weight:normal;font-stretch:normal;font-size:4.45062494px;line-height:1.25;font-family:'Futura BdCn BT';-inkscape-font-specification:'Futura BdCn BT';letter-spacing:0px;word-spacing:0px;fill:#4d4d4d;fill-opacity:1;stroke:none;stroke-width:0.06460529"
       d="m 23.752362,290.05179 q 0,-0.0845 0.05552,-0.14133 0.05678,-0.0581 0.141324,-0.0581 0.08076,0 0.137539,0.0581 0.05804,0.0581 0.05804,0.14133 0,0.0808 -0.05678,0.13754 -0.05678,0.0555 -0.1388,0.0555 -0.08454,0 -0.141324,-0.0542 -0.05552,-0.0555 -0.05552,-0.1388 z m 0.02523,1.56844 v -1.23785 h 0.341955 v 1.23785 z" />
    <path
       inkscape:connector-curvature="0"
       id="path909"
       style="font-style:normal;font-variant:normal;font-weight:normal;font-stretch:normal;font-size:4.45062494px;line-height:1.25;font-family:'Futura BdCn BT';-inkscape-font-specification:'Futura BdCn BT';letter-spacing:0px;word-spacing:0px;fill:#4d4d4d;fill-opacity:1;stroke:none;stroke-width:0.06460529"
       d="m 25.277905,290.38238 v 0.64101 q 0,0.37098 -0.09842,0.4959 -0.09716,0.12366 -0.35331,0.12366 -0.257412,0 -0.357096,-0.12366 -0.09842,-0.12366 -0.09842,-0.4959 v -0.64101 h 0.333121 v 0.79622 q 0,0.0972 0.0265,0.13122 0.0265,0.0341 0.09337,0.0341 0.06688,0 0.09337,-0.0354 0.02776,-0.0354 0.02776,-0.12997 v -0.79621 z" />
    <path
       inkscape:connector-curvature="0"
       id="path911"
       style="font-style:normal;font-variant:normal;font-weight:normal;font-stretch:normal;font-size:4.45062494px;line-height:1.25;font-family:'Futura BdCn BT';-inkscape-font-specification:'Futura BdCn BT';letter-spacing:0px;word-spacing:0px;fill:#4d4d4d;fill-opacity:1;stroke:none;stroke-width:0.06460529"
       d="m 25.529007,291.62023 v -1.95582 h 0.341955 v 1.95582 z" />
    <path
       inkscape:connector-curvature="0"
       id="path913"
       style="font-style:normal;font-variant:normal;font-weight:normal;font-stretch:normal;font-size:4.45062494px;line-height:1.25;font-family:'Futura BdCn BT';-inkscape-font-specification:'Futura BdCn BT';letter-spacing:0px;word-spacing:0px;fill:#4d4d4d;fill-opacity:1;stroke:none;stroke-width:0.06460529"
       d="m 26.114493,290.05179 q 0,-0.0845 0.05552,-0.14133 0.05678,-0.0581 0.141324,-0.0581 0.08076,0 0.137538,0.0581 0.05805,0.0581 0.05805,0.14133 0,0.0808 -0.05678,0.13754 -0.05678,0.0555 -0.1388,0.0555 -0.08454,0 -0.141324,-0.0542 -0.05552,-0.0555 -0.05552,-0.1388 z m 0.02524,1.56844 v -1.23785 h 0.341953 v 1.23785 z" />
    <path
       inkscape:connector-curvature="0"
       id="path915"
       style="font-style:normal;font-variant:normal;font-weight:normal;font-stretch:normal;font-size:4.45062494px;line-height:1.25;font-family:'Futura BdCn BT';-inkscape-font-specification:'Futura BdCn BT';letter-spacing:0px;word-spacing:0px;fill:#4d4d4d;fill-opacity:1;stroke:none;stroke-width:0.06460529"
       d="m 27.662749,291.62023 -0.524918,-1.84226 h 0.372237 l 0.217034,0.83407 q 0.03155,0.12239 0.053,0.26119 0.02271,0.13881 0.03533,0.29149 0.0088,-0.14133 0.02902,-0.2776 0.02145,-0.13754 0.05299,-0.26751 l 0.211986,-0.84164 h 0.382332 l -0.521132,1.84226 z" />
    <path
       inkscape:connector-curvature="0"
       id="path917"
       style="font-style:normal;font-variant:normal;font-weight:normal;font-stretch:normal;font-size:4.45062494px;line-height:1.25;font-family:'Futura BdCn BT';-inkscape-font-specification:'Futura BdCn BT';letter-spacing:0px;word-spacing:0px;fill:#4d4d4d;fill-opacity:1;stroke:none;stroke-width:0.06460529"
       d="m 29.059585,290.89595 q -0.0038,-0.13502 -0.04921,-0.19937 -0.04416,-0.0656 -0.133753,-0.0656 -0.08833,0 -0.135015,0.0681 -0.04669,0.0681 -0.04669,0.1981 z m -0.364666,0.19684 v 0.0101 q 0,0.13879 0.04921,0.21324 0.04921,0.0744 0.140062,0.0744 0.05805,0 0.09842,-0.0353 0.04164,-0.0354 0.06688,-0.10726 h 0.294004 q -0.04038,0.18549 -0.167821,0.29022 -0.126183,0.10473 -0.310409,0.10473 -0.230913,0 -0.36719,-0.17287 -0.136277,-0.17287 -0.136277,-0.46687 0,-0.29779 0.136277,-0.47066 0.136277,-0.17287 0.36719,-0.17287 0.244793,0 0.369714,0.17034 0.12492,0.17035 0.12492,0.50347 v 0.0593 z" />
    <path
       inkscape:connector-curvature="0"
       id="path919"
       style="font-style:normal;font-variant:normal;font-weight:normal;font-stretch:normal;font-size:4.45062494px;line-height:1.25;font-family:'Futura BdCn BT';-inkscape-font-specification:'Futura BdCn BT';letter-spacing:0px;word-spacing:0px;fill:#4d4d4d;fill-opacity:1;stroke:none;stroke-width:0.06460529"
       d="m 30.105635,291.62023 v -0.74952 q 0,-0.10599 -0.02523,-0.14511 -0.02523,-0.0403 -0.0858,-0.0403 -0.06561,0 -0.09464,0.0467 -0.02902,0.0467 -0.02902,0.15394 v 0.73438 h -0.341953 v -1.23785 h 0.317978 v 0.1918 q 0.06688,-0.10347 0.150157,-0.15394 0.08454,-0.0505 0.190536,-0.0505 0.145109,0 0.201891,0.082 0.05678,0.082 0.05678,0.32303 v 0.84542 z" />
    <path
       inkscape:connector-curvature="0"
       id="path921"
       style="font-style:normal;font-variant:normal;font-weight:normal;font-stretch:normal;font-size:4.45062494px;line-height:1.25;font-family:'Futura BdCn BT';-inkscape-font-specification:'Futura BdCn BT';letter-spacing:0px;word-spacing:0px;fill:#4d4d4d;fill-opacity:1;stroke:none;stroke-width:0.06460529"
       d="m 31.320771,290.89595 q -0.0038,-0.13502 -0.04921,-0.19937 -0.04416,-0.0656 -0.133753,-0.0656 -0.08833,0 -0.135015,0.0681 -0.04669,0.0681 -0.04669,0.1981 z m -0.364667,0.19684 v 0.0101 q 0,0.13879 0.04921,0.21324 0.04921,0.0744 0.140062,0.0744 0.05804,0 0.09842,-0.0353 0.04164,-0.0354 0.06688,-0.10726 h 0.294005 q -0.04038,0.18549 -0.167822,0.29022 -0.126183,0.10473 -0.310408,0.10473 -0.230914,0 -0.367191,-0.17287 -0.136276,-0.17287 -0.136276,-0.46687 0,-0.29779 0.136276,-0.47066 0.136277,-0.17287 0.367191,-0.17287 0.244793,0 0.369714,0.17034 0.12492,0.17035 0.12492,0.50347 v 0.0593 z" />
    <path
       inkscape:connector-curvature="0"
       id="path923"
       style="font-style:normal;font-variant:normal;font-weight:normal;font-stretch:normal;font-size:4.45062494px;line-height:1.25;font-family:'Futura BdCn BT';-inkscape-font-specification:'Futura BdCn BT';letter-spacing:0px;word-spacing:0px;fill:#4d4d4d;fill-opacity:1;stroke:none;stroke-width:0.06460529"
       d="m 31.691747,291.62023 0.357095,-0.96151 h -0.328073 v -0.27634 h 0.769711 l -0.350786,0.94007 h 0.32555 v 0.29778 z" />
    <path
       inkscape:connector-curvature="0"
       id="path925"
       style="font-style:normal;font-variant:normal;font-weight:normal;font-stretch:normal;font-size:4.45062494px;line-height:1.25;font-family:'Futura BdCn BT';-inkscape-font-specification:'Futura BdCn BT';letter-spacing:0px;word-spacing:0px;fill:#4d4d4d;fill-opacity:1;stroke:none;stroke-width:0.06460529"
       d="m 32.630542,290.05179 q 0,-0.0845 0.05552,-0.14133 0.05678,-0.0581 0.141324,-0.0581 0.08076,0 0.137539,0.0581 0.05804,0.0581 0.05804,0.14133 0,0.0808 -0.05678,0.13754 -0.05678,0.0555 -0.138801,0.0555 -0.08454,0 -0.141324,-0.0542 -0.05552,-0.0555 -0.05552,-0.1388 z m 0.02524,1.56844 v -1.23785 h 0.341954 v 1.23785 z" />
    <path
       inkscape:connector-curvature="0"
       id="path927"
       style="font-style:normal;font-variant:normal;font-weight:normal;font-stretch:normal;font-size:4.45062494px;line-height:1.25;font-family:'Futura BdCn BT';-inkscape-font-specification:'Futura BdCn BT';letter-spacing:0px;word-spacing:0px;fill:#4d4d4d;fill-opacity:1;stroke:none;stroke-width:0.06460529"
       d="m 33.853247,290.98175 q 0,-0.16908 -0.04038,-0.2511 -0.03912,-0.082 -0.122397,-0.082 -0.07445,0 -0.108516,0.0795 -0.03281,0.0782 -0.03281,0.25615 0,0.17665 0.03659,0.26498 0.03785,0.0871 0.113564,0.0871 0.08076,0 0.11735,-0.0845 0.03659,-0.0845 0.03659,-0.27003 z m 0.320503,0.63848 h -0.320503 v -0.18296 q -0.05426,0.10221 -0.12492,0.15394 -0.0694,0.0517 -0.153942,0.0517 -0.176655,0 -0.271292,-0.16404 -0.09337,-0.16403 -0.09337,-0.4757 0,-0.30284 0.0959,-0.46814 0.09716,-0.1653 0.271291,-0.1653 0.08202,0 0.148896,0.0492 0.06814,0.0492 0.127443,0.15268 v -0.18927 h 0.320503 z" />
    <path
       inkscape:connector-curvature="0"
       id="path929"
       style="font-style:normal;font-variant:normal;font-weight:normal;font-stretch:normal;font-size:4.45062494px;line-height:1.25;font-family:'Futura BdCn BT';-inkscape-font-specification:'Futura BdCn BT';letter-spacing:0px;word-spacing:0px;fill:#4d4d4d;fill-opacity:1;stroke:none;stroke-width:0.06460529"
       d="m 35.584468,290.38238 h 0.330597 v 1.14448 q 0,0.39747 -0.105993,0.53123 -0.104731,0.13375 -0.379808,0.13375 -0.217034,0 -0.336907,-0.11356 -0.119873,-0.11231 -0.119873,-0.31546 v -0.0189 h 0.288957 q 0,0.0896 0.04038,0.13375 0.04164,0.0454 0.122397,0.0454 0.08833,0 0.123658,-0.0467 0.03659,-0.0454 0.03659,-0.16278 v -0.25615 q -0.05931,0.0871 -0.127444,0.13123 -0.06688,0.0442 -0.141324,0.0442 -0.176656,0 -0.271292,-0.16278 -0.09338,-0.16277 -0.09338,-0.47065 0,-0.30158 0.0959,-0.46562 0.0959,-0.16404 0.271292,-0.16404 0.08328,0 0.148894,0.0505 0.06688,0.0492 0.11735,0.15142 z m 0,0.59937 q 0,-0.18044 -0.03533,-0.25741 -0.03533,-0.0782 -0.117349,-0.0782 -0.07445,0 -0.108517,0.0795 -0.03281,0.0795 -0.03281,0.25868 0,0.17791 0.03659,0.26624 0.03786,0.0883 0.113564,0.0883 0.07697,0 0.109779,-0.0808 0.03407,-0.082 0.03407,-0.27634 z" />
    <path
       inkscape:connector-curvature="0"
       id="path931"
       style="font-style:normal;font-variant:normal;font-weight:normal;font-stretch:normal;font-size:4.45062494px;line-height:1.25;font-family:'Futura BdCn BT';-inkscape-font-specification:'Futura BdCn BT';letter-spacing:0px;word-spacing:0px;fill:#4d4d4d;fill-opacity:1;stroke:none;stroke-width:0.06460529"
       d="m 36.153549,290.05179 q 0,-0.0845 0.05552,-0.14133 0.05678,-0.0581 0.141324,-0.0581 0.08076,0 0.137539,0.0581 0.05804,0.0581 0.05804,0.14133 0,0.0808 -0.05678,0.13754 -0.05678,0.0555 -0.1388,0.0555 -0.08454,0 -0.141325,-0.0542 -0.05552,-0.0555 -0.05552,-0.1388 z m 0.02524,1.56844 v -1.23785 h 0.341953 v 1.23785 z" />
    <path
       inkscape:connector-curvature="0"
       id="path933"
       style="font-style:normal;font-variant:normal;font-weight:normal;font-stretch:normal;font-size:4.45062494px;line-height:1.25;font-family:'Futura BdCn BT';-inkscape-font-specification:'Futura BdCn BT';letter-spacing:0px;word-spacing:0px;fill:#4d4d4d;fill-opacity:1;stroke:none;stroke-width:0.06460529"
       d="m 37.679092,290.38238 v 0.64101 q 0,0.37098 -0.09842,0.4959 -0.09716,0.12366 -0.35331,0.12366 -0.257412,0 -0.357096,-0.12366 -0.09842,-0.12366 -0.09842,-0.4959 v -0.64101 h 0.333121 v 0.79622 q 0,0.0972 0.0265,0.13122 0.0265,0.0341 0.09338,0.0341 0.06688,0 0.09338,-0.0354 0.02776,-0.0354 0.02776,-0.12997 v -0.79621 z" />
    <path
       inkscape:connector-curvature="0"
       id="path935"
       style="font-style:normal;font-variant:normal;font-weight:normal;font-stretch:normal;font-size:4.45062494px;line-height:1.25;font-family:'Futura BdCn BT';-inkscape-font-specification:'Futura BdCn BT';letter-spacing:0px;word-spacing:0px;fill:#4d4d4d;fill-opacity:1;stroke:none;stroke-width:0.06460529"
       d="m 37.930195,291.62023 v -1.95582 h 0.341954 v 1.95582 z" />
    <path
       inkscape:connector-curvature="0"
       id="path937"
       style="font-style:normal;font-variant:normal;font-weight:normal;font-stretch:normal;font-size:4.45062494px;line-height:1.25;font-family:'Futura BdCn BT';-inkscape-font-specification:'Futura BdCn BT';letter-spacing:0px;word-spacing:0px;fill:#4d4d4d;fill-opacity:1;stroke:none;stroke-width:0.06460529"
       d="m 38.51568,290.05179 q 0,-0.0845 0.05552,-0.14133 0.05678,-0.0581 0.141324,-0.0581 0.08076,0 0.137539,0.0581 0.05805,0.0581 0.05805,0.14133 0,0.0808 -0.05678,0.13754 -0.05678,0.0555 -0.138801,0.0555 -0.08454,0 -0.141323,-0.0542 -0.05552,-0.0555 -0.05552,-0.1388 z m 0.02523,1.56844 v -1.23785 h 0.341954 v 1.23785 z" />
    <path
       inkscape:connector-curvature="0"
       id="path939"
       style="font-style:normal;font-variant:normal;font-weight:normal;font-stretch:normal;font-size:4.45062494px;line-height:1.25;font-family:'Futura BdCn BT';-inkscape-font-specification:'Futura BdCn BT';letter-spacing:0px;word-spacing:0px;fill:#4d4d4d;fill-opacity:1;stroke:none;stroke-width:0.06460529"
       d="m 39.738386,290.98175 q 0,-0.16908 -0.04038,-0.2511 -0.03912,-0.082 -0.122397,-0.082 -0.07445,0 -0.108516,0.0795 -0.03281,0.0782 -0.03281,0.25615 0,0.17665 0.03659,0.26498 0.03785,0.0871 0.113563,0.0871 0.08076,0 0.11735,-0.0845 0.03659,-0.0845 0.03659,-0.27003 z m 0.320502,0.63848 h -0.320502 v -0.18296 q -0.05426,0.10221 -0.124921,0.15394 -0.0694,0.0517 -0.153942,0.0517 -0.176655,0 -0.271292,-0.16404 -0.09338,-0.16403 -0.09338,-0.4757 0,-0.30284 0.0959,-0.46814 0.09716,-0.1653 0.271292,-0.1653 0.08202,0 0.148895,0.0492 0.06814,0.0492 0.127444,0.15268 v -0.18927 h 0.320502 z" />
    <path
       inkscape:connector-curvature="0"
       id="path942"
       style="font-style:normal;font-variant:normal;font-weight:normal;font-stretch:normal;font-size:5.05139208px;line-height:1.25;font-family:'Futura BdCn BT';-inkscape-font-specification:'Futura BdCn BT';letter-spacing:0px;word-spacing:0px;fill:#4d4d4d;fill-opacity:1;stroke:none;stroke-width:0.07332602"
       d="m 15.288885,294.91956 v -0.43394 q 0.07877,0.0687 0.154672,0.10311 0.0759,0.0344 0.15324,0.0344 0.105979,0 0.16613,-0.0559 0.06158,-0.0559 0.06158,-0.15181 0,-0.11887 -0.164697,-0.25778 -0.04583,-0.0387 -0.06874,-0.0602 -0.191908,-0.17186 -0.263516,-0.30792 -0.07161,-0.13748 -0.07161,-0.31077 0,-0.27068 0.151808,-0.43681 0.153239,-0.16756 0.399569,-0.16756 0.08736,0 0.171858,0.0258 0.08593,0.0243 0.180451,0.0773 v 0.36949 q -0.110276,-0.053 -0.171858,-0.073 -0.06015,-0.02 -0.107411,-0.02 -0.09023,0 -0.147512,0.0573 -0.05729,0.0558 -0.05729,0.14751 0,0.0802 0.04297,0.15037 0.04297,0.0688 0.200501,0.2048 0.210526,0.18045 0.270676,0.30075 0.06015,0.11887 0.06015,0.28787 0,0.28499 -0.161833,0.45112 -0.160401,0.1647 -0.438237,0.1647 -0.10598,0 -0.196205,-0.0243 -0.08879,-0.0243 -0.164697,-0.0745 z" />
    <path
       inkscape:connector-curvature="0"
       id="path944"
       style="font-style:normal;font-variant:normal;font-weight:normal;font-stretch:normal;font-size:5.05139208px;line-height:1.25;font-family:'Futura BdCn BT';-inkscape-font-specification:'Futura BdCn BT';letter-spacing:0px;word-spacing:0px;fill:#4d4d4d;fill-opacity:1;stroke:none;stroke-width:0.07332602"
       d="m 16.440333,293.21244 q 0,-0.096 0.06301,-0.1604 0.06445,-0.0659 0.160401,-0.0659 0.09166,0 0.156105,0.0659 0.06588,0.0659 0.06588,0.1604 0,0.0917 -0.06445,0.1561 -0.06445,0.063 -0.157536,0.063 -0.09595,0 -0.160401,-0.0616 -0.06301,-0.063 -0.06301,-0.15754 z m 0.02864,1.78016 v -1.40494 h 0.388112 v 1.40494 z" />
    <path
       inkscape:connector-curvature="0"
       id="path946"
       style="font-style:normal;font-variant:normal;font-weight:normal;font-stretch:normal;font-size:5.05139208px;line-height:1.25;font-family:'Futura BdCn BT';-inkscape-font-specification:'Futura BdCn BT';letter-spacing:0px;word-spacing:0px;fill:#4d4d4d;fill-opacity:1;stroke:none;stroke-width:0.07332602"
       d="m 17.048996,294.8723 0.160401,-0.285 q 0.07161,0.0473 0.124597,0.0702 0.05299,0.0215 0.09595,0.0215 0.0444,0 0.07304,-0.0286 0.03008,-0.0286 0.03008,-0.0716 0,-0.0745 -0.143215,-0.16327 -0.03724,-0.0229 -0.05729,-0.0358 -0.137486,-0.0931 -0.19334,-0.18045 -0.05585,-0.0888 -0.05585,-0.20909 0,-0.19763 0.123164,-0.31221 0.123165,-0.116 0.332259,-0.116 0.104547,0 0.199069,0.0301 0.09595,0.0286 0.184747,0.0902 l -0.164697,0.27784 q -0.05585,-0.0473 -0.104547,-0.0702 -0.04726,-0.0229 -0.08879,-0.0229 -0.04726,0 -0.07734,0.0258 -0.02864,0.0258 -0.02864,0.0673 0,0.0616 0.13319,0.14321 0.04153,0.0258 0.06445,0.0415 0.148944,0.10311 0.207662,0.1962 0.05872,0.0917 0.05872,0.21769 0,0.20479 -0.134622,0.33226 -0.134622,0.12746 -0.352309,0.12746 -0.105979,0 -0.201932,-0.0358 -0.09596,-0.0358 -0.184748,-0.11027 z" />
    <path
       inkscape:connector-curvature="0"
       id="path948"
       style="font-style:normal;font-variant:normal;font-weight:normal;font-stretch:normal;font-size:5.05139208px;line-height:1.25;font-family:'Futura BdCn BT';-inkscape-font-specification:'Futura BdCn BT';letter-spacing:0px;word-spacing:0px;fill:#4d4d4d;fill-opacity:1;stroke:none;stroke-width:0.07332602"
       d="m 18.17753,294.9926 v -1.10275 h -0.15324 v -0.30219 h 0.15324 v -0.40529 h 0.38668 v 0.40529 h 0.15324 v 0.30219 h -0.15324 v 1.10275 z" />
    <path
       inkscape:connector-curvature="0"
       id="path950"
       style="font-style:normal;font-variant:normal;font-weight:normal;font-stretch:normal;font-size:5.05139208px;line-height:1.25;font-family:'Futura BdCn BT';-inkscape-font-specification:'Futura BdCn BT';letter-spacing:0px;word-spacing:0px;fill:#4d4d4d;fill-opacity:1;stroke:none;stroke-width:0.07332602"
       d="m 19.611111,294.17055 q -0.0043,-0.15324 -0.05585,-0.22628 -0.05013,-0.0745 -0.151808,-0.0745 -0.10025,0 -0.15324,0.0773 -0.05299,0.0773 -0.05299,0.22485 z m -0.413891,0.22341 v 0.0114 q 0,0.15754 0.05585,0.24204 0.05585,0.0845 0.158969,0.0845 0.06588,0 0.111707,-0.0401 0.04726,-0.0401 0.0759,-0.12173 h 0.333691 q -0.04583,0.21052 -0.190476,0.32939 -0.143215,0.11887 -0.352309,0.11887 -0.262083,0 -0.416755,-0.19621 -0.154672,-0.1962 -0.154672,-0.52989 0,-0.33799 0.154672,-0.53419 0.154672,-0.19621 0.416755,-0.19621 0.277837,0 0.41962,0.19334 0.141782,0.19335 0.141782,0.57143 v 0.0673 z" />
    <path
       inkscape:connector-curvature="0"
       id="path952"
       style="font-style:normal;font-variant:normal;font-weight:normal;font-stretch:normal;font-size:5.05139208px;line-height:1.25;font-family:'Futura BdCn BT';-inkscape-font-specification:'Futura BdCn BT';letter-spacing:0px;word-spacing:0px;fill:#4d4d4d;fill-opacity:1;stroke:none;stroke-width:0.07332602"
       d="m 20.146734,294.9926 v -1.40494 h 0.358038 v 0.21769 q 0.07304,-0.11744 0.164697,-0.17472 0.09166,-0.0573 0.204797,-0.0573 0.114572,0 0.186179,0.0587 0.07161,0.0587 0.09596,0.17329 0.08163,-0.11887 0.171858,-0.17473 0.09022,-0.0573 0.194772,-0.0573 0.15324,0 0.21339,0.10598 0.06158,0.10598 0.06158,0.43681 v 0.87647 h -0.380951 v -0.85069 q 0,-0.11887 -0.02578,-0.1647 -0.02578,-0.0458 -0.08879,-0.0458 -0.0759,0 -0.108843,0.0501 -0.03151,0.0501 -0.03151,0.17759 v 0.83351 h -0.378087 v -0.8507 q 0,-0.116 -0.02721,-0.16469 -0.02578,-0.0487 -0.08736,-0.0487 -0.07734,0 -0.111707,0.053 -0.03294,0.053 -0.03294,0.17758 v 0.83351 z" />
    <path
       inkscape:connector-curvature="0"
       id="path954"
       style="font-style:normal;font-variant:normal;font-weight:normal;font-stretch:normal;font-size:5.05139208px;line-height:1.25;font-family:'Futura BdCn BT';-inkscape-font-specification:'Futura BdCn BT';letter-spacing:0px;word-spacing:0px;fill:#4d4d4d;fill-opacity:1;stroke:none;stroke-width:0.07332602"
       d="m 22.748949,294.26793 q 0,-0.19191 -0.04583,-0.285 -0.0444,-0.0931 -0.138918,-0.0931 -0.0845,0 -0.123165,0.0902 -0.03724,0.0888 -0.03724,0.29073 0,0.2005 0.04153,0.30075 0.04296,0.0988 0.128893,0.0988 0.09166,0 0.13319,-0.096 0.04153,-0.096 0.04153,-0.30649 z m 0.363766,0.72467 h -0.363766 v -0.20766 q -0.06158,0.116 -0.141783,0.17472 -0.07877,0.0587 -0.174722,0.0587 -0.200501,0 -0.307912,-0.18618 -0.105979,-0.18618 -0.105979,-0.53992 0,-0.34371 0.108844,-0.53133 0.110275,-0.18761 0.307911,-0.18761 0.09309,0 0.168994,0.0559 0.07734,0.0558 0.144647,0.17328 v -0.21482 h 0.363766 z" />
    <path
       inkscape:connector-curvature="0"
       id="path956"
       style="font-style:normal;font-variant:normal;font-weight:normal;font-stretch:normal;font-size:5.05139208px;line-height:1.25;font-family:'Futura BdCn BT';-inkscape-font-specification:'Futura BdCn BT';letter-spacing:0px;word-spacing:0px;fill:#4d4d4d;fill-opacity:1;stroke:none;stroke-width:0.07332602"
       d="m 24.007809,294.91956 v -0.43394 q 0.07877,0.0687 0.154672,0.10311 0.0759,0.0344 0.153239,0.0344 0.105979,0 0.16613,-0.0559 0.06158,-0.0559 0.06158,-0.15181 0,-0.11887 -0.164697,-0.25778 -0.04583,-0.0387 -0.06874,-0.0602 -0.191908,-0.17186 -0.263516,-0.30792 -0.07161,-0.13748 -0.07161,-0.31077 0,-0.27068 0.151808,-0.43681 0.15324,-0.16756 0.39957,-0.16756 0.08736,0 0.171857,0.0258 0.08593,0.0243 0.180451,0.0773 v 0.36949 q -0.110276,-0.053 -0.171858,-0.073 -0.06015,-0.02 -0.107411,-0.02 -0.09023,0 -0.147511,0.0573 -0.05729,0.0558 -0.05729,0.14751 0,0.0802 0.04296,0.15037 0.04297,0.0688 0.200501,0.2048 0.210526,0.18045 0.270676,0.30075 0.06015,0.11887 0.06015,0.28787 0,0.28499 -0.161832,0.45112 -0.160401,0.1647 -0.438238,0.1647 -0.105979,0 -0.196204,-0.0243 -0.08879,-0.0243 -0.164697,-0.0745 z" />
    <path
       inkscape:connector-curvature="0"
       id="path958"
       style="font-style:normal;font-variant:normal;font-weight:normal;font-stretch:normal;font-size:5.05139208px;line-height:1.25;font-family:'Futura BdCn BT';-inkscape-font-specification:'Futura BdCn BT';letter-spacing:0px;word-spacing:0px;fill:#4d4d4d;fill-opacity:1;stroke:none;stroke-width:0.07332602"
       d="m 25.89538,294.17055 q -0.0043,-0.15324 -0.05585,-0.22628 -0.05013,-0.0745 -0.151808,-0.0745 -0.100251,0 -0.15324,0.0773 -0.05299,0.0773 -0.05299,0.22485 z m -0.41389,0.22341 v 0.0114 q 0,0.15754 0.05585,0.24204 0.05585,0.0845 0.158969,0.0845 0.06588,0 0.111708,-0.0401 0.04726,-0.0401 0.0759,-0.12173 h 0.333691 q -0.04583,0.21052 -0.190476,0.32939 -0.143215,0.11887 -0.352308,0.11887 -0.262083,0 -0.416755,-0.19621 -0.154672,-0.1962 -0.154672,-0.52989 0,-0.33799 0.154672,-0.53419 0.154672,-0.19621 0.416755,-0.19621 0.277837,0 0.41962,0.19334 0.141782,0.19335 0.141782,0.57143 v 0.0673 z" />
    <path
       inkscape:connector-curvature="0"
       id="path960"
       style="font-style:normal;font-variant:normal;font-weight:normal;font-stretch:normal;font-size:5.05139208px;line-height:1.25;font-family:'Futura BdCn BT';-inkscape-font-specification:'Futura BdCn BT';letter-spacing:0px;word-spacing:0px;fill:#4d4d4d;fill-opacity:1;stroke:none;stroke-width:0.07332602"
       d="m 26.433868,294.9926 v -1.40494 h 0.360902 v 0.2492 q 0.04726,-0.13749 0.126029,-0.2048 0.07877,-0.0687 0.190476,-0.0702 v 0.3695 h -0.02578 q -0.15324,0 -0.209094,0.073 -0.05442,0.0716 -0.05442,0.32796 v 0.66022 z" />
    <path
       inkscape:connector-curvature="0"
       id="path962"
       style="font-style:normal;font-variant:normal;font-weight:normal;font-stretch:normal;font-size:5.05139208px;line-height:1.25;font-family:'Futura BdCn BT';-inkscape-font-specification:'Futura BdCn BT';letter-spacing:0px;word-spacing:0px;fill:#4d4d4d;fill-opacity:1;stroke:none;stroke-width:0.07332602"
       d="m 27.496523,294.9926 -0.360902,-1.40494 h 0.375223 l 0.120301,0.63301 q 0.01289,0.0673 0.02578,0.17186 0.01432,0.10454 0.02721,0.24203 0.01289,-0.13319 0.02578,-0.2363 0.01432,-0.10455 0.02721,-0.17759 l 0.123165,-0.63301 h 0.375223 l -0.360901,1.40494 z" />
    <path
       inkscape:connector-curvature="0"
       id="path964"
       style="font-style:normal;font-variant:normal;font-weight:normal;font-stretch:normal;font-size:5.05139208px;line-height:1.25;font-family:'Futura BdCn BT';-inkscape-font-specification:'Futura BdCn BT';letter-spacing:0px;word-spacing:0px;fill:#4d4d4d;fill-opacity:1;stroke:none;stroke-width:0.07332602"
       d="m 28.361542,293.21244 q 0,-0.096 0.06301,-0.1604 0.06445,-0.0659 0.160401,-0.0659 0.09166,0 0.156104,0.0659 0.06588,0.0659 0.06588,0.1604 0,0.0917 -0.06445,0.1561 -0.06445,0.063 -0.157536,0.063 -0.09596,0 -0.160401,-0.0616 -0.06301,-0.063 -0.06301,-0.15754 z m 0.02864,1.78016 v -1.40494 h 0.388112 v 1.40494 z" />
    <path
       inkscape:connector-curvature="0"
       id="path966"
       style="font-style:normal;font-variant:normal;font-weight:normal;font-stretch:normal;font-size:5.05139208px;line-height:1.25;font-family:'Futura BdCn BT';-inkscape-font-specification:'Futura BdCn BT';letter-spacing:0px;word-spacing:0px;fill:#4d4d4d;fill-opacity:1;stroke:none;stroke-width:0.07332602"
       d="m 28.957316,294.9926 0.405298,-1.0913 h -0.372359 v -0.31364 h 0.873611 l -0.398137,1.06695 h 0.369494 v 0.33799 z" />
    <path
       inkscape:connector-curvature="0"
       id="path968"
       style="font-style:normal;font-variant:normal;font-weight:normal;font-stretch:normal;font-size:5.05139208px;line-height:1.25;font-family:'Futura BdCn BT';-inkscape-font-specification:'Futura BdCn BT';letter-spacing:0px;word-spacing:0px;fill:#4d4d4d;fill-opacity:1;stroke:none;stroke-width:0.07332602"
       d="m 30.022834,293.21244 q 0,-0.096 0.06301,-0.1604 0.06445,-0.0659 0.160401,-0.0659 0.09166,0 0.156105,0.0659 0.06588,0.0659 0.06588,0.1604 0,0.0917 -0.06445,0.1561 -0.06445,0.063 -0.157536,0.063 -0.09595,0 -0.160401,-0.0616 -0.06301,-0.063 -0.06301,-0.15754 z m 0.02864,1.78016 v -1.40494 h 0.388112 v 1.40494 z" />
    <path
       inkscape:connector-curvature="0"
       id="path970"
       style="font-style:normal;font-variant:normal;font-weight:normal;font-stretch:normal;font-size:5.05139208px;line-height:1.25;font-family:'Futura BdCn BT';-inkscape-font-specification:'Futura BdCn BT';letter-spacing:0px;word-spacing:0px;fill:#4d4d4d;fill-opacity:1;stroke:none;stroke-width:0.07332602"
       d="m 31.422044,294.9926 v -2.09094 h 0.425348 v 2.09094 z" />
    <path
       inkscape:connector-curvature="0"
       id="path972"
       style="font-style:normal;font-variant:normal;font-weight:normal;font-stretch:normal;font-size:5.05139208px;line-height:1.25;font-family:'Futura BdCn BT';-inkscape-font-specification:'Futura BdCn BT';letter-spacing:0px;word-spacing:0px;fill:#4d4d4d;fill-opacity:1;stroke:none;stroke-width:0.07332602"
       d="m 32.822685,294.9926 v -0.8507 q 0,-0.12029 -0.02864,-0.16469 -0.02864,-0.0458 -0.09739,-0.0458 -0.07447,0 -0.107411,0.053 -0.03294,0.053 -0.03294,0.17472 v 0.83351 h -0.388112 v -1.40494 h 0.360901 v 0.21769 q 0.0759,-0.11744 0.170425,-0.17472 0.09596,-0.0573 0.216255,-0.0573 0.164697,0 0.229144,0.0931 0.06445,0.0931 0.06445,0.36663 v 0.95954 z" />
    <path
       inkscape:connector-curvature="0"
       id="path974"
       style="font-style:normal;font-variant:normal;font-weight:normal;font-stretch:normal;font-size:5.05139208px;line-height:1.25;font-family:'Futura BdCn BT';-inkscape-font-specification:'Futura BdCn BT';letter-spacing:0px;word-spacing:0px;fill:#4d4d4d;fill-opacity:1;stroke:none;stroke-width:0.07332602"
       d="m 33.524438,294.9926 v -1.10275 h -0.15324 v -0.30219 h 0.15324 v -0.40529 h 0.386681 v 0.40529 h 0.153239 v 0.30219 h -0.153239 v 1.10275 z" />
    <path
       inkscape:connector-curvature="0"
       id="path976"
       style="font-style:normal;font-variant:normal;font-weight:normal;font-stretch:normal;font-size:5.05139208px;line-height:1.25;font-family:'Futura BdCn BT';-inkscape-font-specification:'Futura BdCn BT';letter-spacing:0px;word-spacing:0px;fill:#4d4d4d;fill-opacity:1;stroke:none;stroke-width:0.07332602"
       d="m 34.958019,294.17055 q -0.0043,-0.15324 -0.05585,-0.22628 -0.05013,-0.0745 -0.151808,-0.0745 -0.10025,0 -0.15324,0.0773 -0.05299,0.0773 -0.05299,0.22485 z m -0.413891,0.22341 v 0.0114 q 0,0.15754 0.05585,0.24204 0.05585,0.0845 0.158968,0.0845 0.06588,0 0.111708,-0.0401 0.04726,-0.0401 0.0759,-0.12173 h 0.333691 q -0.04583,0.21052 -0.190476,0.32939 -0.143215,0.11887 -0.352309,0.11887 -0.262083,0 -0.416755,-0.19621 -0.154672,-0.1962 -0.154672,-0.52989 0,-0.33799 0.154672,-0.53419 0.154672,-0.19621 0.416755,-0.19621 0.277837,0 0.41962,0.19334 0.141782,0.19335 0.141782,0.57143 v 0.0673 z" />
    <path
       inkscape:connector-curvature="0"
       id="path978"
       style="font-style:normal;font-variant:normal;font-weight:normal;font-stretch:normal;font-size:5.05139208px;line-height:1.25;font-family:'Futura BdCn BT';-inkscape-font-specification:'Futura BdCn BT';letter-spacing:0px;word-spacing:0px;fill:#4d4d4d;fill-opacity:1;stroke:none;stroke-width:0.07332602"
       d="m 36.159593,293.58766 h 0.375223 v 1.29896 q 0,0.45113 -0.1203,0.60294 -0.118869,0.1518 -0.431078,0.1518 -0.246329,0 -0.382383,-0.12889 Q 35.465,295.38501 35.465,295.15443 v -0.0215 h 0.327963 q 0,0.10168 0.04583,0.15181 0.04726,0.0516 0.138918,0.0516 0.10025,0 0.140351,-0.053 0.04153,-0.0516 0.04153,-0.18475 v -0.29072 q -0.06731,0.0988 -0.144648,0.14894 -0.0759,0.0501 -0.1604,0.0501 -0.200501,0 -0.307912,-0.18475 -0.105979,-0.18475 -0.105979,-0.53419 0,-0.34229 0.108843,-0.52846 0.108844,-0.18619 0.307912,-0.18619 0.09452,0 0.168994,0.0573 0.0759,0.0559 0.13319,0.17186 z m 0,0.68027 q 0,-0.20479 -0.0401,-0.29215 -0.0401,-0.0888 -0.13319,-0.0888 -0.0845,0 -0.123165,0.0902 -0.03724,0.0902 -0.03724,0.29359 0,0.20193 0.04153,0.30218 0.04296,0.10025 0.128893,0.10025 0.08736,0 0.124597,-0.0917 0.03867,-0.0931 0.03867,-0.31364 z" />
    <path
       inkscape:connector-curvature="0"
       id="path980"
       style="font-style:normal;font-variant:normal;font-weight:normal;font-stretch:normal;font-size:5.05139208px;line-height:1.25;font-family:'Futura BdCn BT';-inkscape-font-specification:'Futura BdCn BT';letter-spacing:0px;word-spacing:0px;fill:#4d4d4d;fill-opacity:1;stroke:none;stroke-width:0.07332602"
       d="m 36.825541,294.9926 v -1.40494 h 0.360901 v 0.2492 q 0.04726,-0.13749 0.126029,-0.2048 0.07877,-0.0687 0.190477,-0.0702 v 0.3695 h -0.02578 q -0.15324,0 -0.209094,0.073 -0.05442,0.0716 -0.05442,0.32796 v 0.66022 z" />
    <path
       inkscape:connector-curvature="0"
       id="path982"
       style="font-style:normal;font-variant:normal;font-weight:normal;font-stretch:normal;font-size:5.05139208px;line-height:1.25;font-family:'Futura BdCn BT';-inkscape-font-specification:'Futura BdCn BT';letter-spacing:0px;word-spacing:0px;fill:#4d4d4d;fill-opacity:1;stroke:none;stroke-width:0.07332602"
       d="m 38.342187,294.26793 q 0,-0.19191 -0.04583,-0.285 -0.0444,-0.0931 -0.138919,-0.0931 -0.0845,0 -0.123165,0.0902 -0.03724,0.0888 -0.03724,0.29073 0,0.2005 0.04153,0.30075 0.04296,0.0988 0.128894,0.0988 0.09166,0 0.133189,-0.096 0.04153,-0.096 0.04153,-0.30649 z m 0.363766,0.72467 h -0.363766 v -0.20766 q -0.06158,0.116 -0.141783,0.17472 -0.07877,0.0587 -0.174722,0.0587 -0.200501,0 -0.307912,-0.18618 -0.105979,-0.18618 -0.105979,-0.53992 0,-0.34371 0.108843,-0.53133 0.110275,-0.18761 0.307912,-0.18761 0.09309,0 0.168994,0.0559 0.07734,0.0558 0.144647,0.17328 v -0.21482 h 0.363766 z" />
    <path
       inkscape:connector-curvature="0"
       id="path984"
       style="font-style:normal;font-variant:normal;font-weight:normal;font-stretch:normal;font-size:5.05139208px;line-height:1.25;font-family:'Futura BdCn BT';-inkscape-font-specification:'Futura BdCn BT';letter-spacing:0px;word-spacing:0px;fill:#4d4d4d;fill-opacity:1;stroke:none;stroke-width:0.07332602"
       d="m 39.035348,294.9926 v -1.10275 h -0.15324 v -0.30219 h 0.15324 v -0.40529 h 0.38668 v 0.40529 h 0.15324 v 0.30219 h -0.15324 v 1.10275 z" />
    <path
       inkscape:connector-curvature="0"
       id="path986"
       style="font-style:normal;font-variant:normal;font-weight:normal;font-stretch:normal;font-size:5.05139208px;line-height:1.25;font-family:'Futura BdCn BT';-inkscape-font-specification:'Futura BdCn BT';letter-spacing:0px;word-spacing:0px;fill:#4d4d4d;fill-opacity:1;stroke:none;stroke-width:0.07332602"
       d="m 39.732804,293.21244 q 0,-0.096 0.06301,-0.1604 0.06445,-0.0659 0.160401,-0.0659 0.09166,0 0.156105,0.0659 0.06588,0.0659 0.06588,0.1604 0,0.0917 -0.06445,0.1561 -0.06445,0.063 -0.157536,0.063 -0.09595,0 -0.160401,-0.0616 -0.06301,-0.063 -0.06301,-0.15754 z m 0.02864,1.78016 v -1.40494 h 0.388112 v 1.40494 z" />
  </g>
</svg>
