<?xml version="1.0" encoding="UTF-8" standalone="no"?>
<!-- Generator: Adobe Illustrator 16.0.0, SVG Export Plug-In . SVG Version: 6.00 Build 0)  -->

<svg
   xmlns:dc="http://purl.org/dc/elements/1.1/"
   xmlns:cc="http://creativecommons.org/ns#"
   xmlns:rdf="http://www.w3.org/1999/02/22-rdf-syntax-ns#"
   xmlns:svg="http://www.w3.org/2000/svg"
   xmlns="http://www.w3.org/2000/svg"
   xmlns:sodipodi="http://sodipodi.sourceforge.net/DTD/sodipodi-0.dtd"
   xmlns:inkscape="http://www.inkscape.org/namespaces/inkscape"
   version="1.1"
   id="Capa_1"
   x="0px"
   y="0px"
   width="22"
   height="22"
   viewBox="0 0 22 22"
   xml:space="preserve"
   sodipodi:docname="pensioni_icon_22.svg"
   inkscape:version="0.92.2 5c3e80d, 2017-08-06"><metadata
     id="metadata57"><rdf:RDF><cc:Work
         rdf:about=""><dc:format>image/svg+xml</dc:format><dc:type
           rdf:resource="http://purl.org/dc/dcmitype/StillImage" /><dc:title></dc:title></cc:Work></rdf:RDF></metadata><defs
     id="defs55" /><sodipodi:namedview
     pagecolor="#ffffff"
     bordercolor="#666666"
     borderopacity="1"
     objecttolerance="10"
     gridtolerance="10"
     guidetolerance="10"
     inkscape:pageopacity="0"
     inkscape:pageshadow="2"
     inkscape:window-width="1908"
     inkscape:window-height="1018"
     id="namedview53"
     showgrid="false"
     inkscape:showpageshadow="false"
     inkscape:zoom="38.227273"
     inkscape:cx="11"
     inkscape:cy="11"
     inkscape:window-x="0"
     inkscape:window-y="0"
     inkscape:window-maximized="0"
     inkscape:current-layer="Capa_1" /><g
     id="g22"
     transform="translate(0,-467.76599)" /><g
     id="g24"
     transform="translate(0,-467.76599)" /><g
     id="g26"
     transform="translate(0,-467.76599)" /><g
     id="g28"
     transform="translate(0,-467.76599)" /><g
     id="g30"
     transform="translate(0,-467.76599)" /><g
     id="g32"
     transform="translate(0,-467.76599)" /><g
     id="g34"
     transform="translate(0,-467.76599)" /><g
     id="g36"
     transform="translate(0,-467.76599)" /><g
     id="g38"
     transform="translate(0,-467.76599)" /><g
     id="g40"
     transform="translate(0,-467.76599)" /><g
     id="g42"
     transform="translate(0,-467.76599)" /><g
     id="g44"
     transform="translate(0,-467.76599)" /><g
     id="g46"
     transform="translate(0,-467.76599)" /><g
     id="g48"
     transform="translate(0,-467.76599)" /><g
     id="g50"
     transform="translate(0,-467.76599)" /><g
     id="g3280"
     transform="matrix(0.04101562,0,0,0.04101562,0.50000128,0.50000128)"><path
       id="path3108"
       d="m 246.583,267.358 -45.441,-11.36 h -128 l -45.441,11.36 C 11.421,271.428 0,286.056 0,302.837 v 172.59 c 0,5.049 4.093,9.143 9.143,9.143 h 256 c 5.049,0 9.143,-4.093 9.143,-9.143 V 302.838 c 0,-16.782 -11.422,-31.41 -27.703,-35.48 z"
       style="fill:#0096dc"
       inkscape:connector-curvature="0" /><path
       id="path3110"
       d="m 246.583,267.357 -28.774,-7.193 c -5.593,13.661 -26.958,59.135 -75.419,92.87 -3.146,2.19 -7.349,2.19 -10.495,0 C 83.434,319.299 62.07,273.826 56.476,260.164 l -28.775,7.194 C 11.421,271.428 0,286.056 0,302.837 v 172.589 c 0,5.049 4.093,9.143 9.143,9.143 H 274.286 V 302.838 c 0,-16.782 -11.422,-31.411 -27.703,-35.481 z"
       style="fill:#b48764"
       inkscape:connector-curvature="0" /><rect
       id="rect3112"
       height="54.856998"
       width="91.43"
       style="fill:#d29b6e"
       y="210.28"
       x="91.43" /><path
       id="path3114"
       d="M 219.429,118.855 V 91.427 c 0,-35.347 -28.654,-64 -64,-64 h -36.571 c -35.346,0 -64,28.653 -64,64 v 27.429 c -10.099,0 -18.286,8.186 -18.286,18.286 0,10.099 8.187,18.286 18.286,18.286 0,45.445 36.84,82.286 82.286,82.286 45.446,0 82.286,-36.84 82.286,-82.286 10.099,0 18.286,-8.187 18.286,-18.286 -0.002,-10.1 -8.189,-18.287 -18.287,-18.287 z"
       style="fill:#f0c087"
       inkscape:connector-curvature="0" /><path
       id="path3116"
       d="m 100.571,155.427 v -64 c 0,-33.803 26.225,-61.416 59.429,-63.769 -1.516,-0.108 -3.028,-0.231 -4.571,-0.231 h -36.571 c -35.346,0 -64,28.653 -64,64 v 27.429 c -10.099,0 -18.286,8.186 -18.286,18.286 0,10.099 8.187,18.286 18.286,18.286 0,45.445 36.84,82.286 82.286,82.286 7.94,0 15.593,-1.186 22.857,-3.285 -34.313,-9.915 -59.43,-41.497 -59.43,-79.002 z"
       style="fill:#e6af78"
       inkscape:connector-curvature="0" /><path
       id="path3118"
       d="m 137.143,201.141 c -9.679,0 -18.929,-4.563 -25.384,-12.527 -3.188,-3.92 -2.58,-9.679 1.339,-12.857 3.929,-3.188 9.688,-2.589 12.857,1.339 6.036,7.429 16.339,7.429 22.375,0 3.17,-3.929 8.92,-4.527 12.857,-1.339 3.92,3.179 4.527,8.938 1.339,12.857 -6.455,7.964 -15.705,12.527 -25.383,12.527 z"
       style="fill:#d29b6e"
       inkscape:connector-curvature="0" /><g
       id="g3124"><path
         id="path3120"
         d="m 100.571,155.427 c -5.054,0 -9.143,-4.089 -9.143,-9.143 v -9.143 c 0,-5.054 4.089,-9.143 9.143,-9.143 5.054,0 9.143,4.089 9.143,9.143 v 9.143 c 0,5.053 -4.089,9.143 -9.143,9.143 z"
         style="fill:#64463c"
         inkscape:connector-curvature="0" /><path
         id="path3122"
         d="m 173.714,155.427 c -5.054,0 -9.143,-4.089 -9.143,-9.143 v -9.143 c 0,-5.054 4.089,-9.143 9.143,-9.143 5.054,0 9.143,4.089 9.143,9.143 v 9.143 c 0,5.053 -4.089,9.143 -9.143,9.143 z"
         style="fill:#64463c"
         inkscape:connector-curvature="0" /></g><g
       id="g3130"><path
         id="path3126"
         d="m 73.143,66.284 c 0,-10.099 -8.187,-18.286 -18.286,-18.286 -10.099,0 -18.286,8.186 -18.286,18.286 0,3.725 1.127,7.181 3.04,10.071 -9.64,2.684 -16.754,11.433 -16.754,21.929 0,12.623 10.233,22.857 22.857,22.857 12.624,0 22.857,-10.234 22.857,-22.857 0,-5.969 -2.342,-11.357 -6.088,-15.427 6.278,-2.897 10.66,-9.206 10.66,-16.573 z"
         style="fill:#d5dced"
         inkscape:connector-curvature="0" /><path
         id="path3128"
         d="m 201.143,66.284 c 0,-10.099 8.187,-18.286 18.286,-18.286 10.099,0 18.286,8.186 18.286,18.286 0,3.725 -1.127,7.181 -3.04,10.071 9.64,2.684 16.754,11.433 16.754,21.929 0,12.623 -10.233,22.857 -22.857,22.857 -12.624,0 -22.857,-10.234 -22.857,-22.857 0,-5.969 2.342,-11.357 6.088,-15.427 -6.278,-2.897 -10.66,-9.206 -10.66,-16.573 z"
         style="fill:#d5dced"
         inkscape:connector-curvature="0" /></g><g
       id="g3136"><path
         id="path3132"
         d="M 41.468,315.752 7.072,281.356 C 2.634,287.45 0,294.878 0,302.837 v 172.59 c 0,5.049 4.093,9.143 9.143,9.143 H 54.857 V 348.076 c 0,-12.124 -4.816,-23.751 -13.389,-32.324 z"
         style="fill:#0096dc"
         inkscape:connector-curvature="0" /><path
         id="path3134"
         d="m 232.818,315.752 34.396,-34.396 c 4.438,6.094 7.072,13.522 7.072,21.481 V 484.57 H 219.429 V 348.076 c 0,-12.124 4.816,-23.751 13.389,-32.324 z"
         style="fill:#0096dc"
         inkscape:connector-curvature="0" /></g><path
       id="path3138"
       d="m 137.143,329.141 v 0 c -5.049,0 -9.143,-4.093 -9.143,-9.143 v -54.857 h 18.286 v 54.857 c 0,5.05 -4.094,9.143 -9.143,9.143 z"
       style="fill:#007dc3"
       inkscape:connector-curvature="0" /><g
       id="g3144"><path
         id="path3140"
         d="m 90.463,241.801 46.68,23.34 -20.347,27.13 c -3.586,4.781 -10.72,4.893 -14.454,0.226 L 73.143,255.998 78.197,245.89 c 2.258,-4.516 7.75,-6.347 12.266,-4.089 z"
         style="fill:#00aaf0"
         inkscape:connector-curvature="0" /><path
         id="path3142"
         d="m 183.822,241.801 -46.68,23.34 20.347,27.13 c 3.586,4.781 10.72,4.893 14.454,0.226 l 29.199,-36.499 -5.054,-10.108 c -2.257,-4.516 -7.749,-6.347 -12.266,-4.089 z"
         style="fill:#00aaf0"
         inkscape:connector-curvature="0" /></g><g
       id="g3150"><path
         id="path3146"
         d="m 448,246.855 c 15.148,0 27.429,12.28 27.429,27.429 0,0.558 -0.131,1.079 -0.164,1.629 10.713,3.733 18.45,13.814 18.45,25.8 0,15.148 -12.28,27.429 -27.429,27.429 h -45.714 v -54.857 c -10e-4,-15.15 12.28,-27.43 27.428,-27.43 z"
         style="fill:#c7cfe2"
         inkscape:connector-curvature="0" /><path
         id="path3148"
         d="m 320,246.855 c -15.148,0 -27.429,12.28 -27.429,27.429 0,0.558 0.131,1.079 0.164,1.629 -10.713,3.733 -18.45,13.814 -18.45,25.8 0,15.148 12.28,27.429 27.429,27.429 h 45.714 v -54.857 c 10e-4,-15.15 -12.28,-27.43 -27.428,-27.43 z"
         style="fill:#c7cfe2"
         inkscape:connector-curvature="0" /></g><path
       id="path3152"
       d="M 483.263,326.789 432.065,306.31 c -5.206,-2.083 -9.068,-6.386 -10.675,-11.561 l -0.819,-20.465 h -73.143 l -0.82,20.465 c -1.605,5.176 -5.468,9.479 -10.675,11.561 l -51.198,20.479 C 267.381,333.731 256,350.541 256,369.234 V 475.43 c 0,5.05 4.093,9.143 9.143,9.143 l 237.714,-0.004 c 5.049,0 9.143,-4.093 9.143,-9.143 V 369.234 c 0,-18.693 -11.381,-35.503 -28.737,-42.445 z"
       style="fill:#966d50"
       inkscape:connector-curvature="0" /><path
       id="path3154"
       d="M 483.263,326.785 443.256,310.782 C 429,327.587 407.761,338.28 384,338.28 c -23.762,0 -45.001,-10.694 -59.256,-27.498 l -40.007,16.003 C 267.381,333.727 256,350.537 256,369.23 v 106.196 c 0,5.05 4.094,9.143 9.143,9.143 l 237.714,-0.003 c 5.049,0 9.143,-4.093 9.143,-9.143 V 369.23 c 0,-18.693 -11.381,-35.503 -28.737,-42.445 z"
       style="fill:#ffdc64"
       inkscape:connector-curvature="0" /><circle
       id="circle3156"
       r="100.57"
       cy="164.57001"
       cx="384"
       style="fill:#d5dced" /><path
       id="path3158"
       d="m 347.429,164.57 c 0,-44.343 28.734,-81.906 68.571,-95.283 -10.063,-3.379 -20.799,-5.288 -32,-5.288 -55.544,0 -100.571,45.027 -100.571,100.571 0,55.544 45.027,100.571 100.571,100.571 11.201,0 21.938,-1.908 32,-5.288 -39.837,-13.378 -68.571,-50.94 -68.571,-95.283 z"
       style="fill:#c7cfe2"
       inkscape:connector-curvature="0" /><path
       id="path3160"
       d="m 384,301.712 v 0 c -45.445,0 -82.286,-36.841 -82.286,-82.286 v -30.435 c 0,-3.699 2.339,-6.86 5.722,-8.354 16.068,-7.096 28.418,-19.897 34.91,-27.71 2.895,-3.484 7.94,-4.32 11.694,-1.783 45.813,30.952 112.245,24.286 112.245,59.139 v 9.143 c 10e-4,45.446 -36.84,82.286 -82.285,82.286 z"
       style="fill:#c39772"
       inkscape:connector-curvature="0" /><path
       id="path3162"
       d="m 347.429,219.427 v -69.494 c -1.921,0.406 -3.741,1.382 -5.081,2.996 -6.493,7.813 -18.843,20.614 -34.91,27.71 -3.384,1.494 -5.723,4.655 -5.723,8.354 v 30.435 c 0,45.445 36.84,82.286 82.286,82.286 7.94,0 15.593,-1.186 22.857,-3.285 -34.313,-9.915 -59.429,-41.497 -59.429,-79.002 z"
       style="fill:#b48764"
       inkscape:connector-curvature="0" /><path
       id="path3164"
       d="m 384,265.141 c -9.679,0 -18.929,-4.563 -25.384,-12.527 -3.188,-3.92 -2.58,-9.679 1.339,-12.857 3.929,-3.196 9.679,-2.589 12.857,1.339 6.036,7.429 16.339,7.429 22.375,0 3.17,-3.929 8.92,-4.536 12.857,-1.339 3.92,3.179 4.527,8.938 1.339,12.857 -6.454,7.964 -15.704,12.527 -25.383,12.527 z"
       style="fill:#966d50"
       inkscape:connector-curvature="0" /><path
       id="path3166"
       d="m 365.705,219.427 c -1.75,0 -3.509,-0.5 -5.071,-1.545 -4.196,-2.804 -5.33,-8.482 -2.518,-12.679 5.527,-8.268 15.196,-13.205 25.884,-13.205 10.679,0 20.357,4.929 25.884,13.188 2.813,4.196 1.688,9.875 -2.509,12.688 -4.196,2.804 -9.875,1.688 -12.688,-2.509 -4.196,-6.268 -17.179,-6.268 -21.375,0 -1.758,2.633 -4.651,4.062 -7.607,4.062 z"
       style="fill:#707487"
       inkscape:connector-curvature="0" /><g
       id="g3172"><path
         id="path3168"
         d="m 347.429,237.712 c -15.125,0 -27.429,-12.304 -27.429,-27.429 0,-15.125 12.304,-27.429 27.429,-27.429 15.125,0 27.429,12.304 27.429,27.429 0,15.125 -12.304,27.429 -27.429,27.429 z"
         style="fill:#7f8499"
         inkscape:connector-curvature="0" /><path
         id="path3170"
         d="m 420.571,237.712 c -15.125,0 -27.429,-12.304 -27.429,-27.429 0,-15.125 12.304,-27.429 27.429,-27.429 15.125,0 27.429,12.305 27.429,27.43 0,15.125 -12.304,27.428 -27.429,27.428 z"
         style="fill:#7f8499"
         inkscape:connector-curvature="0" /></g><g
       id="g3178"><path
         id="path3174"
         d="m 420.571,201.141 c -5.045,0 -9.143,4.098 -9.143,9.143 0,5.045 4.098,9.143 9.143,9.143 5.045,0 9.143,-4.098 9.143,-9.143 0,-5.045 -4.098,-9.143 -9.143,-9.143 z"
         style="fill:#ffffff"
         inkscape:connector-curvature="0" /><path
         id="path3176"
         d="m 347.429,201.141 c -5.045,0 -9.143,4.098 -9.143,9.143 0,5.045 4.098,9.143 9.143,9.143 5.045,0 9.143,-4.098 9.143,-9.143 0,-5.045 -4.099,-9.143 -9.143,-9.143 z"
         style="fill:#ffffff"
         inkscape:connector-curvature="0" /></g><g
       id="g3186"><path
         id="path3180"
         d="M 293.681,375.964 262.932,345.215 C 258.549,352.293 256,360.531 256,369.229 v 106.197 c 0,5.049 4.093,9.143 9.143,9.143 l 36.571,-0.001 v -89.21 c 0,-7.273 -2.89,-14.25 -8.033,-19.394 z"
         style="fill:#ffc850"
         inkscape:connector-curvature="0" /><path
         id="path3182"
         d="m 474.319,375.964 30.749,-30.749 c 4.383,7.078 6.932,15.316 6.932,24.014 v 106.197 c 0,5.049 -4.093,9.143 -9.143,9.143 l -36.571,-0.001 v -89.21 c 0,-7.273 2.89,-14.25 8.033,-19.394 z"
         style="fill:#ffc850"
         inkscape:connector-curvature="0" /><path
         id="path3184"
         d="m 384,365.712 c 35.029,0 65.844,-17.93 83.852,-45.092 l -24.595,-9.838 C 429,327.587 407.761,338.28 384,338.28 c -23.762,0 -45.001,-10.694 -59.256,-27.498 l -24.595,9.838 c 18.007,27.162 48.822,45.092 83.851,45.092 z"
         style="fill:#ffc850"
         inkscape:connector-curvature="0" /></g><g
       id="g3188" /><g
       id="g3190" /><g
       id="g3192" /><g
       id="g3194" /><g
       id="g3196" /><g
       id="g3198" /><g
       id="g3200" /><g
       id="g3202" /><g
       id="g3204" /><g
       id="g3206" /><g
       id="g3208" /><g
       id="g3210" /><g
       id="g3212" /><g
       id="g3214" /><g
       id="g3216" /></g></svg>