<?xml version="1.0" encoding="UTF-8" standalone="no"?>
<!-- Generator: Adobe Illustrator 16.0.0, SVG Export Plug-In . SVG Version: 6.00 Build 0)  -->

<svg
   xmlns:dc="http://purl.org/dc/elements/1.1/"
   xmlns:cc="http://creativecommons.org/ns#"
   xmlns:rdf="http://www.w3.org/1999/02/22-rdf-syntax-ns#"
   xmlns:svg="http://www.w3.org/2000/svg"
   xmlns="http://www.w3.org/2000/svg"
   xmlns:sodipodi="http://sodipodi.sourceforge.net/DTD/sodipodi-0.dtd"
   xmlns:inkscape="http://www.inkscape.org/namespaces/inkscape"
   version="1.1"
   id="Capa_1"
   x="0px"
   y="0px"
   width="42"
   height="42"
   viewBox="0 0 42 42"
   xml:space="preserve"
   sodipodi:docname="salute_icon_32.svg"
   inkscape:version="0.92.2 5c3e80d, 2017-08-06"><metadata
     id="metadata57"><rdf:RDF><cc:Work
         rdf:about=""><dc:format>image/svg+xml</dc:format><dc:type
           rdf:resource="http://purl.org/dc/dcmitype/StillImage" /><dc:title></dc:title></cc:Work></rdf:RDF></metadata><defs
     id="defs55" /><sodipodi:namedview
     pagecolor="#ffffff"
     bordercolor="#666666"
     borderopacity="1"
     objecttolerance="10"
     gridtolerance="10"
     guidetolerance="10"
     inkscape:pageopacity="0"
     inkscape:pageshadow="2"
     inkscape:window-width="1908"
     inkscape:window-height="1018"
     id="namedview53"
     showgrid="false"
     inkscape:showpageshadow="false"
     inkscape:zoom="10.011905"
     inkscape:cx="15.027356"
     inkscape:cy="19.971365"
     inkscape:window-x="0"
     inkscape:window-y="0"
     inkscape:window-maximized="0"
     inkscape:current-layer="Capa_1" /><g
     id="g22"
     transform="translate(0,-447.76599)" /><g
     id="g24"
     transform="translate(0,-447.76599)" /><g
     id="g26"
     transform="translate(0,-447.76599)" /><g
     id="g28"
     transform="translate(0,-447.76599)" /><g
     id="g30"
     transform="translate(0,-447.76599)" /><g
     id="g32"
     transform="translate(0,-447.76599)" /><g
     id="g34"
     transform="translate(0,-447.76599)" /><g
     id="g36"
     transform="translate(0,-447.76599)" /><g
     id="g38"
     transform="translate(0,-447.76599)" /><g
     id="g40"
     transform="translate(0,-447.76599)" /><g
     id="g42"
     transform="translate(0,-447.76599)" /><g
     id="g44"
     transform="translate(0,-447.76599)" /><g
     id="g46"
     transform="translate(0,-447.76599)" /><g
     id="g48"
     transform="translate(0,-447.76599)" /><g
     id="g50"
     transform="translate(0,-447.76599)" /><g
     id="g3696"
     transform="matrix(0.04882812,0,0,0.04882814,8.5000013,8.5000113)"><path
       id="path3575"
       d="m 512,434.016 v 77.013 H 0 v -77.013 c 0,-20.373 12.48,-38.731 31.456,-46.08 l 107.957,-42.453 84.267,92.597 26.443,-53.867 v -0.107 l 5.877,-12.063 5.984,12.064 26.453,53.973 84.149,-92.597 108.064,42.453 c 18.87,7.467 31.35,25.707 31.35,46.08"
       style="fill:#f2f2f2"
       inkscape:connector-curvature="0" /><path
       id="path3577"
       d="m 331.52,329.483 h 0.107 v -43.84 c -5.6,8.491 -12.107,17.109 -19.669,25.728 l -10.453,11.52 c -9.6,10.443 -23.253,16.533 -37.44,16.533 h -16 c -14.187,0 -27.851,-6.08 -37.44,-16.533 l -10.453,-11.52 c -7.648,-8.693 -14.229,-17.429 -19.851,-26.005 v 44.043 l 0.171,0.085 65.813,37.12 9.707,5.44 9.707,-5.44 z"
       style="fill:#f8b64c"
       inkscape:connector-curvature="0" /><g
       id="g3583"
       style="opacity:0.1"><g
         id="g3581"><path
           id="path3579"
           d="m 229.024,335.52 c -0.064,-0.021 -0.128,-0.043 -0.192,-0.064 -0.107,-0.043 -0.224,-0.075 -0.331,-0.107 -0.107,-0.053 -0.224,-0.064 -0.373,-0.117 l 40.224,29.877 63.168,-35.627 h 0.064 l 0.043,-43.616 c -0.107,0.16 -14.997,19.669 -19.669,25.483 l -10.453,11.531 c -9.6,10.443 -23.253,16.533 -37.44,16.533 h -16 c -3.232,0 -6.4,-0.352 -9.504,-1.013 -3.286,-0.629 -6.454,-1.611 -9.537,-2.88"
           style="fill:#40596b"
           inkscape:connector-curvature="0" /></g></g><g
       id="g3589"><path
         id="path3585"
         d="m 181.141,196.309 c 1.664,19.147 -7.627,35.605 -20.747,36.736 -13.141,1.152 -25.141,-13.451 -26.837,-32.597 -1.664,-19.147 7.627,-35.584 20.768,-36.736 13.131,-1.152 25.152,13.44 26.816,32.597"
         style="fill:#f8b64c"
         inkscape:connector-curvature="0" /><path
         id="path3587"
         d="m 378.539,200.469 c -1.664,19.147 -13.685,33.739 -26.816,32.587 -13.141,-1.152 -22.443,-17.589 -20.747,-36.736 1.664,-19.147 13.685,-33.749 26.816,-32.597 13.141,1.13 22.432,17.589 20.747,36.746"
         style="fill:#f8b64c"
         inkscape:connector-curvature="0" /></g><path
       id="path3591"
       d="m 364.853,196.373 c -2.016,21.44 -12.171,68.683 -52.896,114.976 l -10.453,11.52 c -9.6,10.453 -23.253,16.544 -37.44,16.544 h -16 c -14.187,0 -27.851,-6.08 -37.44,-16.544 l -10.453,-11.52 c -40.747,-46.293 -50.773,-93.547 -52.917,-114.976 -2.88,-29.547 -1.707,-67.093 0,-76.8 9.707,-56.853 58.357,-92.16 108.811,-92.16 50.443,0 99.083,35.307 108.789,92.16 1.706,9.707 2.879,47.264 -10e-4,76.8"
       style="fill:#ffd15c"
       inkscape:connector-curvature="0" /><path
       id="path3593"
       d="m 172.896,54.368 c 0,0 0.747,-71.819 105.163,-48.875 0,0 51.808,16.277 85.141,64.427 0,0 31.275,45.419 14.272,83.627 -5.525,12.405 -11.456,26.603 -10.773,38.005 0,0 -5.792,-24.203 -9.248,-44.373 -2.891,-16.896 -10.165,-32.725 -21.333,-45.717 l -0.331,-0.395 c -18.08,-20.939 -46.379,-30.731 -73.141,-23.829 -12.768,3.296 -27.296,9.728 -43.275,21.131 0,0 -43.499,-29.195 -65.003,21.909 0,0 -9.579,37.355 -8.224,66.859 0,-0.012 -59.872,-125.366 26.752,-132.769"
       style="fill:#40596b"
       inkscape:connector-curvature="0" /><path
       id="path3595"
       d="m 398.603,375.349 c -0.213,-1.813 -0.629,-18.443 -4.043,-25.163 -5.771,-11.317 -16.107,-18.88 -28.587,-20.8 l -34.347,-6.933 v 7.04 h -0.107 l -4.917,2.773 37.664,7.68 c 9.067,1.387 16.651,6.827 20.693,15.029 2.667,5.227 3.755,10.891 2.891,16.437 l -0.224,2.773 c -45.12,39.147 -57.92,74.453 -58.453,76.053 -3.392,10.133 -3.189,18.133 0.544,23.893 4.171,6.507 10.976,7.253 11.829,7.36 l 1.067,-10.667 c -0.107,0 -2.667,-0.437 -4.043,-2.667 -1.707,-2.784 -1.504,-7.893 0.747,-14.411 0.107,-0.224 6.4,-17.589 25.6,-41.077 5.333,-2.667 11.296,-3.189 17.067,-1.493 5.547,1.707 10.229,5.451 13.12,10.443 2.123,30.837 -2.56,48.971 -2.667,49.077 -2.037,6.613 -4.811,10.987 -7.893,12.16 -2.453,1.077 -4.704,-0.107 -4.704,-0.213 l -2.667,4.683 -2.773,4.619 c 0.437,0.32 3.733,2.133 8.107,2.133 1.813,0 3.755,-0.32 5.771,-1.173 6.4,-2.443 11.317,-8.853 14.496,-19.093 0.437,-1.599 10.346,-38.836 -4.171,-98.463 m -14.166,27.627 c -3.211,-0.96 -6.624,-1.376 -9.835,-1.269 4.608,-5.024 9.707,-10.133 15.477,-15.349 1.6,7.456 2.773,14.603 3.627,21.333 -2.773,-2.048 -5.877,-3.638 -9.269,-4.715"
       style="fill:#acb3ba"
       inkscape:connector-curvature="0" /><g
       id="g3601"><path
         id="path3597"
         d="m 350.933,478.037 c -0.853,4.288 -5.024,7.083 -9.312,6.24 -4.267,-0.843 -1.227,-16.384 3.061,-15.541 4.289,0.843 7.094,5.013 6.251,9.301"
         style="fill:#f8b64c"
         inkscape:connector-curvature="0" /><path
         id="path3599"
         d="m 368.224,483.371 c -1.813,3.979 -0.085,8.672 3.893,10.496 3.979,1.824 10.581,-12.565 6.603,-14.4 -3.947,-1.824 -8.661,-0.075 -10.496,3.904"
         style="fill:#f8b64c"
         inkscape:connector-curvature="0" /></g><path
       id="path3603"
       d="m 180.48,329.483 -0.171,-0.085 v -6.955 l -23.061,4.747 c -24.608,5.067 -45.312,20.768 -56.853,43.061 -11.52,22.315 -12.352,48.299 -2.251,71.296 l 9.771,-4.288 c -8.789,-20.032 -8.107,-42.656 1.963,-62.101 10.037,-19.413 28.085,-33.099 49.504,-37.504 l 26.059,-5.365 z"
       style="fill:#acb3ba"
       inkscape:connector-curvature="0" /><g
       id="g3609"><polygon
         id="polygon3605"
         points="331.733,329.376 372.587,345.483 293.877,448.736 256,372.043 265.707,366.603 331.52,329.483 331.627,329.483 "
         style="fill:#cdd6e0" /><polygon
         id="polygon3607"
         points="218.251,448.736 256,372.043 246.293,366.603 180.48,329.483 180.267,329.376 139.413,345.483 "
         style="fill:#cdd6e0" /></g><polygon
       id="polygon3611"
       points="239.787,461.963 230.496,448.309 223.691,438.069 250.123,384.107 256,372.043 261.984,384.107 261.984,384.213 288.437,438.069 281.504,448.213 272.213,461.963 293.877,511.029 218.251,511.029 "
       style="fill:#334a5e" /><polygon
       id="polygon3613"
       points="223.691,438.069 250.123,384.107 256,372.043 261.984,384.107 261.984,384.213 288.437,438.069 281.504,448.213 256.107,396.256 230.496,448.309 "
       style="fill:#2a4356" /><path
       id="path3615"
       d="m 135.104,458.251 c 0,13.333 -10.837,24.16 -24.171,24.16 -13.334,0 -24.149,-10.827 -24.149,-24.16 0,-13.333 10.816,-24.149 24.149,-24.149 13.333,0 24.171,10.815 24.171,24.149"
       style="fill:#ff7058"
       inkscape:connector-curvature="0" /><path
       id="path3617"
       d="m 127.168,458.251 c 0,8.96 -7.253,16.224 -16.213,16.224 -8.981,0 -16.245,-7.275 -16.245,-16.224 0,-8.949 7.275,-16.224 16.245,-16.224 8.96,0 16.213,7.264 16.213,16.224"
       style="fill:#f2f2f2"
       inkscape:connector-curvature="0" /><path
       id="path3619"
       d="m 122.315,458.251 c 0,6.293 -5.088,11.371 -11.349,11.371 -6.293,0 -11.392,-5.088 -11.392,-11.371 0,-6.272 5.109,-11.36 11.392,-11.36 6.261,0 11.349,5.088 11.349,11.36"
       style="fill:#acb3ba"
       inkscape:connector-curvature="0" /><g
       id="g3621" /><g
       id="g3623" /><g
       id="g3625" /><g
       id="g3627" /><g
       id="g3629" /><g
       id="g3631" /><g
       id="g3633" /><g
       id="g3635" /><g
       id="g3637" /><g
       id="g3639" /><g
       id="g3641" /><g
       id="g3643" /><g
       id="g3645" /><g
       id="g3647" /><g
       id="g3649" /></g><circle
     style="opacity:1;fill:none;fill-opacity:1;stroke:#808080;stroke-width:1.04081094;stroke-linecap:square;stroke-linejoin:miter;stroke-miterlimit:4;stroke-dasharray:none;stroke-dashoffset:0;stroke-opacity:1"
     id="path3951"
     cx="21"
     cy="21"
     r="20.479595" /></svg>